aaram-regular-italics.ufo
<glyph name="exclam" format="1">
  <advance width="76"/>
  <unicode hex="0021"/>
  <outline>
    <contour>
      <point x="49" y="76" type="curve" smooth="yes"/>
      <point x="58" y="76"/>
      <point x="67" y="84"/>
      <point x="69" y="93" type="curve"/>
      <point x="85" y="183" type="line"/>
      <point x="164" y="631" type="line"/>
      <point x="178" y="714" type="line"/>
      <point x="180" y="723"/>
      <point x="173" y="731"/>
      <point x="164" y="731" type="curve" smooth="yes"/>
      <point x="154" y="731"/>
      <point x="146" y="723"/>
      <point x="144" y="714" type="curve"/>
      <point x="130" y="631" type="line"/>
      <point x="51" y="183" type="line"/>
      <point x="35" y="93" type="line"/>
      <point x="33" y="84"/>
      <point x="39" y="76"/>
    </contour>
    <contour>
      <point x="44" y="46" type="curve" smooth="yes"/>
      <point x="34" y="46"/>
      <point x="25" y="38"/>
      <point x="24" y="29" type="curve"/>
      <point x="21" y="16" type="line"/>
      <point x="20" y="7"/>
      <point x="25" y="-1"/>
      <point x="35" y="-1" type="curve" smooth="yes"/>
      <point x="44" y="-1"/>
      <point x="54" y="7"/>
      <point x="55" y="16" type="curve"/>
      <point x="58" y="29" type="line"/>
      <point x="59" y="38"/>
      <point x="53" y="46"/>
    </contour>
  </outline>
</glyph>
<glyph name="quotedbl" format="1">
  <advance width="159"/>
  <unicode hex="0022"/>
  <outline>
    <contour>
      <point x="187" y="693" type="line"/>
      <point x="195" y="750" type="line"/>
      <point x="197" y="762"/>
      <point x="189" y="772"/>
      <point x="176" y="772" type="curve" smooth="yes"/>
      <point x="164" y="772"/>
      <point x="152" y="761"/>
      <point x="150" y="749" type="curve"/>
      <point x="142" y="692" type="line"/>
      <point x="141" y="696" type="line"/>
      <point x="133" y="640" type="line"/>
      <point x="131" y="627"/>
      <point x="139" y="617"/>
      <point x="152" y="617" type="curve" smooth="yes"/>
      <point x="164" y="617"/>
      <point x="176" y="628"/>
      <point x="178" y="640" type="curve"/>
      <point x="186" y="697" type="line"/>
    </contour>
    <contour>
      <point x="261" y="699" type="line"/>
      <point x="261" y="695" type="line"/>
      <point x="269" y="752" type="line"/>
      <point x="271" y="764"/>
      <point x="263" y="774"/>
      <point x="250" y="774" type="curve" smooth="yes"/>
      <point x="238" y="774"/>
      <point x="226" y="763"/>
      <point x="224" y="751" type="curve"/>
      <point x="216" y="694" type="line"/>
      <point x="216" y="698" type="line"/>
      <point x="208" y="642" type="line"/>
      <point x="205" y="629"/>
      <point x="214" y="619"/>
      <point x="227" y="619" type="curve" smooth="yes"/>
      <point x="239" y="619"/>
      <point x="251" y="630"/>
      <point x="253" y="642" type="curve"/>
    </contour>
  </outline>
</glyph>
<glyph name="numbersign" format="1">
  <advance width="627"/>
  <unicode hex="0023"/>
  <outline>
    <contour>
      <point x="682" y="444" type="curve"/>
      <point x="681" y="444" type="line"/>
      <point x="535" y="477" type="line"/>
      <point x="566" y="558" type="line"/>
      <point x="598" y="621"/>
      <point x="591" y="664"/>
      <point x="546" y="680" type="curve" smooth="yes"/>
      <point x="544" y="680"/>
      <point x="542" y="681"/>
      <point x="540" y="681" type="curve" smooth="yes"/>
      <point x="531" y="681"/>
      <point x="522" y="675"/>
      <point x="517" y="666" type="curve" smooth="yes"/>
      <point x="515" y="661"/>
      <point x="514" y="655"/>
      <point x="515" y="650" type="curve" smooth="yes"/>
      <point x="517" y="645"/>
      <point x="521" y="642"/>
      <point x="525" y="640" type="curve" smooth="yes"/>
      <point x="538" y="635"/>
      <point x="545" y="627"/>
      <point x="544" y="615" type="curve" smooth="yes"/>
      <point x="544" y="602"/>
      <point x="536" y="585"/>
      <point x="528" y="571" type="curve"/>
      <point x="528" y="571" type="line"/>
      <point x="495" y="485" type="line"/>
      <point x="368" y="514" type="line"/>
      <point x="386" y="558" type="line"/>
      <point x="418" y="621"/>
      <point x="411" y="664"/>
      <point x="366" y="680" type="curve" smooth="yes"/>
      <point x="363" y="680"/>
      <point x="362" y="681"/>
      <point x="360" y="681" type="curve" smooth="yes"/>
      <point x="351" y="681"/>
      <point x="342" y="675"/>
      <point x="337" y="666" type="curve" smooth="yes"/>
      <point x="334" y="661"/>
      <point x="334" y="655"/>
      <point x="335" y="650" type="curve" smooth="yes"/>
      <point x="337" y="645"/>
      <point x="341" y="642"/>
      <point x="345" y="640" type="curve" smooth="yes"/>
      <point x="358" y="635"/>
      <point x="364" y="627"/>
      <point x="364" y="615" type="curve" smooth="yes"/>
      <point x="364" y="602"/>
      <point x="356" y="585"/>
      <point x="348" y="571" type="curve"/>
      <point x="348" y="571" type="line"/>
      <point x="329" y="523" type="line"/>
      <point x="247" y="541" type="line"/>
      <point x="230" y="547"/>
      <point x="213" y="550"/>
      <point x="198" y="550" type="curve" smooth="yes"/>
      <point x="162" y="550"/>
      <point x="135" y="533"/>
      <point x="118" y="500" type="curve" smooth="yes"/>
      <point x="116" y="494"/>
      <point x="115" y="489"/>
      <point x="117" y="484" type="curve" smooth="yes"/>
      <point x="118" y="479"/>
      <point x="121" y="475"/>
      <point x="127" y="473" type="curve" smooth="yes"/>
      <point x="129" y="472"/>
      <point x="131" y="472"/>
      <point x="133" y="472" type="curve" smooth="yes"/>
      <point x="142" y="472"/>
      <point x="151" y="478"/>
      <point x="155" y="486" type="curve" smooth="yes"/>
      <point x="163" y="502"/>
      <point x="174" y="509"/>
      <point x="190" y="509" type="curve" smooth="yes"/>
      <point x="202" y="509"/>
      <point x="216" y="505"/>
      <point x="227" y="501" type="curve"/>
      <point x="227" y="501" type="line"/>
      <point x="313" y="482" type="line"/>
      <point x="260" y="346" type="line"/>
      <point x="193" y="361" type="line"/>
      <point x="176" y="367"/>
      <point x="160" y="370"/>
      <point x="145" y="370" type="curve" smooth="yes"/>
      <point x="110" y="370"/>
      <point x="82" y="353"/>
      <point x="65" y="320" type="curve" smooth="yes"/>
      <point x="62" y="314"/>
      <point x="62" y="309"/>
      <point x="63" y="304" type="curve" smooth="yes"/>
      <point x="65" y="298"/>
      <point x="69" y="295"/>
      <point x="73" y="293" type="curve" smooth="yes"/>
      <point x="75" y="292"/>
      <point x="78" y="292"/>
      <point x="80" y="292" type="curve" smooth="yes"/>
      <point x="89" y="292"/>
      <point x="98" y="298"/>
      <point x="102" y="306" type="curve" smooth="yes"/>
      <point x="110" y="322"/>
      <point x="121" y="329"/>
      <point x="137" y="329" type="curve" smooth="yes"/>
      <point x="149" y="329"/>
      <point x="163" y="325"/>
      <point x="173" y="321" type="curve"/>
      <point x="174" y="321" type="line"/>
      <point x="244" y="305" type="line"/>
      <point x="171" y="119" type="line"/>
      <point x="169" y="114"/>
      <point x="168" y="109"/>
      <point x="170" y="104" type="curve" smooth="yes"/>
      <point x="171" y="99"/>
      <point x="175" y="95"/>
      <point x="180" y="93" type="curve" smooth="yes"/>
      <point x="182" y="92"/>
      <point x="184" y="92"/>
      <point x="187" y="92" type="curve" smooth="yes"/>
      <point x="196" y="92"/>
      <point x="205" y="98"/>
      <point x="208" y="106" type="curve"/>
      <point x="209" y="107" type="line"/>
      <point x="283" y="296" type="line"/>
      <point x="410" y="268" type="line"/>
      <point x="351" y="119" type="line"/>
      <point x="346" y="108"/>
      <point x="350" y="97"/>
      <point x="360" y="93" type="curve" smooth="yes"/>
      <point x="362" y="92"/>
      <point x="365" y="92"/>
      <point x="367" y="92" type="curve" smooth="yes"/>
      <point x="376" y="92"/>
      <point x="385" y="98"/>
      <point x="389" y="106" type="curve"/>
      <point x="389" y="107" type="line"/>
      <point x="449" y="259" type="line"/>
      <point x="608" y="224" type="line"/>
      <point x="610" y="223"/>
      <point x="612" y="223"/>
      <point x="615" y="223" type="curve" smooth="yes"/>
      <point x="624" y="223"/>
      <point x="633" y="228"/>
      <point x="636" y="237" type="curve" smooth="yes"/>
      <point x="642" y="248"/>
      <point x="638" y="260"/>
      <point x="628" y="263" type="curve"/>
      <point x="628" y="264" type="line"/>
      <point x="464" y="300" type="line"/>
      <point x="518" y="436" type="line"/>
      <point x="662" y="404" type="line"/>
      <point x="664" y="403"/>
      <point x="666" y="403"/>
      <point x="668" y="403" type="curve" smooth="yes"/>
      <point x="668" y="403" type="line"/>
      <point x="677" y="403"/>
      <point x="686" y="409"/>
      <point x="690" y="417" type="curve" smooth="yes"/>
      <point x="696" y="428"/>
      <point x="692" y="440"/>
    </contour>
    <contour>
      <point x="479" y="445" type="line"/>
      <point x="426" y="309" type="line"/>
      <point x="299" y="337" type="line"/>
      <point x="352" y="473" type="line"/>
    </contour>
  </outline>
</glyph>
<glyph name="dollar" format="1">
  <advance width="268"/>
  <unicode hex="0024"/>
  <outline>
    <contour>
      <point x="354" y="556" type="line"/>
      <point x="364" y="614" type="line"/>
      <point x="372" y="663"/>
      <point x="351" y="706"/>
      <point x="311" y="725" type="curve"/>
      <point x="324" y="796" type="line"/>
      <point x="326" y="807"/>
      <point x="319" y="815"/>
      <point x="308" y="815" type="curve" smooth="yes"/>
      <point x="298" y="815"/>
      <point x="289" y="807"/>
      <point x="287" y="796" type="curve"/>
      <point x="276" y="735" type="line"/>
      <point x="271" y="736"/>
      <point x="267" y="736"/>
      <point x="263" y="736" type="curve" smooth="yes"/>
      <point x="259" y="736"/>
      <point x="254" y="736"/>
      <point x="250" y="735" type="curve"/>
      <point x="261" y="796" type="line"/>
      <point x="263" y="807"/>
      <point x="256" y="815"/>
      <point x="245" y="815" type="curve" smooth="yes"/>
      <point x="235" y="815"/>
      <point x="225" y="807"/>
      <point x="223" y="796" type="curve"/>
      <point x="210" y="725" type="line"/>
      <point x="165" y="706"/>
      <point x="128" y="663"/>
      <point x="120" y="614" type="curve"/>
      <point x="93" y="465" type="line"/>
      <point x="93" y="464"/>
      <point x="93" y="463"/>
      <point x="93" y="462" type="curve" smooth="yes"/>
      <point x="92" y="459"/>
      <point x="92" y="456"/>
      <point x="92" y="454" type="curve" smooth="yes"/>
      <point x="89" y="428"/>
      <point x="93" y="405"/>
      <point x="104" y="387" type="curve" smooth="yes"/>
      <point x="107" y="382"/>
      <point x="111" y="377"/>
      <point x="115" y="372" type="curve" smooth="yes"/>
      <point x="124" y="363"/>
      <point x="133" y="357"/>
      <point x="145" y="353" type="curve"/>
      <point x="93" y="58" type="line"/>
      <point x="75" y="73"/>
      <point x="67" y="97"/>
      <point x="72" y="125" type="curve"/>
      <point x="78" y="161" type="line"/>
      <point x="40" y="161" type="line"/>
      <point x="34" y="125" type="line"/>
      <point x="25" y="76"/>
      <point x="46" y="33"/>
      <point x="85" y="14" type="curve"/>
      <point x="72" y="-57" type="line"/>
      <point x="71" y="-68"/>
      <point x="78" y="-76"/>
      <point x="88" y="-76" type="curve" smooth="yes"/>
      <point x="99" y="-76"/>
      <point x="109" y="-68"/>
      <point x="110" y="-57" type="curve"/>
      <point x="121" y="4" type="line"/>
      <point x="125" y="3"/>
      <point x="130" y="3"/>
      <point x="134" y="3" type="curve" smooth="yes"/>
      <point x="138" y="3"/>
      <point x="142" y="3"/>
      <point x="147" y="3" type="curve"/>
      <point x="136" y="-57" type="line"/>
      <point x="135" y="-68"/>
      <point x="141" y="-76"/>
      <point x="151" y="-76" type="curve" smooth="yes"/>
      <point x="162" y="-76"/>
      <point x="172" y="-68"/>
      <point x="173" y="-57" type="curve"/>
      <point x="186" y="14" type="line"/>
      <point x="232" y="33"/>
      <point x="269" y="76"/>
      <point x="278" y="125" type="curve"/>
      <point x="304" y="276" type="line"/>
      <point x="309" y="305"/>
      <point x="305" y="330"/>
      <point x="294" y="350" type="curve" smooth="yes"/>
      <point x="294" y="350"/>
      <point x="293" y="350"/>
      <point x="293" y="351" type="curve" smooth="yes"/>
      <point x="290" y="356"/>
      <point x="286" y="361"/>
      <point x="282" y="366" type="curve" smooth="yes"/>
      <point x="274" y="375"/>
      <point x="264" y="381"/>
      <point x="251" y="385" type="curve"/>
      <point x="304" y="681" type="line"/>
      <point x="322" y="666"/>
      <point x="331" y="642"/>
      <point x="326" y="614" type="curve"/>
      <point x="316" y="556" type="line"/>
    </contour>
    <contour>
      <point x="125" y="429" type="curve"/>
      <point x="158" y="614" type="line"/>
      <point x="163" y="642"/>
      <point x="180" y="666"/>
      <point x="203" y="681" type="curve"/>
      <point x="152" y="393" type="line"/>
      <point x="139" y="400"/>
      <point x="129" y="413"/>
    </contour>
    <contour>
      <point x="141" y="41" type="curve" smooth="yes"/>
      <point x="137" y="41"/>
      <point x="132" y="41"/>
      <point x="128" y="42" type="curve"/>
      <point x="128" y="42" type="line"/>
      <point x="182" y="350" type="line"/>
      <point x="208" y="350" type="line"/>
      <point x="154" y="42" type="line"/>
      <point x="154" y="42" type="line"/>
      <point x="149" y="41"/>
      <point x="145" y="41"/>
    </contour>
    <contour>
      <point x="272" y="308" type="curve"/>
      <point x="240" y="125" type="line"/>
      <point x="235" y="97"/>
      <point x="217" y="73"/>
      <point x="194" y="57" type="curve"/>
      <point x="244" y="345" type="line"/>
      <point x="258" y="339"/>
      <point x="268" y="325"/>
    </contour>
    <contour>
      <point x="269" y="697" type="line"/>
      <point x="215" y="388" type="line"/>
      <point x="189" y="388" type="line"/>
      <point x="243" y="697" type="line"/>
      <point x="243" y="697" type="line"/>
      <point x="248" y="698"/>
      <point x="253" y="698"/>
      <point x="257" y="698" type="curve" smooth="yes"/>
      <point x="261" y="698"/>
      <point x="265" y="698"/>
      <point x="269" y="697" type="curve"/>
    </contour>
  </outline>
</glyph>
<glyph name="percent" format="1">
  <advance width="484"/>
  <unicode hex="0025"/>
  <outline>
    <contour>
      <point x="286" y="451" type="curve"/>
      <point x="308" y="578" type="line"/>
      <point x="318" y="632"/>
      <point x="282" y="676"/>
      <point x="227" y="676" type="curve" smooth="yes"/>
      <point x="173" y="676"/>
      <point x="121" y="632"/>
      <point x="111" y="578" type="curve"/>
      <point x="89" y="451" type="line"/>
      <point x="79" y="396"/>
      <point x="116" y="352"/>
      <point x="170" y="352" type="curve" smooth="yes"/>
      <point x="225" y="352"/>
      <point x="276" y="396"/>
    </contour>
    <contour>
      <point x="177" y="393" type="curve" smooth="yes"/>
      <point x="145" y="393"/>
      <point x="123" y="419"/>
      <point x="129" y="451" type="curve"/>
      <point x="151" y="578" type="line"/>
      <point x="157" y="610"/>
      <point x="188" y="636"/>
      <point x="220" y="636" type="curve" smooth="yes"/>
      <point x="252" y="636"/>
      <point x="273" y="610"/>
      <point x="267" y="578" type="curve"/>
      <point x="245" y="451" type="line"/>
      <point x="239" y="419"/>
      <point x="209" y="393"/>
    </contour>
    <contour>
      <point x="433" y="341" type="curve" smooth="yes"/>
      <point x="379" y="341"/>
      <point x="327" y="296"/>
      <point x="317" y="242" type="curve"/>
      <point x="295" y="115" type="line"/>
      <point x="285" y="60"/>
      <point x="321" y="16"/>
      <point x="375" y="16" type="curve" smooth="yes"/>
      <point x="430" y="16"/>
      <point x="482" y="60"/>
      <point x="492" y="115" type="curve"/>
      <point x="514" y="242" type="line"/>
      <point x="524" y="296"/>
      <point x="488" y="341"/>
    </contour>
    <contour>
      <point x="383" y="57" type="curve" smooth="yes"/>
      <point x="351" y="57"/>
      <point x="329" y="83"/>
      <point x="335" y="115" type="curve"/>
      <point x="357" y="242" type="line"/>
      <point x="363" y="274"/>
      <point x="393" y="300"/>
      <point x="425" y="300" type="curve" smooth="yes"/>
      <point x="457" y="300"/>
      <point x="479" y="274"/>
      <point x="473" y="242" type="curve"/>
      <point x="451" y="115" type="line"/>
      <point x="445" y="83"/>
      <point x="415" y="57"/>
    </contour>
    <contour>
      <point x="452" y="731" type="curve" smooth="yes"/>
      <point x="444" y="736"/>
      <point x="432" y="732"/>
      <point x="425" y="722" type="curve" smooth="yes"/>
      <point x="418" y="712"/>
      <point x="420" y="701"/>
      <point x="429" y="696" type="curve" smooth="yes"/>
      <point x="468" y="675"/>
      <point x="450" y="637"/>
      <point x="421" y="594" type="curve"/>
      <point x="115" y="29" type="line"/>
      <point x="109" y="19"/>
      <point x="111" y="8"/>
      <point x="119" y="3" type="curve" smooth="yes"/>
      <point x="128" y="-2"/>
      <point x="141" y="2"/>
      <point x="147" y="12" type="curve"/>
      <point x="453" y="577" type="line"/>
      <point x="495" y="639"/>
      <point x="509" y="700"/>
    </contour>
  </outline>
</glyph>
<glyph name="ampersand" format="1">
  <advance width="431"/>
  <unicode hex="0026"/>
  <outline>
    <contour>
      <point x="477" y="429" type="curve" smooth="yes"/>
      <point x="479" y="439"/>
      <point x="472" y="448"/>
      <point x="461" y="448" type="curve" smooth="yes"/>
      <point x="451" y="448"/>
      <point x="441" y="439"/>
      <point x="439" y="429" type="curve" smooth="yes"/>
      <point x="432" y="388"/>
      <point x="393" y="355"/>
      <point x="352" y="355" type="curve"/>
      <point x="161" y="355" type="line"/>
      <point x="206" y="611" type="line"/>
      <point x="214" y="657"/>
      <point x="259" y="695"/>
      <point x="305" y="695" type="curve" smooth="yes"/>
      <point x="352" y="695"/>
      <point x="382" y="657"/>
      <point x="374" y="611" type="curve"/>
      <point x="367" y="571" type="line"/>
      <point x="367" y="570"/>
      <point x="367" y="570"/>
      <point x="367" y="570" type="curve" smooth="yes"/>
      <point x="367" y="569"/>
      <point x="367" y="568"/>
      <point x="366" y="567" type="curve"/>
      <point x="365" y="558" type="line"/>
      <point x="359" y="523"/>
      <point x="349" y="496"/>
      <point x="280" y="496" type="curve"/>
      <point x="278" y="496" type="line"/>
      <point x="267" y="496"/>
      <point x="258" y="488"/>
      <point x="256" y="477" type="curve" smooth="yes"/>
      <point x="254" y="467"/>
      <point x="260" y="459"/>
      <point x="271" y="459" type="curve"/>
      <point x="273" y="459" type="line"/>
      <point x="377" y="459"/>
      <point x="392" y="499"/>
      <point x="402" y="552" type="curve"/>
      <point x="402" y="552" type="line"/>
      <point x="402" y="555" type="line"/>
      <point x="403" y="560"/>
      <point x="404" y="565"/>
      <point x="405" y="570" type="curve"/>
      <point x="412" y="611" type="line"/>
      <point x="424" y="678"/>
      <point x="379" y="733"/>
      <point x="312" y="733" type="curve" smooth="yes"/>
      <point x="245" y="733"/>
      <point x="180" y="678"/>
      <point x="168" y="611" type="curve"/>
      <point x="123" y="355" type="line"/>
      <point x="120" y="355" type="line"/>
      <point x="110" y="355"/>
      <point x="101" y="346"/>
      <point x="99" y="336" type="curve" smooth="yes"/>
      <point x="97" y="325"/>
      <point x="103" y="317"/>
      <point x="113" y="317" type="curve"/>
      <point x="116" y="317" type="line"/>
      <point x="82" y="121" type="line"/>
      <point x="70" y="54"/>
      <point x="115" y="-1"/>
      <point x="182" y="-1" type="curve" smooth="yes"/>
      <point x="249" y="-1"/>
      <point x="314" y="54"/>
      <point x="326" y="121" type="curve"/>
      <point x="361" y="318" type="line"/>
      <point x="417" y="325"/>
      <point x="467" y="372"/>
    </contour>
    <contour>
      <point x="189" y="37" type="curve" smooth="yes"/>
      <point x="143" y="37"/>
      <point x="112" y="75"/>
      <point x="120" y="121" type="curve"/>
      <point x="154" y="317" type="line"/>
      <point x="322" y="317" type="line"/>
      <point x="288" y="121" type="line"/>
      <point x="280" y="75"/>
      <point x="236" y="37"/>
    </contour>
  </outline>
</glyph>
<glyph name="quotesingle" format="1">
  <advance width="151"/>
  <unicode hex="0027"/>
  <outline>
    <contour>
      <point x="188" y="617" type="curve" smooth="yes"/>
      <point x="200" y="617"/>
      <point x="212" y="628"/>
      <point x="214" y="640" type="curve"/>
      <point x="222" y="697" type="line"/>
      <point x="223" y="693" type="line"/>
      <point x="231" y="750" type="line"/>
      <point x="233" y="762"/>
      <point x="225" y="772"/>
      <point x="212" y="772" type="curve" smooth="yes"/>
      <point x="200" y="772"/>
      <point x="188" y="761"/>
      <point x="186" y="749" type="curve"/>
      <point x="178" y="692" type="line"/>
      <point x="177" y="696" type="line"/>
      <point x="169" y="640" type="line"/>
      <point x="167" y="627"/>
      <point x="175" y="617"/>
    </contour>
  </outline>
</glyph>
<glyph name="parenleft" format="1">
  <advance width="184"/>
  <unicode hex="0028"/>
  <outline>
    <contour>
      <point x="79" y="0" type="curve"/>
      <point x="162" y="0" type="line"/>
      <point x="172" y="0"/>
      <point x="182" y="9"/>
      <point x="184" y="19" type="curve" smooth="yes"/>
      <point x="186" y="30"/>
      <point x="178" y="39"/>
      <point x="168" y="39" type="curve"/>
      <point x="100" y="39" type="line"/>
      <point x="99" y="87"/>
      <point x="95" y="245"/>
      <point x="116" y="366" type="curve" smooth="yes"/>
      <point x="139" y="497"/>
      <point x="197" y="647"/>
      <point x="216" y="693" type="curve"/>
      <point x="284" y="693" type="line"/>
      <point x="294" y="693"/>
      <point x="304" y="702"/>
      <point x="306" y="713" type="curve" smooth="yes"/>
      <point x="308" y="723"/>
      <point x="301" y="732"/>
      <point x="291" y="732" type="curve"/>
      <point x="208" y="732" type="line"/>
      <point x="199" y="732"/>
      <point x="190" y="726"/>
      <point x="186" y="717" type="curve" smooth="yes"/>
      <point x="183" y="710"/>
      <point x="106" y="528"/>
      <point x="77" y="366" type="curve" smooth="yes"/>
      <point x="51" y="218"/>
      <point x="62" y="23"/>
      <point x="62" y="15" type="curve" smooth="yes"/>
      <point x="63" y="6"/>
      <point x="70" y="0"/>
    </contour>
  </outline>
</glyph>
<glyph name="parenright" format="1">
  <advance width="184"/>
  <unicode hex="0029"/>
  <outline>
    <contour>
      <point x="105" y="0" type="curve"/>
      <point x="22" y="0" type="line"/>
      <point x="12" y="0"/>
      <point x="4" y="9"/>
      <point x="6" y="19" type="curve" smooth="yes"/>
      <point x="8" y="30"/>
      <point x="18" y="39"/>
      <point x="28" y="39" type="curve"/>
      <point x="96" y="39" type="line"/>
      <point x="115" y="87"/>
      <point x="175" y="245"/>
      <point x="196" y="366" type="curve" smooth="yes"/>
      <point x="219" y="497"/>
      <point x="215" y="647"/>
      <point x="212" y="693" type="curve"/>
      <point x="144" y="693" type="line"/>
      <point x="134" y="693"/>
      <point x="126" y="702"/>
      <point x="128" y="713" type="curve" smooth="yes"/>
      <point x="130" y="723"/>
      <point x="141" y="732"/>
      <point x="151" y="732" type="curve"/>
      <point x="234" y="732" type="line"/>
      <point x="243" y="732"/>
      <point x="250" y="726"/>
      <point x="250" y="717" type="curve" smooth="yes"/>
      <point x="251" y="710"/>
      <point x="264" y="528"/>
      <point x="235" y="366" type="curve" smooth="yes"/>
      <point x="209" y="218"/>
      <point x="130" y="23"/>
      <point x="126" y="15" type="curve" smooth="yes"/>
      <point x="123" y="6"/>
      <point x="114" y="0"/>
    </contour>
  </outline>
</glyph>
<glyph name="asterisk" format="1">
  <advance width="570"/>
  <unicode hex="002A"/>
  <outline>
    <contour>
      <point x="634" y="507" type="curve"/>
      <point x="420" y="507" type="line"/>
      <point x="599" y="658" type="line"/>
      <point x="602" y="662"/>
      <point x="605" y="666"/>
      <point x="606" y="672" type="curve" smooth="yes"/>
      <point x="607" y="677"/>
      <point x="606" y="682"/>
      <point x="603" y="685" type="curve" smooth="yes"/>
      <point x="600" y="689"/>
      <point x="595" y="691"/>
      <point x="590" y="691" type="curve" smooth="yes"/>
      <point x="585" y="691"/>
      <point x="580" y="689"/>
      <point x="575" y="685" type="curve"/>
      <point x="398" y="534" type="line"/>
      <point x="435" y="748" type="line"/>
      <point x="437" y="758"/>
      <point x="431" y="767"/>
      <point x="420" y="767" type="curve" smooth="yes"/>
      <point x="409" y="767"/>
      <point x="399" y="758"/>
      <point x="397" y="748" type="curve"/>
      <point x="360" y="534" type="line"/>
      <point x="234" y="685" type="line"/>
      <point x="232" y="689"/>
      <point x="227" y="691"/>
      <point x="222" y="691" type="curve" smooth="yes"/>
      <point x="217" y="691"/>
      <point x="212" y="689"/>
      <point x="207" y="685" type="curve" smooth="yes"/>
      <point x="204" y="682"/>
      <point x="201" y="677"/>
      <point x="200" y="672" type="curve" smooth="yes"/>
      <point x="199" y="666"/>
      <point x="200" y="662"/>
      <point x="203" y="658" type="curve"/>
      <point x="328" y="507" type="line"/>
      <point x="114" y="507" type="line"/>
      <point x="103" y="507"/>
      <point x="92" y="498"/>
      <point x="91" y="488" type="curve" smooth="yes"/>
      <point x="89" y="477"/>
      <point x="96" y="468"/>
      <point x="107" y="468" type="curve"/>
      <point x="321" y="468" type="line"/>
      <point x="142" y="317" type="line"/>
      <point x="139" y="313"/>
      <point x="136" y="309"/>
      <point x="135" y="303" type="curve" smooth="yes"/>
      <point x="134" y="298"/>
      <point x="135" y="293"/>
      <point x="138" y="290" type="curve" smooth="yes"/>
      <point x="141" y="286"/>
      <point x="146" y="284"/>
      <point x="151" y="284" type="curve" smooth="yes"/>
      <point x="156" y="284"/>
      <point x="161" y="286"/>
      <point x="165" y="290" type="curve"/>
      <point x="343" y="441" type="line"/>
      <point x="306" y="227" type="line"/>
      <point x="304" y="217"/>
      <point x="310" y="208"/>
      <point x="321" y="208" type="curve" smooth="yes"/>
      <point x="332" y="208"/>
      <point x="342" y="217"/>
      <point x="344" y="227" type="curve"/>
      <point x="381" y="441" type="line"/>
      <point x="506" y="290" type="line"/>
      <point x="509" y="286"/>
      <point x="514" y="284"/>
      <point x="519" y="284" type="curve" smooth="yes"/>
      <point x="524" y="284"/>
      <point x="529" y="286"/>
      <point x="534" y="290" type="curve" smooth="yes"/>
      <point x="542" y="297"/>
      <point x="544" y="309"/>
      <point x="538" y="317" type="curve"/>
      <point x="413" y="468" type="line"/>
      <point x="627" y="468" type="line"/>
      <point x="638" y="468"/>
      <point x="649" y="477"/>
      <point x="651" y="488" type="curve" smooth="yes"/>
      <point x="652" y="498"/>
      <point x="645" y="507"/>
    </contour>
  </outline>
</glyph>
<glyph name="plus" format="1">
  <advance width="468"/>
  <unicode hex="002B"/>
  <outline>
    <contour>
      <point x="519" y="404" type="curve"/>
      <point x="478" y="404" type="line"/>
      <point x="323" y="404" type="line"/>
      <point x="350" y="559" type="line"/>
      <point x="357" y="600" type="line"/>
      <point x="359" y="610"/>
      <point x="353" y="619"/>
      <point x="343" y="619" type="curve" smooth="yes"/>
      <point x="333" y="619"/>
      <point x="323" y="610"/>
      <point x="321" y="600" type="curve"/>
      <point x="314" y="559" type="line"/>
      <point x="287" y="404" type="line"/>
      <point x="132" y="404" type="line"/>
      <point x="90" y="404" type="line"/>
      <point x="80" y="404"/>
      <point x="70" y="396"/>
      <point x="69" y="386" type="curve" smooth="yes"/>
      <point x="67" y="376"/>
      <point x="73" y="368"/>
      <point x="83" y="368" type="curve"/>
      <point x="125" y="368" type="line"/>
      <point x="280" y="368" type="line"/>
      <point x="253" y="213" type="line"/>
      <point x="246" y="171" type="line"/>
      <point x="244" y="161"/>
      <point x="250" y="153"/>
      <point x="260" y="153" type="curve" smooth="yes"/>
      <point x="270" y="153"/>
      <point x="280" y="161"/>
      <point x="282" y="171" type="curve"/>
      <point x="289" y="213" type="line"/>
      <point x="316" y="368" type="line"/>
      <point x="471" y="368" type="line"/>
      <point x="512" y="368" type="line"/>
      <point x="522" y="368"/>
      <point x="533" y="376"/>
      <point x="535" y="386" type="curve" smooth="yes"/>
      <point x="536" y="396"/>
      <point x="529" y="404"/>
    </contour>
  </outline>
</glyph>
<glyph name="comma" format="1">
  <advance width="98"/>
  <unicode hex="002C"/>
  <outline>
    <contour>
      <point x="76" y="51" type="curve" smooth="yes"/>
      <point x="65" y="51"/>
      <point x="56" y="42"/>
      <point x="54" y="32" type="curve"/>
      <point x="52" y="18" type="line"/>
      <point x="50" y="11"/>
      <point x="53" y="6"/>
      <point x="58" y="2" type="curve"/>
      <point x="45" y="-13" type="line"/>
      <point x="43" y="-16"/>
      <point x="43" y="-21"/>
      <point x="46" y="-24" type="curve" smooth="yes"/>
      <point x="47" y="-24"/>
      <point x="48" y="-25"/>
      <point x="50" y="-25" type="curve" smooth="yes"/>
      <point x="52" y="-25"/>
      <point x="55" y="-24"/>
      <point x="58" y="-21" type="curve"/>
      <point x="76" y="1" type="line"/>
      <point x="82" y="4"/>
      <point x="88" y="11"/>
      <point x="90" y="18" type="curve"/>
      <point x="92" y="32" type="line"/>
      <point x="94" y="42"/>
      <point x="86" y="51"/>
    </contour>
  </outline>
</glyph>
<glyph name="hyphen" format="1">
  <advance width="373"/>
  <unicode hex="002D"/>
  <outline>
    <contour>
      <point x="362" y="404" type="curve"/>
      <point x="320" y="404" type="line"/>
      <point x="195" y="404" type="line"/>
      <point x="153" y="404" type="line" smooth="yes"/>
      <point x="143" y="404"/>
      <point x="133" y="396"/>
      <point x="132" y="386" type="curve" smooth="yes"/>
      <point x="130" y="376"/>
      <point x="136" y="368"/>
      <point x="146" y="368" type="curve" smooth="yes"/>
      <point x="188" y="368" type="line"/>
      <point x="313" y="368" type="line"/>
      <point x="355" y="368" type="line" smooth="yes"/>
      <point x="365" y="368"/>
      <point x="375" y="376"/>
      <point x="377" y="386" type="curve" smooth="yes"/>
      <point x="378" y="396"/>
      <point x="372" y="404"/>
    </contour>
  </outline>
</glyph>
<glyph name="period" format="1">
  <advance width="141"/>
  <unicode hex="002E"/>
  <outline>
    <contour>
      <point x="75" y="48" type="curve" smooth="yes"/>
      <point x="65" y="48"/>
      <point x="56" y="40"/>
      <point x="54" y="30" type="curve"/>
      <point x="51" y="16" type="line"/>
      <point x="50" y="6"/>
      <point x="56" y="-2"/>
      <point x="66" y="-2" type="curve" smooth="yes"/>
      <point x="76" y="-2"/>
      <point x="86" y="6"/>
      <point x="87" y="16" type="curve"/>
      <point x="90" y="30" type="line"/>
      <point x="92" y="40"/>
      <point x="85" y="48"/>
    </contour>
  </outline>
</glyph>
<glyph name="slash" format="1">
  <advance width="318"/>
  <unicode hex="002F"/>
  <outline>
    <contour>
      <point x="443" y="742" type="curve" smooth="yes"/>
      <point x="387" y="639" type="line"/>
      <point x="94" y="73" type="line"/>
      <point x="39" y="-31" type="line"/>
      <point x="33" y="-42"/>
      <point x="20" y="-47"/>
      <point x="10" y="-43" type="curve" smooth="yes"/>
      <point x="0" y="-39"/>
      <point x="-3" y="-27"/>
      <point x="2" y="-16" type="curve" smooth="yes"/>
      <point x="58" y="87" type="line"/>
      <point x="351" y="653" type="line"/>
      <point x="407" y="757" type="line"/>
      <point x="413" y="768"/>
      <point x="426" y="773"/>
      <point x="436" y="769" type="curve" smooth="yes"/>
      <point x="445" y="765"/>
      <point x="449" y="753"/>
    </contour>
  </outline>
</glyph>
<glyph name="zero" format="1">
  <advance width="278"/>
  <unicode hex="0030"/>
  <outline>
    <contour>
      <point x="265" y="720" type="curve" smooth="yes"/>
      <point x="199" y="720"/>
      <point x="136" y="666"/>
      <point x="124" y="600" type="curve"/>
      <point x="39" y="117" type="line"/>
      <point x="27" y="50"/>
      <point x="72" y="-4"/>
      <point x="138" y="-4" type="curve" smooth="yes"/>
      <point x="204" y="-4"/>
      <point x="267" y="50"/>
      <point x="279" y="117" type="curve"/>
      <point x="364" y="600" type="line"/>
      <point x="376" y="666"/>
      <point x="331" y="720"/>
    </contour>
    <contour>
      <point x="259" y="683" type="curve" smooth="yes"/>
      <point x="305" y="683"/>
      <point x="335" y="645"/>
      <point x="327" y="600" type="curve"/>
      <point x="299" y="441" type="line"/>
      <point x="299" y="441"/>
      <point x="299" y="441"/>
      <point x="299" y="440" type="curve"/>
      <point x="272" y="288" type="line"/>
      <point x="235" y="274"/>
      <point x="197" y="288"/>
      <point x="186" y="322" type="curve"/>
      <point x="139" y="461" type="line"/>
      <point x="138" y="462"/>
      <point x="138" y="463"/>
      <point x="137" y="464" type="curve"/>
      <point x="161" y="600" type="line"/>
      <point x="169" y="645"/>
      <point x="213" y="683"/>
    </contour>
    <contour>
      <point x="144" y="33" type="curve" smooth="yes"/>
      <point x="98" y="33"/>
      <point x="68" y="71"/>
      <point x="76" y="117" type="curve"/>
      <point x="123" y="383" type="line"/>
      <point x="149" y="305" type="line"/>
      <point x="165" y="258"/>
      <point x="214" y="236"/>
      <point x="265" y="249" type="curve"/>
      <point x="242" y="117" type="line"/>
      <point x="234" y="71"/>
      <point x="190" y="33"/>
    </contour>
  </outline>
</glyph>
<glyph name="one" format="1">
  <advance width="212"/>
  <unicode hex="0031"/>
  <outline>
    <contour>
      <point x="257" y="703" type="line"/>
      <point x="257" y="712"/>
      <point x="251" y="719"/>
      <point x="241" y="719" type="curve"/>
      <point x="235" y="719" type="line"/>
      <point x="175" y="719"/>
      <point x="156" y="719"/>
      <point x="146" y="659" type="curve" smooth="yes"/>
      <point x="144" y="649"/>
      <point x="150" y="640"/>
      <point x="160" y="640" type="curve" smooth="yes"/>
      <point x="171" y="640"/>
      <point x="181" y="649"/>
      <point x="183" y="659" type="curve" smooth="yes"/>
      <point x="189" y="694"/>
      <point x="189" y="685"/>
      <point x="217" y="682" type="curve"/>
      <point x="99" y="17" type="line"/>
      <point x="98" y="7"/>
      <point x="104" y="-2"/>
      <point x="114" y="-2" type="curve" smooth="yes"/>
      <point x="125" y="-2"/>
      <point x="135" y="7"/>
      <point x="136" y="17" type="curve"/>
      <point x="257" y="703" type="line"/>
    </contour>
  </outline>
</glyph>
<glyph name="two" format="1">
  <advance width="274"/>
  <unicode hex="0032"/>
  <outline>
    <contour>
      <point x="263" y="719" type="curve" smooth="yes"/>
      <point x="197" y="719"/>
      <point x="134" y="665"/>
      <point x="122" y="599" type="curve"/>
      <point x="112" y="540" type="line"/>
      <point x="149" y="540" type="line"/>
      <point x="159" y="599" type="line"/>
      <point x="167" y="645"/>
      <point x="211" y="682"/>
      <point x="257" y="682" type="curve" smooth="yes"/>
      <point x="302" y="682"/>
      <point x="332" y="645"/>
      <point x="324" y="599" type="curve"/>
      <point x="296" y="442" type="line"/>
      <point x="296" y="441"/>
      <point x="296" y="441"/>
      <point x="296" y="441" type="curve"/>
      <point x="285" y="377" type="line"/>
      <point x="231" y="377" type="line"/>
      <point x="120" y="377" type="line"/>
      <point x="106" y="377" type="line"/>
      <point x="83" y="377" type="line"/>
      <point x="76" y="340" type="line"/>
      <point x="37" y="119" type="line"/>
      <point x="26" y="53"/>
      <point x="70" y="-1"/>
      <point x="136" y="-1" type="curve" smooth="yes"/>
      <point x="202" y="-1"/>
      <point x="266" y="53"/>
      <point x="277" y="119" type="curve"/>
      <point x="283" y="152" type="line"/>
      <point x="245" y="152" type="line"/>
      <point x="239" y="119" type="line"/>
      <point x="231" y="73"/>
      <point x="188" y="36"/>
      <point x="143" y="36" type="curve" smooth="yes"/>
      <point x="97" y="36"/>
      <point x="66" y="73"/>
      <point x="74" y="119" type="curve"/>
      <point x="113" y="340" type="line"/>
      <point x="113" y="340" type="line"/>
      <point x="168" y="340" type="line"/>
      <point x="303" y="340" type="line"/>
      <point x="316" y="340" type="line"/>
      <point x="318" y="349" type="line"/>
      <point x="322" y="369" type="line"/>
      <point x="323" y="377" type="line"/>
      <point x="362" y="599" type="line"/>
      <point x="374" y="665"/>
      <point x="329" y="719"/>
    </contour>
  </outline>
</glyph>
<glyph name="three" format="1">
  <advance width="333"/>
  <unicode hex="0033"/>
  <outline>
    <contour>
      <point x="301" y="351" type="curve" smooth="yes"/>
      <point x="299" y="355"/>
      <point x="296" y="358"/>
      <point x="292" y="360" type="curve"/>
      <point x="297" y="363"/>
      <point x="301" y="366"/>
      <point x="305" y="369" type="curve" smooth="yes"/>
      <point x="322" y="382"/>
      <point x="337" y="399"/>
      <point x="346" y="419" type="curve" smooth="yes"/>
      <point x="350" y="428"/>
      <point x="354" y="437"/>
      <point x="355" y="446" type="curve"/>
      <point x="355" y="446" type="line"/>
      <point x="382" y="599" type="line"/>
      <point x="394" y="665"/>
      <point x="350" y="719"/>
      <point x="284" y="719" type="curve" smooth="yes"/>
      <point x="218" y="719"/>
      <point x="156" y="666"/>
      <point x="143" y="601" type="curve"/>
      <point x="143" y="601" type="line"/>
      <point x="180" y="601" type="line"/>
      <point x="180" y="599" type="line"/>
      <point x="188" y="645"/>
      <point x="232" y="682"/>
      <point x="278" y="682" type="curve" smooth="yes"/>
      <point x="323" y="682"/>
      <point x="353" y="645"/>
      <point x="345" y="599" type="curve"/>
      <point x="319" y="452" type="line"/>
      <point x="319" y="452"/>
      <point x="319" y="451"/>
      <point x="319" y="451" type="curve" smooth="yes"/>
      <point x="312" y="413"/>
      <point x="277" y="381"/>
      <point x="239" y="379" type="curve" smooth="yes"/>
      <point x="237" y="379"/>
      <point x="235" y="379"/>
      <point x="234" y="379" type="curve"/>
      <point x="163" y="379" type="line"/>
      <point x="157" y="342" type="line"/>
      <point x="228" y="342" type="line"/>
      <point x="229" y="342"/>
      <point x="231" y="342"/>
      <point x="233" y="342" type="curve" smooth="yes"/>
      <point x="269" y="339"/>
      <point x="294" y="308"/>
      <point x="287" y="269" type="curve" smooth="yes"/>
      <point x="287" y="269"/>
      <point x="287" y="269"/>
      <point x="287" y="268" type="curve"/>
      <point x="270" y="174" type="line"/>
      <point x="270" y="174"/>
      <point x="270" y="174"/>
      <point x="270" y="173" type="curve"/>
      <point x="260" y="118" type="line"/>
      <point x="252" y="73"/>
      <point x="209" y="36"/>
      <point x="164" y="36" type="curve" smooth="yes"/>
      <point x="118" y="36"/>
      <point x="87" y="73"/>
      <point x="95" y="118" type="curve"/>
      <point x="102" y="155" type="line"/>
      <point x="65" y="155" type="line"/>
      <point x="58" y="119" type="line"/>
      <point x="52" y="85"/>
      <point x="62" y="55"/>
      <point x="80" y="33" type="curve"/>
      <point x="80" y="32" type="line"/>
      <point x="98" y="11"/>
      <point x="125" y="-2"/>
      <point x="157" y="-2" type="curve" smooth="yes"/>
      <point x="223" y="-2"/>
      <point x="287" y="52"/>
      <point x="298" y="118" type="curve"/>
      <point x="325" y="269" type="line"/>
      <point x="331" y="302"/>
      <point x="321" y="331"/>
    </contour>
  </outline>
</glyph>
<glyph name="four" format="1">
  <advance width="264"/>
  <unicode hex="0034"/>
  <outline>
    <contour>
      <point x="350" y="719" type="curve" smooth="yes"/>
      <point x="340" y="719"/>
      <point x="330" y="711"/>
      <point x="328" y="701" type="curve"/>
      <point x="292" y="494" type="line"/>
      <point x="286" y="460" type="line"/>
      <point x="277" y="414"/>
      <point x="234" y="377"/>
      <point x="189" y="377" type="curve" smooth="yes"/>
      <point x="143" y="377"/>
      <point x="112" y="414"/>
      <point x="121" y="460" type="curve"/>
      <point x="163" y="701" type="line"/>
      <point x="165" y="711"/>
      <point x="158" y="719"/>
      <point x="148" y="719" type="curve" smooth="yes"/>
      <point x="138" y="719"/>
      <point x="128" y="711"/>
      <point x="126" y="701" type="curve"/>
      <point x="84" y="460" type="line"/>
      <point x="72" y="394"/>
      <point x="116" y="340"/>
      <point x="182" y="340" type="curve" smooth="yes"/>
      <point x="214" y="340"/>
      <point x="246" y="353"/>
      <point x="270" y="373" type="curve"/>
      <point x="207" y="17" type="line"/>
      <point x="206" y="7"/>
      <point x="213" y="-1"/>
      <point x="223" y="-1" type="curve" smooth="yes"/>
      <point x="233" y="-1"/>
      <point x="244" y="7"/>
      <point x="245" y="17" type="curve"/>
      <point x="324" y="460" type="line"/>
      <point x="330" y="494" type="line"/>
      <point x="366" y="701" type="line"/>
      <point x="368" y="711"/>
      <point x="360" y="719"/>
    </contour>
  </outline>
</glyph>
<glyph name="five" format="1">
  <advance width="272"/>
  <unicode hex="0035"/>
  <outline>
    <contour>
      <point x="354" y="564" type="line"/>
      <point x="360" y="597" type="line"/>
      <point x="371" y="663"/>
      <point x="328" y="717"/>
      <point x="262" y="717" type="curve" smooth="yes"/>
      <point x="196" y="717"/>
      <point x="133" y="663"/>
      <point x="122" y="597" type="curve"/>
      <point x="83" y="376" type="line"/>
      <point x="76" y="339" type="line"/>
      <point x="99" y="339" type="line"/>
      <point x="113" y="339" type="line"/>
      <point x="223" y="339" type="line"/>
      <point x="277" y="339" type="line"/>
      <point x="266" y="276" type="line"/>
      <point x="266" y="276"/>
      <point x="266" y="276"/>
      <point x="266" y="275" type="curve"/>
      <point x="238" y="118" type="line"/>
      <point x="230" y="73"/>
      <point x="187" y="36"/>
      <point x="142" y="36" type="curve" smooth="yes"/>
      <point x="97" y="36"/>
      <point x="66" y="73"/>
      <point x="74" y="118" type="curve"/>
      <point x="85" y="177" type="line"/>
      <point x="48" y="177" type="line"/>
      <point x="37" y="118" type="line"/>
      <point x="26" y="52"/>
      <point x="69" y="-1"/>
      <point x="135" y="-1" type="curve" smooth="yes"/>
      <point x="201" y="-1"/>
      <point x="264" y="52"/>
      <point x="275" y="118" type="curve"/>
      <point x="314" y="339" type="line"/>
      <point x="316" y="348" type="line"/>
      <point x="319" y="368" type="line"/>
      <point x="321" y="376" type="line"/>
      <point x="308" y="376" type="line"/>
      <point x="174" y="376" type="line"/>
      <point x="120" y="376" type="line"/>
      <point x="120" y="376" type="line"/>
      <point x="159" y="597" type="line"/>
      <point x="167" y="643"/>
      <point x="210" y="680"/>
      <point x="255" y="680" type="curve" smooth="yes"/>
      <point x="300" y="680"/>
      <point x="331" y="643"/>
      <point x="323" y="597" type="curve"/>
      <point x="317" y="564" type="line"/>
    </contour>
  </outline>
</glyph>
<glyph name="six" format="1">
  <advance width="276"/>
  <unicode hex="0036"/>
  <outline>
    <contour>
      <point x="354" y="542" type="line"/>
      <point x="364" y="599" type="line"/>
      <point x="376" y="665"/>
      <point x="331" y="719"/>
      <point x="265" y="719" type="curve" smooth="yes"/>
      <point x="199" y="719"/>
      <point x="136" y="665"/>
      <point x="124" y="599" type="curve"/>
      <point x="105" y="490" type="line"/>
      <point x="98" y="453" type="line"/>
      <point x="98" y="451"/>
      <point x="98" y="450"/>
      <point x="98" y="449" type="curve" smooth="yes"/>
      <point x="97" y="447"/>
      <point x="97" y="444"/>
      <point x="96" y="442" type="curve"/>
      <point x="39" y="119" type="line"/>
      <point x="28" y="53"/>
      <point x="72" y="-1"/>
      <point x="138" y="-1" type="curve" smooth="yes"/>
      <point x="204" y="-1"/>
      <point x="268" y="53"/>
      <point x="279" y="119" type="curve"/>
      <point x="306" y="268" type="line"/>
      <point x="311" y="295"/>
      <point x="306" y="320"/>
      <point x="295" y="340" type="curve" smooth="yes"/>
      <point x="295" y="340"/>
      <point x="295" y="340"/>
      <point x="294" y="340" type="curve" smooth="yes"/>
      <point x="292" y="346"/>
      <point x="288" y="351"/>
      <point x="284" y="355" type="curve" smooth="yes"/>
      <point x="272" y="367"/>
      <point x="258" y="375"/>
      <point x="241" y="377" type="curve" smooth="yes"/>
      <point x="238" y="377"/>
      <point x="235" y="377"/>
      <point x="232" y="377" type="curve"/>
      <point x="171" y="377" type="line"/>
      <point x="150" y="380"/>
      <point x="134" y="396"/>
      <point x="129" y="418" type="curve"/>
      <point x="142" y="490" type="line"/>
      <point x="161" y="599" type="line"/>
      <point x="169" y="645"/>
      <point x="214" y="682"/>
      <point x="259" y="682" type="curve" smooth="yes"/>
      <point x="305" y="682"/>
      <point x="335" y="645"/>
      <point x="327" y="599" type="curve"/>
      <point x="317" y="542" type="line"/>
    </contour>
    <contour>
      <point x="162" y="340" type="curve" smooth="yes"/>
      <point x="165" y="340"/>
      <point x="168" y="340"/>
      <point x="170" y="340" type="curve"/>
      <point x="232" y="340" type="line"/>
      <point x="254" y="337"/>
      <point x="269" y="321"/>
      <point x="274" y="299" type="curve"/>
      <point x="242" y="119" type="line"/>
      <point x="234" y="73"/>
      <point x="191" y="36"/>
      <point x="145" y="36" type="curve" smooth="yes"/>
      <point x="100" y="36"/>
      <point x="68" y="73"/>
      <point x="76" y="119" type="curve"/>
      <point x="119" y="361" type="line"/>
      <point x="131" y="349"/>
      <point x="146" y="342"/>
    </contour>
  </outline>
</glyph>
<glyph name="seven" format="1">
  <advance width="327"/>
  <unicode hex="0037"/>
  <outline>
    <contour>
      <point x="408" y="699" type="curve" smooth="yes"/>
      <point x="410" y="710"/>
      <point x="403" y="718"/>
      <point x="392" y="718" type="curve"/>
      <point x="259" y="718" type="line"/>
      <point x="198" y="718"/>
      <point x="167" y="691"/>
      <point x="157" y="630" type="curve" smooth="yes"/>
      <point x="155" y="620"/>
      <point x="161" y="612"/>
      <point x="171" y="612" type="curve" smooth="yes"/>
      <point x="182" y="612"/>
      <point x="192" y="620"/>
      <point x="194" y="630" type="curve" smooth="yes"/>
      <point x="201" y="671"/>
      <point x="212" y="680"/>
      <point x="252" y="680" type="curve"/>
      <point x="363" y="680" type="line"/>
      <point x="52" y="30" type="line"/>
      <point x="49" y="22"/>
      <point x="43" y="13"/>
      <point x="50" y="4" type="curve" smooth="yes"/>
      <point x="56" y="-3"/>
      <point x="69" y="-1"/>
      <point x="77" y="7" type="curve"/>
      <point x="406" y="693" type="line"/>
      <point x="406" y="693" type="line"/>
      <point x="407" y="695"/>
      <point x="407" y="697"/>
    </contour>
  </outline>
</glyph>
<glyph name="eight" format="1">
  <advance width="350"/>
  <unicode hex="0038"/>
  <outline>
    <contour>
      <point x="392" y="560" type="curve"/>
      <point x="400" y="602" type="line"/>
      <point x="411" y="669"/>
      <point x="367" y="723"/>
      <point x="301" y="723" type="curve" smooth="yes"/>
      <point x="235" y="723"/>
      <point x="171" y="669"/>
      <point x="160" y="602" type="curve"/>
      <point x="152" y="560" type="line"/>
      <point x="144" y="516"/>
      <point x="161" y="478"/>
      <point x="192" y="457" type="curve"/>
      <point x="153" y="436"/>
      <point x="124" y="397"/>
      <point x="116" y="353" type="curve"/>
      <point x="74" y="119" type="line"/>
      <point x="63" y="53"/>
      <point x="107" y="-1"/>
      <point x="173" y="-1" type="curve" smooth="yes"/>
      <point x="239" y="-1"/>
      <point x="303" y="53"/>
      <point x="314" y="119" type="curve"/>
      <point x="356" y="353" type="line"/>
      <point x="364" y="397"/>
      <point x="347" y="436"/>
      <point x="316" y="457" type="curve"/>
      <point x="355" y="478"/>
      <point x="384" y="516"/>
    </contour>
    <contour>
      <point x="277" y="119" type="line"/>
      <point x="270" y="74"/>
      <point x="226" y="36"/>
      <point x="180" y="36" type="curve" smooth="yes"/>
      <point x="134" y="36"/>
      <point x="104" y="74"/>
      <point x="111" y="119" type="curve"/>
      <point x="121" y="175" type="line"/>
      <point x="121" y="175"/>
      <point x="121" y="175"/>
      <point x="122" y="176" type="curve"/>
      <point x="153" y="353" type="line"/>
      <point x="161" y="399"/>
      <point x="204" y="436"/>
      <point x="250" y="436" type="curve" smooth="yes"/>
      <point x="296" y="436"/>
      <point x="327" y="399"/>
      <point x="319" y="353" type="curve"/>
    </contour>
    <contour>
      <point x="355" y="560" type="line"/>
      <point x="347" y="514"/>
      <point x="304" y="477"/>
      <point x="258" y="477" type="curve" smooth="yes"/>
      <point x="212" y="477"/>
      <point x="181" y="514"/>
      <point x="189" y="560" type="curve"/>
      <point x="199" y="615" type="line"/>
      <point x="199" y="616"/>
      <point x="199" y="616"/>
      <point x="199" y="616" type="curve"/>
      <point x="197" y="602" type="line"/>
      <point x="205" y="648"/>
      <point x="248" y="685"/>
      <point x="294" y="685" type="curve" smooth="yes"/>
      <point x="340" y="685"/>
      <point x="371" y="648"/>
      <point x="363" y="602" type="curve"/>
    </contour>
  </outline>
</glyph>
<glyph name="nine" format="1">
  <advance width="350"/>
  <unicode hex="0039"/>
  <outline>
    <contour>
      <point x="335" y="276" type="curve"/>
      <point x="392" y="599" type="line"/>
      <point x="404" y="665"/>
      <point x="359" y="719"/>
      <point x="293" y="719" type="curve" smooth="yes"/>
      <point x="227" y="719"/>
      <point x="164" y="665"/>
      <point x="152" y="599" type="curve"/>
      <point x="126" y="450" type="line"/>
      <point x="121" y="423"/>
      <point x="126" y="398"/>
      <point x="136" y="378" type="curve" smooth="yes"/>
      <point x="136" y="378"/>
      <point x="136" y="378"/>
      <point x="136" y="377" type="curve" smooth="yes"/>
      <point x="140" y="372"/>
      <point x="143" y="367"/>
      <point x="147" y="362" type="curve" smooth="yes"/>
      <point x="159" y="351"/>
      <point x="174" y="343"/>
      <point x="191" y="341" type="curve"/>
      <point x="254" y="341" type="line"/>
      <point x="257" y="341"/>
      <point x="259" y="341"/>
      <point x="261" y="341" type="curve" smooth="yes"/>
      <point x="281" y="338"/>
      <point x="296" y="322"/>
      <point x="301" y="300" type="curve"/>
      <point x="289" y="228" type="line"/>
      <point x="269" y="119" type="line"/>
      <point x="261" y="73"/>
      <point x="218" y="36"/>
      <point x="173" y="36" type="curve" smooth="yes"/>
      <point x="127" y="36"/>
      <point x="96" y="73"/>
      <point x="104" y="119" type="curve"/>
      <point x="115" y="176" type="line"/>
      <point x="78" y="176" type="line"/>
      <point x="67" y="119" type="line"/>
      <point x="56" y="53"/>
      <point x="100" y="-1"/>
      <point x="166" y="-1" type="curve" smooth="yes"/>
      <point x="232" y="-1"/>
      <point x="296" y="53"/>
      <point x="307" y="119" type="curve"/>
      <point x="327" y="228" type="line"/>
      <point x="333" y="265" type="line"/>
      <point x="333" y="266"/>
      <point x="334" y="267"/>
      <point x="334" y="268" type="curve" smooth="yes"/>
      <point x="334" y="271"/>
      <point x="335" y="274"/>
    </contour>
    <contour>
      <point x="311" y="357" type="line"/>
      <point x="300" y="368"/>
      <point x="286" y="376"/>
      <point x="269" y="378" type="curve"/>
      <point x="205" y="378" type="line"/>
      <point x="203" y="378"/>
      <point x="201" y="378"/>
      <point x="199" y="378" type="curve" smooth="yes"/>
      <point x="178" y="381"/>
      <point x="163" y="397"/>
      <point x="157" y="419" type="curve"/>
      <point x="189" y="599" type="line"/>
      <point x="197" y="645"/>
      <point x="241" y="682"/>
      <point x="287" y="682" type="curve" smooth="yes"/>
      <point x="332" y="682"/>
      <point x="362" y="645"/>
      <point x="354" y="599" type="curve"/>
    </contour>
  </outline>
</glyph>
<glyph name="colon" format="1">
  <advance width="150"/>
  <unicode hex="003A"/>
  <outline>
    <contour>
      <point x="141" y="463" type="curve"/>
      <point x="171" y="463" type="line"/>
      <point x="194" y="463"/>
      <point x="216" y="482"/>
      <point x="221" y="506" type="curve" smooth="yes"/>
      <point x="225" y="529"/>
      <point x="209" y="548"/>
      <point x="186" y="548" type="curve"/>
      <point x="156" y="548" type="line"/>
      <point x="132" y="548"/>
      <point x="110" y="529"/>
      <point x="106" y="506" type="curve" smooth="yes"/>
      <point x="101" y="482"/>
      <point x="117" y="463"/>
    </contour>
    <contour>
      <point x="144" y="309" type="curve"/>
      <point x="114" y="309" type="line"/>
      <point x="90" y="309"/>
      <point x="68" y="290"/>
      <point x="64" y="267" type="curve" smooth="yes"/>
      <point x="60" y="244"/>
      <point x="75" y="225"/>
      <point x="99" y="225" type="curve"/>
      <point x="129" y="225" type="line"/>
      <point x="152" y="225"/>
      <point x="175" y="244"/>
      <point x="179" y="267" type="curve" smooth="yes"/>
      <point x="183" y="290"/>
      <point x="167" y="309"/>
    </contour>
  </outline>
</glyph>
<glyph name="semicolon" format="1">
  <advance width="138"/>
  <unicode hex="003B"/>
  <outline>
    <contour>
      <point x="137" y="463" type="curve"/>
      <point x="167" y="463" type="line"/>
      <point x="190" y="463"/>
      <point x="212" y="482"/>
      <point x="217" y="506" type="curve" smooth="yes"/>
      <point x="221" y="529"/>
      <point x="205" y="548"/>
      <point x="182" y="548" type="curve"/>
      <point x="152" y="548" type="line"/>
      <point x="128" y="548"/>
      <point x="106" y="529"/>
      <point x="102" y="506" type="curve" smooth="yes"/>
      <point x="97" y="482"/>
      <point x="113" y="463"/>
    </contour>
    <contour>
      <point x="140" y="309" type="curve"/>
      <point x="110" y="309" type="line"/>
      <point x="86" y="309"/>
      <point x="64" y="290"/>
      <point x="60" y="267" type="curve" smooth="yes"/>
      <point x="56" y="244"/>
      <point x="71" y="225"/>
      <point x="95" y="225" type="curve"/>
      <point x="95" y="225" type="line"/>
      <point x="65" y="188" type="line"/>
      <point x="57" y="179"/>
      <point x="57" y="167"/>
      <point x="66" y="161" type="curve" smooth="yes"/>
      <point x="68" y="158"/>
      <point x="72" y="157"/>
      <point x="76" y="157" type="curve" smooth="yes"/>
      <point x="82" y="157"/>
      <point x="90" y="160"/>
      <point x="94" y="166" type="curve"/>
      <point x="149" y="232" type="line"/>
      <point x="163" y="239"/>
      <point x="172" y="252"/>
      <point x="175" y="267" type="curve" smooth="yes"/>
      <point x="179" y="290"/>
      <point x="163" y="309"/>
    </contour>
  </outline>
</glyph>
<glyph name="less" format="1">
  <advance width="426"/>
  <unicode hex="003C"/>
  <outline>
    <contour>
      <point x="368" y="1" type="curve"/>
      <point x="373" y="1"/>
      <point x="377" y="2"/>
      <point x="381" y="5" type="curve" smooth="yes"/>
      <point x="391" y="12"/>
      <point x="394" y="25"/>
      <point x="388" y="33" type="curve"/>
      <point x="156" y="366" type="line"/>
      <point x="506" y="699" type="line"/>
      <point x="514" y="707"/>
      <point x="515" y="720"/>
      <point x="509" y="727" type="curve" smooth="yes"/>
      <point x="502" y="734"/>
      <point x="490" y="733"/>
      <point x="481" y="725" type="curve"/>
      <point x="104" y="366" type="line"/>
      <point x="355" y="7" type="line"/>
      <point x="357" y="3"/>
      <point x="363" y="1"/>
    </contour>
  </outline>
</glyph>
<glyph name="equal" format="1">
  <advance width="516"/>
  <unicode hex="003D"/>
  <outline>
    <contour>
      <point x="139" y="392" type="curve" smooth="yes"/>
      <point x="137" y="385"/>
      <point x="140" y="378"/>
      <point x="145" y="378" type="curve"/>
      <point x="197" y="378" type="line"/>
      <point x="453" y="378" type="line"/>
      <point x="504" y="378" type="line"/>
      <point x="510" y="378"/>
      <point x="515" y="385"/>
      <point x="517" y="392" type="curve" smooth="yes"/>
      <point x="518" y="400"/>
      <point x="515" y="407"/>
      <point x="509" y="407" type="curve"/>
      <point x="458" y="407" type="line"/>
      <point x="202" y="407" type="line"/>
      <point x="150" y="407" type="line"/>
      <point x="145" y="407"/>
      <point x="140" y="400"/>
    </contour>
    <contour>
      <point x="118" y="285" type="curve" smooth="yes"/>
      <point x="116" y="277"/>
      <point x="119" y="270"/>
      <point x="124" y="270" type="curve"/>
      <point x="176" y="270" type="line"/>
      <point x="432" y="270" type="line"/>
      <point x="483" y="270" type="line"/>
      <point x="489" y="270"/>
      <point x="494" y="277"/>
      <point x="496" y="285" type="curve" smooth="yes"/>
      <point x="497" y="291"/>
      <point x="494" y="299"/>
      <point x="488" y="299" type="curve"/>
      <point x="437" y="299" type="line"/>
      <point x="181" y="299" type="line"/>
      <point x="129" y="299" type="line"/>
      <point x="124" y="299"/>
      <point x="119" y="291"/>
    </contour>
  </outline>
</glyph>
<glyph name="greater" format="1">
  <advance width="424"/>
  <unicode hex="003E"/>
  <outline>
    <contour>
      <point x="58" y="-1" type="curve"/>
      <point x="54" y="-1"/>
      <point x="50" y="0"/>
      <point x="47" y="3" type="curve" smooth="yes"/>
      <point x="39" y="10"/>
      <point x="42" y="23"/>
      <point x="50" y="31" type="curve"/>
      <point x="402" y="367" type="line"/>
      <point x="168" y="703" type="line"/>
      <point x="163" y="711"/>
      <point x="165" y="723"/>
      <point x="175" y="731" type="curve" smooth="yes"/>
      <point x="185" y="738"/>
      <point x="196" y="737"/>
      <point x="202" y="729" type="curve"/>
      <point x="454" y="367" type="line"/>
      <point x="74" y="5" type="line"/>
      <point x="70" y="1"/>
      <point x="64" y="-1"/>
    </contour>
  </outline>
</glyph>
<glyph name="question" format="1">
  <advance width="311"/>
  <unicode hex="003F"/>
  <outline>
    <contour>
      <point x="359" y="462" type="curve"/>
      <point x="385" y="611" type="line"/>
      <point x="397" y="678"/>
      <point x="352" y="733"/>
      <point x="285" y="733" type="curve" smooth="yes"/>
      <point x="218" y="733"/>
      <point x="153" y="678"/>
      <point x="141" y="611" type="curve"/>
      <point x="131" y="553" type="line"/>
      <point x="169" y="553" type="line"/>
      <point x="179" y="611" type="line"/>
      <point x="187" y="657"/>
      <point x="232" y="695"/>
      <point x="278" y="695" type="curve" smooth="yes"/>
      <point x="324" y="695"/>
      <point x="355" y="657"/>
      <point x="347" y="611" type="curve"/>
      <point x="315" y="427" type="line"/>
      <point x="302" y="404"/>
      <point x="280" y="388"/>
      <point x="259" y="386" type="curve"/>
      <point x="196" y="386" type="line"/>
      <point x="193" y="386"/>
      <point x="190" y="385"/>
      <point x="187" y="385" type="curve" smooth="yes"/>
      <point x="169" y="383"/>
      <point x="152" y="375"/>
      <point x="136" y="363" type="curve" smooth="yes"/>
      <point x="130" y="359"/>
      <point x="124" y="354"/>
      <point x="119" y="348" type="curve" smooth="yes"/>
      <point x="119" y="348"/>
      <point x="119" y="348"/>
      <point x="118" y="347" type="curve" smooth="yes"/>
      <point x="100" y="328"/>
      <point x="87" y="302"/>
      <point x="82" y="274" type="curve"/>
      <point x="51" y="100" type="line"/>
      <point x="89" y="100" type="line"/>
      <point x="125" y="306" type="line"/>
      <point x="138" y="328"/>
      <point x="160" y="344"/>
      <point x="182" y="347" type="curve"/>
      <point x="245" y="347" type="line"/>
      <point x="248" y="347"/>
      <point x="251" y="347"/>
      <point x="254" y="348" type="curve" smooth="yes"/>
      <point x="271" y="350"/>
      <point x="288" y="357"/>
      <point x="305" y="369" type="curve" smooth="yes"/>
      <point x="310" y="374"/>
      <point x="316" y="379"/>
      <point x="321" y="385" type="curve" smooth="yes"/>
      <point x="339" y="403"/>
      <point x="351" y="426"/>
      <point x="357" y="451" type="curve" smooth="yes"/>
      <point x="358" y="454"/>
      <point x="358" y="456"/>
      <point x="358" y="459" type="curve" smooth="yes"/>
      <point x="359" y="460"/>
      <point x="359" y="461"/>
    </contour>
    <contour>
      <point x="62" y="53" type="curve" smooth="yes"/>
      <point x="51" y="53"/>
      <point x="41" y="44"/>
      <point x="39" y="34" type="curve"/>
      <point x="37" y="20" type="line"/>
      <point x="35" y="9"/>
      <point x="42" y="1"/>
      <point x="53" y="1" type="curve" smooth="yes"/>
      <point x="63" y="1"/>
      <point x="73" y="9"/>
      <point x="75" y="20" type="curve"/>
      <point x="77" y="34" type="line"/>
      <point x="79" y="44"/>
      <point x="72" y="53"/>
    </contour>
  </outline>
</glyph>
<glyph name="at" format="1">
  <advance width="283"/>
  <unicode hex="0040"/>
  <outline>
    <contour>
      <point x="270" y="735" type="curve" smooth="yes"/>
      <point x="202" y="735"/>
      <point x="137" y="680"/>
      <point x="125" y="612" type="curve"/>
      <point x="110" y="522" type="line"/>
      <point x="110" y="522"/>
      <point x="110" y="522"/>
      <point x="110" y="522" type="curve"/>
      <point x="95" y="437" type="line"/>
      <point x="93" y="427"/>
      <point x="100" y="418"/>
      <point x="110" y="418" type="curve" smooth="yes"/>
      <point x="121" y="418"/>
      <point x="131" y="427"/>
      <point x="133" y="437" type="curve"/>
      <point x="137" y="464" type="line"/>
      <point x="137" y="464" type="line"/>
      <point x="163" y="612" type="line"/>
      <point x="172" y="659"/>
      <point x="216" y="697"/>
      <point x="263" y="697" type="curve" smooth="yes"/>
      <point x="310" y="697"/>
      <point x="342" y="659"/>
      <point x="333" y="612" type="curve"/>
      <point x="247" y="120" type="line"/>
      <point x="238" y="73"/>
      <point x="194" y="35"/>
      <point x="147" y="35" type="curve" smooth="yes"/>
      <point x="100" y="35"/>
      <point x="68" y="73"/>
      <point x="77" y="120" type="curve"/>
      <point x="117" y="349" type="line"/>
      <point x="152" y="349" type="line"/>
      <point x="136" y="337"/>
      <point x="124" y="319"/>
      <point x="120" y="299" type="curve"/>
      <point x="105" y="214" type="line"/>
      <point x="99" y="177"/>
      <point x="123" y="147"/>
      <point x="159" y="147" type="curve" smooth="yes"/>
      <point x="196" y="147"/>
      <point x="232" y="177"/>
      <point x="238" y="214" type="curve"/>
      <point x="253" y="299" type="line"/>
      <point x="253" y="306"/>
      <point x="253" y="312"/>
      <point x="252" y="318" type="curve"/>
      <point x="250" y="361"/>
      <point x="232" y="387"/>
      <point x="190" y="387" type="curve"/>
      <point x="105" y="387" type="line"/>
      <point x="95" y="387"/>
      <point x="84" y="379"/>
      <point x="82" y="368" type="curve" smooth="yes"/>
      <point x="82" y="368"/>
      <point x="82" y="368"/>
      <point x="82" y="368" type="curve"/>
      <point x="82" y="368"/>
      <point x="82" y="367"/>
      <point x="82" y="367" type="curve"/>
      <point x="39" y="120" type="line"/>
      <point x="27" y="52"/>
      <point x="72" y="-3"/>
      <point x="140" y="-3" type="curve" smooth="yes"/>
      <point x="208" y="-3"/>
      <point x="273" y="52"/>
      <point x="285" y="120" type="curve"/>
      <point x="371" y="612" type="line"/>
      <point x="383" y="680"/>
      <point x="338" y="735"/>
    </contour>
    <contour>
      <point x="164" y="175" type="curve" smooth="yes"/>
      <point x="143" y="175"/>
      <point x="128" y="192"/>
      <point x="132" y="214" type="curve"/>
      <point x="147" y="299" type="line"/>
      <point x="151" y="321"/>
      <point x="172" y="338"/>
      <point x="193" y="338" type="curve" smooth="yes"/>
      <point x="215" y="338"/>
      <point x="229" y="321"/>
      <point x="225" y="299" type="curve"/>
      <point x="210" y="214" type="line"/>
      <point x="206" y="192"/>
      <point x="186" y="175"/>
    </contour>
  </outline>
</glyph>
<glyph name="A" format="1">
  <advance width="365"/>
  <unicode hex="0041"/>
  <outline>
    <contour>
      <point x="310" y="733" type="curve" smooth="yes"/>
      <point x="243" y="733"/>
      <point x="179" y="678"/>
      <point x="167" y="611" type="curve"/>
      <point x="63" y="20" type="line"/>
      <point x="61" y="9"/>
      <point x="68" y="1"/>
      <point x="79" y="1" type="curve" smooth="yes"/>
      <point x="89" y="1"/>
      <point x="98" y="9"/>
      <point x="100" y="20" type="curve"/>
      <point x="158" y="349" type="line"/>
      <point x="252" y="349" type="line"/>
      <point x="280" y="349"/>
      <point x="308" y="359"/>
      <point x="331" y="376" type="curve"/>
      <point x="268" y="20" type="line"/>
      <point x="266" y="9"/>
      <point x="273" y="1"/>
      <point x="283" y="1" type="curve" smooth="yes"/>
      <point x="294" y="1"/>
      <point x="303" y="9"/>
      <point x="305" y="20" type="curve"/>
      <point x="409" y="611" type="line"/>
      <point x="421" y="678"/>
      <point x="377" y="733"/>
    </contour>
    <contour>
      <point x="346" y="460" type="curve" smooth="yes"/>
      <point x="338" y="419"/>
      <point x="300" y="386"/>
      <point x="259" y="386" type="curve"/>
      <point x="165" y="386" type="line"/>
      <point x="204" y="611" type="line"/>
      <point x="212" y="657"/>
      <point x="257" y="695"/>
      <point x="303" y="695" type="curve" smooth="yes"/>
      <point x="349" y="695"/>
      <point x="380" y="657"/>
      <point x="372" y="611" type="curve"/>
      <point x="346" y="460" type="line"/>
      <point x="346" y="460"/>
      <point x="346" y="460"/>
    </contour>
  </outline>
</glyph>
<glyph name="B" format="1">
  <advance width="277"/>
  <unicode hex="0042"/>
  <outline>
    <contour>
      <point x="286" y="359" type="curve" smooth="yes"/>
      <point x="282" y="362"/>
      <point x="279" y="365"/>
      <point x="275" y="368" type="curve"/>
      <point x="280" y="371"/>
      <point x="284" y="374"/>
      <point x="289" y="377" type="curve" smooth="yes"/>
      <point x="306" y="390"/>
      <point x="320" y="408"/>
      <point x="330" y="427" type="curve" smooth="yes"/>
      <point x="334" y="436"/>
      <point x="338" y="445"/>
      <point x="340" y="455" type="curve"/>
      <point x="340" y="455" type="line"/>
      <point x="367" y="611" type="line"/>
      <point x="379" y="677"/>
      <point x="335" y="732"/>
      <point x="268" y="732" type="curve" smooth="yes"/>
      <point x="201" y="732"/>
      <point x="137" y="678"/>
      <point x="125" y="612" type="curve" smooth="yes"/>
      <point x="125" y="612"/>
      <point x="125" y="612"/>
      <point x="125" y="612" type="curve"/>
      <point x="125" y="612" type="line"/>
      <point x="125" y="611" type="line"/>
      <point x="125" y="611"/>
      <point x="125" y="611"/>
      <point x="125" y="611" type="curve"/>
      <point x="93" y="427" type="line"/>
      <point x="39" y="123" type="line"/>
      <point x="39" y="122" type="line"/>
      <point x="39" y="122"/>
      <point x="39" y="122"/>
      <point x="39" y="122" type="curve"/>
      <point x="21" y="19" type="line"/>
      <point x="19" y="9"/>
      <point x="26" y="0"/>
      <point x="36" y="0" type="curve" smooth="yes"/>
      <point x="47" y="0"/>
      <point x="56" y="9"/>
      <point x="58" y="19" type="curve"/>
      <point x="60" y="34" type="line"/>
      <point x="79" y="13"/>
      <point x="107" y="0"/>
      <point x="139" y="0" type="curve" smooth="yes"/>
      <point x="206" y="0"/>
      <point x="269" y="55"/>
      <point x="281" y="122" type="curve"/>
      <point x="308" y="275" type="line"/>
      <point x="314" y="309"/>
      <point x="305" y="338"/>
    </contour>
    <contour>
      <point x="261" y="694" type="curve" smooth="yes"/>
      <point x="307" y="694"/>
      <point x="338" y="657"/>
      <point x="330" y="611" type="curve"/>
      <point x="304" y="461" type="line"/>
      <point x="304" y="461"/>
      <point x="304" y="460"/>
      <point x="304" y="460" type="curve" smooth="yes"/>
      <point x="297" y="421"/>
      <point x="260" y="389"/>
      <point x="222" y="387" type="curve"/>
      <point x="220" y="387"/>
      <point x="219" y="387"/>
      <point x="217" y="387" type="curve"/>
      <point x="123" y="387" type="line"/>
      <point x="162" y="611" type="line"/>
      <point x="170" y="657"/>
      <point x="215" y="694"/>
    </contour>
    <contour>
      <point x="244" y="122" type="line"/>
      <point x="236" y="76"/>
      <point x="191" y="38"/>
      <point x="145" y="38" type="curve" smooth="yes"/>
      <point x="99" y="38"/>
      <point x="68" y="76"/>
      <point x="76" y="122" type="curve"/>
      <point x="116" y="349" type="line"/>
      <point x="210" y="349" type="line"/>
      <point x="212" y="349"/>
      <point x="213" y="349"/>
      <point x="215" y="349" type="curve"/>
      <point x="253" y="346"/>
      <point x="278" y="314"/>
      <point x="271" y="275" type="curve" smooth="yes"/>
      <point x="271" y="275"/>
      <point x="271" y="275"/>
      <point x="271" y="274" type="curve"/>
      <point x="254" y="179" type="line"/>
      <point x="254" y="179"/>
      <point x="254" y="178"/>
      <point x="254" y="178" type="curve"/>
    </contour>
  </outline>
</glyph>
<glyph name="C" format="1">
  <advance width="276"/>
  <unicode hex="0043"/>
  <outline>
    <contour>
      <point x="359" y="552" type="line"/>
      <point x="369" y="611" type="line"/>
      <point x="381" y="678"/>
      <point x="336" y="733"/>
      <point x="269" y="733" type="curve" smooth="yes"/>
      <point x="202" y="733"/>
      <point x="137" y="678"/>
      <point x="125" y="611" type="curve"/>
      <point x="39" y="122" type="line"/>
      <point x="27" y="55"/>
      <point x="73" y="0"/>
      <point x="140" y="0" type="curve" smooth="yes"/>
      <point x="207" y="0"/>
      <point x="271" y="55"/>
      <point x="283" y="122" type="curve"/>
      <point x="289" y="157" type="line"/>
      <point x="251" y="157" type="line"/>
      <point x="245" y="122" type="line"/>
      <point x="237" y="75"/>
      <point x="192" y="38"/>
      <point x="146" y="38" type="curve" smooth="yes"/>
      <point x="100" y="38"/>
      <point x="69" y="75"/>
      <point x="77" y="122" type="curve"/>
      <point x="163" y="611" type="line"/>
      <point x="171" y="657"/>
      <point x="216" y="695"/>
      <point x="262" y="695" type="curve" smooth="yes"/>
      <point x="308" y="695"/>
      <point x="339" y="657"/>
      <point x="331" y="611" type="curve"/>
      <point x="321" y="552" type="line"/>
    </contour>
  </outline>
</glyph>
<glyph name="D" format="1">
  <advance width="281"/>
  <unicode hex="0044"/>
  <outline>
    <contour>
      <point x="270" y="733" type="curve" smooth="yes"/>
      <point x="237" y="733"/>
      <point x="205" y="720"/>
      <point x="180" y="699" type="curve"/>
      <point x="182" y="713" type="line"/>
      <point x="184" y="724"/>
      <point x="177" y="732"/>
      <point x="167" y="732" type="curve" smooth="yes"/>
      <point x="157" y="732"/>
      <point x="146" y="724"/>
      <point x="144" y="713" type="curve"/>
      <point x="127" y="614" type="line"/>
      <point x="126" y="611" type="line"/>
      <point x="40" y="122" type="line"/>
      <point x="39" y="119" type="line"/>
      <point x="22" y="20" type="line"/>
      <point x="20" y="9"/>
      <point x="28" y="1"/>
      <point x="38" y="1" type="curve" smooth="yes"/>
      <point x="48" y="1"/>
      <point x="58" y="9"/>
      <point x="60" y="20" type="curve"/>
      <point x="62" y="34" type="line"/>
      <point x="81" y="13"/>
      <point x="108" y="0"/>
      <point x="141" y="0" type="curve" smooth="yes"/>
      <point x="208" y="0"/>
      <point x="272" y="55"/>
      <point x="284" y="122" type="curve"/>
      <point x="370" y="611" type="line"/>
      <point x="382" y="678"/>
      <point x="337" y="733"/>
    </contour>
    <contour>
      <point x="246" y="122" type="line"/>
      <point x="238" y="76"/>
      <point x="193" y="38"/>
      <point x="147" y="38" type="curve" smooth="yes"/>
      <point x="101" y="38"/>
      <point x="70" y="76"/>
      <point x="78" y="122" type="curve"/>
      <point x="164" y="611" type="line"/>
      <point x="172" y="657"/>
      <point x="217" y="695"/>
      <point x="263" y="695" type="curve" smooth="yes"/>
      <point x="309" y="695"/>
      <point x="340" y="657"/>
      <point x="332" y="611" type="curve"/>
      <point x="304" y="451" type="line"/>
      <point x="304" y="450"/>
      <point x="304" y="450"/>
      <point x="304" y="450" type="curve"/>
    </contour>
  </outline>
</glyph>
<glyph name="E" format="1">
  <advance width="277"/>
  <unicode hex="0045"/>
  <outline>
    <contour>
      <point x="359" y="552" type="line"/>
      <point x="369" y="611" type="line"/>
      <point x="381" y="678"/>
      <point x="336" y="733"/>
      <point x="269" y="733" type="curve" smooth="yes"/>
      <point x="202" y="733"/>
      <point x="137" y="678"/>
      <point x="125" y="611" type="curve"/>
      <point x="39" y="122" type="line"/>
      <point x="27" y="55"/>
      <point x="73" y="0"/>
      <point x="140" y="0" type="curve" smooth="yes"/>
      <point x="207" y="0"/>
      <point x="271" y="55"/>
      <point x="283" y="122" type="curve"/>
      <point x="289" y="157" type="line"/>
      <point x="251" y="157" type="line"/>
      <point x="245" y="122" type="line"/>
      <point x="237" y="76"/>
      <point x="192" y="38"/>
      <point x="146" y="38" type="curve" smooth="yes"/>
      <point x="100" y="38"/>
      <point x="69" y="76"/>
      <point x="77" y="122" type="curve"/>
      <point x="117" y="348" type="line"/>
      <point x="211" y="348" type="line"/>
      <point x="273" y="348"/>
      <point x="332" y="399"/>
      <point x="343" y="460" type="curve" smooth="yes"/>
      <point x="345" y="471"/>
      <point x="337" y="479"/>
      <point x="327" y="479" type="curve" smooth="yes"/>
      <point x="316" y="479"/>
      <point x="307" y="471"/>
      <point x="305" y="460" type="curve" smooth="yes"/>
      <point x="297" y="419"/>
      <point x="259" y="386"/>
      <point x="218" y="386" type="curve"/>
      <point x="124" y="386" type="line"/>
      <point x="163" y="611" type="line"/>
      <point x="171" y="657"/>
      <point x="216" y="695"/>
      <point x="262" y="695" type="curve" smooth="yes"/>
      <point x="308" y="695"/>
      <point x="339" y="657"/>
      <point x="331" y="611" type="curve"/>
      <point x="321" y="552" type="line"/>
    </contour>
  </outline>
</glyph>
<glyph name="F" format="1">
  <advance width="368"/>
  <unicode hex="0046"/>
  <outline>
    <contour>
      <point x="402" y="551" type="line"/>
      <point x="412" y="610" type="line"/>
      <point x="424" y="677"/>
      <point x="379" y="732"/>
      <point x="312" y="732" type="curve" smooth="yes"/>
      <point x="245" y="732"/>
      <point x="181" y="678"/>
      <point x="168" y="611" type="curve"/>
      <point x="168" y="611" type="line"/>
      <point x="168" y="610" type="line"/>
      <point x="82" y="122" type="line"/>
      <point x="63" y="17" type="line"/>
      <point x="62" y="7"/>
      <point x="69" y="-2"/>
      <point x="79" y="-2" type="curve" smooth="yes"/>
      <point x="90" y="-2"/>
      <point x="100" y="7"/>
      <point x="101" y="17" type="curve"/>
      <point x="104" y="34" type="line"/>
      <point x="160" y="348" type="line"/>
      <point x="254" y="348" type="line"/>
      <point x="316" y="348"/>
      <point x="375" y="398"/>
      <point x="385" y="459" type="curve" smooth="yes"/>
      <point x="387" y="470"/>
      <point x="380" y="478"/>
      <point x="370" y="478" type="curve" smooth="yes"/>
      <point x="359" y="478"/>
      <point x="349" y="470"/>
      <point x="347" y="459" type="curve" smooth="yes"/>
      <point x="340" y="419"/>
      <point x="302" y="386"/>
      <point x="261" y="386" type="curve"/>
      <point x="167" y="386" type="line"/>
      <point x="206" y="610" type="line"/>
      <point x="214" y="656"/>
      <point x="259" y="694"/>
      <point x="305" y="694" type="curve" smooth="yes"/>
      <point x="351" y="694"/>
      <point x="382" y="656"/>
      <point x="374" y="610" type="curve"/>
      <point x="364" y="551" type="line"/>
    </contour>
  </outline>
</glyph>
<glyph name="G" format="1">
  <advance width="359"/>
  <unicode hex="0047"/>
  <outline>
    <contour>
      <point x="407" y="554" type="line"/>
      <point x="417" y="612" type="line"/>
      <point x="429" y="679"/>
      <point x="384" y="734"/>
      <point x="317" y="734" type="curve" smooth="yes"/>
      <point x="250" y="734"/>
      <point x="185" y="679"/>
      <point x="173" y="612" type="curve"/>
      <point x="87" y="123" type="line"/>
      <point x="75" y="56"/>
      <point x="121" y="1"/>
      <point x="188" y="1" type="curve" smooth="yes"/>
      <point x="255" y="1"/>
      <point x="319" y="56"/>
      <point x="331" y="123" type="curve"/>
      <point x="375" y="369" type="line"/>
      <point x="376" y="379"/>
      <point x="369" y="388"/>
      <point x="359" y="388" type="curve"/>
      <point x="340" y="388" type="line"/>
      <point x="302" y="388" type="line"/>
      <point x="240" y="388"/>
      <point x="203" y="310"/>
      <point x="192" y="249" type="curve" smooth="yes"/>
      <point x="190" y="238"/>
      <point x="198" y="230"/>
      <point x="208" y="230" type="curve" smooth="yes"/>
      <point x="219" y="230"/>
      <point x="228" y="238"/>
      <point x="230" y="249" type="curve" smooth="yes"/>
      <point x="238" y="290"/>
      <point x="254" y="350"/>
      <point x="295" y="350" type="curve"/>
      <point x="333" y="350" type="line"/>
      <point x="293" y="123" type="line"/>
      <point x="285" y="77"/>
      <point x="240" y="39"/>
      <point x="194" y="39" type="curve" smooth="yes"/>
      <point x="148" y="39"/>
      <point x="117" y="77"/>
      <point x="125" y="123" type="curve"/>
      <point x="211" y="612" type="line"/>
      <point x="220" y="658"/>
      <point x="264" y="696"/>
      <point x="310" y="696" type="curve" smooth="yes"/>
      <point x="356" y="696"/>
      <point x="388" y="658"/>
      <point x="379" y="612" type="curve"/>
      <point x="369" y="554" type="line"/>
    </contour>
  </outline>
</glyph>
<glyph name="H" format="1">
  <advance width="283"/>
  <unicode hex="0048"/>
  <outline>
    <contour>
      <point x="373" y="733" type="curve" smooth="yes"/>
      <point x="362" y="733"/>
      <point x="352" y="724"/>
      <point x="350" y="714" type="curve"/>
      <point x="333" y="615" type="line"/>
      <point x="306" y="460" type="line"/>
      <point x="306" y="460"/>
      <point x="306" y="460"/>
      <point x="306" y="460" type="curve" smooth="yes"/>
      <point x="298" y="419"/>
      <point x="260" y="386"/>
      <point x="219" y="386" type="curve"/>
      <point x="125" y="386" type="line"/>
      <point x="165" y="614" type="line"/>
      <point x="182" y="713" type="line"/>
      <point x="184" y="724"/>
      <point x="177" y="732"/>
      <point x="167" y="732" type="curve" smooth="yes"/>
      <point x="157" y="732"/>
      <point x="146" y="724"/>
      <point x="144" y="713" type="curve"/>
      <point x="127" y="614" type="line"/>
      <point x="39" y="118" type="line"/>
      <point x="22" y="19" type="line"/>
      <point x="20" y="9"/>
      <point x="28" y="0"/>
      <point x="38" y="0" type="curve" smooth="yes"/>
      <point x="48" y="0"/>
      <point x="58" y="9"/>
      <point x="60" y="19" type="curve"/>
      <point x="77" y="118" type="line"/>
      <point x="118" y="348" type="line"/>
      <point x="212" y="348" type="line"/>
      <point x="240" y="348"/>
      <point x="268" y="359"/>
      <point x="291" y="376" type="curve"/>
      <point x="245" y="119" type="line"/>
      <point x="228" y="20" type="line"/>
      <point x="226" y="10"/>
      <point x="233" y="1"/>
      <point x="244" y="1" type="curve" smooth="yes"/>
      <point x="254" y="1"/>
      <point x="264" y="10"/>
      <point x="266" y="20" type="curve"/>
      <point x="283" y="119" type="line"/>
      <point x="371" y="615" type="line"/>
      <point x="388" y="714" type="line"/>
      <point x="390" y="724"/>
      <point x="383" y="733"/>
    </contour>
  </outline>
</glyph>
<glyph name="I" format="1">
  <advance width="149"/>
  <unicode hex="0049"/>
  <outline>
    <contour>
      <point x="151" y="61" type="curve" smooth="yes"/>
      <point x="153" y="71"/>
      <point x="147" y="80"/>
      <point x="136" y="80" type="curve" smooth="yes"/>
      <point x="126" y="80"/>
      <point x="116" y="71"/>
      <point x="114" y="61" type="curve" smooth="yes"/>
      <point x="112" y="46"/>
      <point x="106" y="38"/>
      <point x="99" y="36" type="curve"/>
      <point x="113" y="117" type="line"/>
      <point x="200" y="612" type="line"/>
      <point x="215" y="695" type="line"/>
      <point x="221" y="695"/>
      <point x="228" y="694"/>
      <point x="234" y="694" type="curve"/>
      <point x="241" y="694" type="line"/>
      <point x="252" y="694"/>
      <point x="261" y="703"/>
      <point x="263" y="713" type="curve" smooth="yes"/>
      <point x="265" y="724"/>
      <point x="259" y="732"/>
      <point x="248" y="732" type="curve"/>
      <point x="241" y="732" type="line"/>
      <point x="180" y="732"/>
      <point x="138" y="732"/>
      <point x="127" y="671" type="curve" smooth="yes"/>
      <point x="125" y="660"/>
      <point x="131" y="652"/>
      <point x="141" y="652" type="curve" smooth="yes"/>
      <point x="152" y="652"/>
      <point x="162" y="660"/>
      <point x="164" y="671" type="curve" smooth="yes"/>
      <point x="166" y="685"/>
      <point x="172" y="692"/>
      <point x="178" y="696" type="curve"/>
      <point x="163" y="612" type="line"/>
      <point x="76" y="117" type="line"/>
      <point x="62" y="36" type="line"/>
      <point x="56" y="37"/>
      <point x="50" y="37"/>
      <point x="43" y="37" type="curve"/>
      <point x="37" y="37" type="line"/>
      <point x="26" y="37"/>
      <point x="17" y="29"/>
      <point x="15" y="18" type="curve" smooth="yes"/>
      <point x="13" y="8"/>
      <point x="20" y="0"/>
      <point x="31" y="0" type="curve"/>
      <point x="37" y="0" type="line"/>
      <point x="48" y="0"/>
      <point x="59" y="0"/>
      <point x="68" y="0" type="curve"/>
      <point x="69" y="-1"/>
      <point x="71" y="-1"/>
      <point x="74" y="-1" type="curve" smooth="yes"/>
      <point x="76" y="-1"/>
      <point x="79" y="-1"/>
      <point x="83" y="1" type="curve"/>
      <point x="119" y="4"/>
      <point x="143" y="16"/>
    </contour>
  </outline>
</glyph>
<glyph name="J" format="1">
  <advance width="197"/>
  <unicode hex="004A"/>
  <outline>
    <contour>
      <point x="301" y="734" type="curve"/>
      <point x="294" y="734" type="line"/>
      <point x="233" y="734"/>
      <point x="190" y="734"/>
      <point x="179" y="672" type="curve" smooth="yes"/>
      <point x="177" y="662"/>
      <point x="185" y="654"/>
      <point x="195" y="654" type="curve" smooth="yes"/>
      <point x="206" y="654"/>
      <point x="215" y="662"/>
      <point x="217" y="672" type="curve" smooth="yes"/>
      <point x="219" y="685"/>
      <point x="224" y="692"/>
      <point x="228" y="696" type="curve"/>
      <point x="127" y="123" type="line"/>
      <point x="119" y="76"/>
      <point x="75" y="39"/>
      <point x="28" y="39" type="curve" smooth="yes"/>
      <point x="18" y="39"/>
      <point x="8" y="30"/>
      <point x="6" y="20" type="curve" smooth="yes"/>
      <point x="4" y="9"/>
      <point x="12" y="1"/>
      <point x="22" y="1" type="curve" smooth="yes"/>
      <point x="89" y="1"/>
      <point x="153" y="56"/>
      <point x="165" y="123" type="curve"/>
      <point x="266" y="697" type="line"/>
      <point x="272" y="696"/>
      <point x="280" y="696"/>
      <point x="287" y="696" type="curve"/>
      <point x="294" y="696" type="line"/>
      <point x="304" y="696"/>
      <point x="315" y="704"/>
      <point x="317" y="715" type="curve" smooth="yes"/>
      <point x="318" y="725"/>
      <point x="311" y="734"/>
    </contour>
  </outline>
</glyph>
<glyph name="K" format="1">
  <advance width="323"/>
  <unicode hex="004B"/>
  <outline>
    <contour>
      <point x="431" y="723" type="curve" smooth="yes"/>
      <point x="372" y="747"/>
      <point x="297" y="715"/>
      <point x="262" y="653" type="curve"/>
      <point x="135" y="458" type="line"/>
      <point x="162" y="609" type="line"/>
      <point x="170" y="656"/>
      <point x="176" y="693"/>
      <point x="223" y="693" type="curve" smooth="yes"/>
      <point x="233" y="693"/>
      <point x="242" y="702"/>
      <point x="244" y="712" type="curve" smooth="yes"/>
      <point x="246" y="723"/>
      <point x="239" y="731"/>
      <point x="229" y="731" type="curve" smooth="yes"/>
      <point x="162" y="731"/>
      <point x="137" y="676"/>
      <point x="125" y="609" type="curve"/>
      <point x="21" y="19" type="line"/>
      <point x="19" y="8"/>
      <point x="26" y="0"/>
      <point x="37" y="0" type="curve" smooth="yes"/>
      <point x="47" y="0"/>
      <point x="56" y="8"/>
      <point x="58" y="19" type="curve"/>
      <point x="111" y="323" type="line"/>
      <point x="172" y="77" type="line"/>
      <point x="186" y="15"/>
      <point x="229" y="-16"/>
      <point x="295" y="9" type="curve" smooth="yes"/>
      <point x="306" y="13"/>
      <point x="313" y="24"/>
      <point x="310" y="34" type="curve" smooth="yes"/>
      <point x="308" y="44"/>
      <point x="298" y="48"/>
      <point x="287" y="44" type="curve" smooth="yes"/>
      <point x="241" y="27"/>
      <point x="220" y="48"/>
      <point x="210" y="91" type="curve"/>
      <point x="137" y="385" type="line"/>
      <point x="137" y="388"/>
      <point x="135" y="391"/>
      <point x="133" y="393" type="curve"/>
      <point x="136" y="395"/>
      <point x="139" y="398"/>
      <point x="140" y="401" type="curve"/>
      <point x="295" y="639" type="line"/>
      <point x="319" y="682"/>
      <point x="371" y="704"/>
      <point x="412" y="688" type="curve" smooth="yes"/>
      <point x="420" y="684"/>
      <point x="432" y="689"/>
      <point x="438" y="699" type="curve" smooth="yes"/>
      <point x="443" y="708"/>
      <point x="440" y="719"/>
    </contour>
  </outline>
</glyph>
<glyph name="L" format="1">
  <advance width="218"/>
  <unicode hex="004C"/>
  <outline>
    <contour>
      <point x="206" y="38" type="curve" smooth="yes"/>
      <point x="159" y="38"/>
      <point x="63" y="35"/>
      <point x="70" y="79" type="curve"/>
      <point x="170" y="645" type="line"/>
      <point x="170" y="645" type="line"/>
      <point x="182" y="714" type="line"/>
      <point x="184" y="724"/>
      <point x="178" y="733"/>
      <point x="167" y="733" type="curve" smooth="yes"/>
      <point x="157" y="733"/>
      <point x="146" y="724"/>
      <point x="144" y="714" type="curve"/>
      <point x="136" y="668" type="line"/>
      <point x="136" y="668"/>
      <point x="136" y="668"/>
      <point x="136" y="668" type="curve"/>
      <point x="32" y="79" type="line"/>
      <point x="20" y="7"/>
      <point x="132" y="0"/>
      <point x="200" y="0" type="curve" smooth="yes"/>
      <point x="210" y="0"/>
      <point x="219" y="8"/>
      <point x="221" y="19" type="curve" smooth="yes"/>
      <point x="223" y="29"/>
      <point x="216" y="38"/>
    </contour>
  </outline>
</glyph>
<glyph name="M" format="1">
  <advance width="579"/>
  <unicode hex="004D"/>
  <outline>
    <contour>
      <point x="520" y="734" type="curve" smooth="yes"/>
      <point x="477" y="734"/>
      <point x="436" y="711"/>
      <point x="408" y="677" type="curve"/>
      <point x="392" y="711"/>
      <point x="359" y="734"/>
      <point x="316" y="734" type="curve" smooth="yes"/>
      <point x="249" y="734"/>
      <point x="184" y="679"/>
      <point x="172" y="612" type="curve"/>
      <point x="68" y="20" type="line"/>
      <point x="66" y="9"/>
      <point x="74" y="1"/>
      <point x="84" y="1" type="curve" smooth="yes"/>
      <point x="94" y="1"/>
      <point x="104" y="9"/>
      <point x="106" y="20" type="curve"/>
      <point x="210" y="612" type="line"/>
      <point x="219" y="658"/>
      <point x="262" y="696"/>
      <point x="309" y="696" type="curve" smooth="yes"/>
      <point x="353" y="696"/>
      <point x="384" y="661"/>
      <point x="378" y="617" type="curve"/>
      <point x="378" y="615"/>
      <point x="378" y="614"/>
      <point x="377" y="612" type="curve"/>
      <point x="334" y="368" type="line"/>
      <point x="333" y="360"/>
      <point x="337" y="353"/>
      <point x="343" y="350" type="curve" smooth="yes"/>
      <point x="345" y="349"/>
      <point x="347" y="349"/>
      <point x="350" y="349" type="curve" smooth="yes"/>
      <point x="360" y="349"/>
      <point x="370" y="357"/>
      <point x="372" y="367" type="curve"/>
      <point x="415" y="612" type="line"/>
      <point x="416" y="614"/>
      <point x="416" y="616"/>
      <point x="416" y="617" type="curve"/>
      <point x="426" y="661"/>
      <point x="469" y="696"/>
      <point x="513" y="696" type="curve" smooth="yes"/>
      <point x="560" y="696"/>
      <point x="591" y="658"/>
      <point x="582" y="612" type="curve"/>
      <point x="478" y="20" type="line"/>
      <point x="476" y="9"/>
      <point x="484" y="1"/>
      <point x="494" y="1" type="curve" smooth="yes"/>
      <point x="504" y="1"/>
      <point x="514" y="9"/>
      <point x="516" y="20" type="curve"/>
      <point x="620" y="612" type="line"/>
      <point x="632" y="679"/>
      <point x="587" y="734"/>
    </contour>
  </outline>
</glyph>
<glyph name="N" format="1">
  <advance width="280"/>
  <unicode hex="004E"/>
  <outline>
    <contour>
      <point x="269" y="733" type="curve" smooth="yes"/>
      <point x="202" y="733"/>
      <point x="137" y="678"/>
      <point x="125" y="611" type="curve"/>
      <point x="21" y="19" type="line"/>
      <point x="19" y="8"/>
      <point x="27" y="0"/>
      <point x="37" y="0" type="curve" smooth="yes"/>
      <point x="48" y="0"/>
      <point x="57" y="8"/>
      <point x="59" y="19" type="curve"/>
      <point x="163" y="611" type="line"/>
      <point x="172" y="658"/>
      <point x="216" y="695"/>
      <point x="262" y="695" type="curve" smooth="yes"/>
      <point x="308" y="695"/>
      <point x="340" y="658"/>
      <point x="331" y="611" type="curve"/>
      <point x="227" y="19" type="line"/>
      <point x="225" y="8"/>
      <point x="232" y="0"/>
      <point x="243" y="0" type="curve" smooth="yes"/>
      <point x="253" y="0"/>
      <point x="262" y="8"/>
      <point x="264" y="19" type="curve"/>
      <point x="368" y="611" type="line"/>
      <point x="380" y="678"/>
      <point x="336" y="733"/>
    </contour>
  </outline>
</glyph>
<glyph name="O" format="1">
  <advance width="363"/>
  <unicode hex="004F"/>
  <outline>
    <contour>
      <point x="309" y="734" type="curve" smooth="yes"/>
      <point x="242" y="734"/>
      <point x="177" y="679"/>
      <point x="165" y="612" type="curve"/>
      <point x="79" y="123" type="line"/>
      <point x="67" y="56"/>
      <point x="113" y="1"/>
      <point x="180" y="1" type="curve" smooth="yes"/>
      <point x="247" y="1"/>
      <point x="311" y="56"/>
      <point x="323" y="123" type="curve"/>
      <point x="409" y="612" type="line"/>
      <point x="421" y="679"/>
      <point x="376" y="734"/>
    </contour>
    <contour>
      <point x="285" y="123" type="line"/>
      <point x="277" y="76"/>
      <point x="232" y="39"/>
      <point x="186" y="39" type="curve" smooth="yes"/>
      <point x="140" y="39"/>
      <point x="109" y="76"/>
      <point x="117" y="123" type="curve"/>
      <point x="203" y="612" type="line"/>
      <point x="212" y="658"/>
      <point x="256" y="696"/>
      <point x="302" y="696" type="curve" smooth="yes"/>
      <point x="348" y="696"/>
      <point x="380" y="658"/>
      <point x="371" y="612" type="curve"/>
      <point x="343" y="452" type="line"/>
      <point x="343" y="451"/>
      <point x="343" y="451"/>
      <point x="343" y="451" type="curve"/>
    </contour>
  </outline>
</glyph>
<glyph name="P" format="1">
  <advance width="266"/>
  <unicode hex="0050"/>
  <outline>
    <contour>
      <point x="370" y="611" type="line"/>
      <point x="382" y="678"/>
      <point x="337" y="732"/>
      <point x="270" y="732" type="curve" smooth="yes"/>
      <point x="203" y="732"/>
      <point x="139" y="679"/>
      <point x="126" y="612" type="curve"/>
      <point x="126" y="612" type="line"/>
      <point x="126" y="611" type="line"/>
      <point x="40" y="123" type="line"/>
      <point x="22" y="19" type="line"/>
      <point x="20" y="8"/>
      <point x="28" y="0"/>
      <point x="38" y="0" type="curve" smooth="yes"/>
      <point x="49" y="0"/>
      <point x="58" y="8"/>
      <point x="60" y="19" type="curve"/>
      <point x="63" y="35" type="line"/>
      <point x="118" y="349" type="line"/>
      <point x="212" y="349" type="line"/>
      <point x="272" y="349"/>
      <point x="329" y="396"/>
      <point x="342" y="455" type="curve"/>
      <point x="343" y="455" type="line"/>
    </contour>
    <contour>
      <point x="219" y="387" type="curve"/>
      <point x="125" y="387" type="line"/>
      <point x="164" y="611" type="line"/>
      <point x="172" y="657"/>
      <point x="217" y="695"/>
      <point x="263" y="695" type="curve" smooth="yes"/>
      <point x="309" y="695"/>
      <point x="340" y="657"/>
      <point x="332" y="611" type="curve"/>
      <point x="306" y="461" type="line"/>
      <point x="306" y="461"/>
      <point x="306" y="460"/>
      <point x="306" y="460" type="curve" smooth="yes"/>
      <point x="299" y="420"/>
      <point x="260" y="387"/>
    </contour>
  </outline>
</glyph>
<glyph name="Q" format="1">
  <advance width="343"/>
  <unicode hex="0051"/>
  <outline>
    <contour>
      <point x="322" y="38" type="curve" smooth="yes"/>
      <point x="276" y="38"/>
      <point x="276" y="76"/>
      <point x="284" y="122" type="curve"/>
      <point x="307" y="250" type="line"/>
      <point x="307" y="250"/>
      <point x="307" y="250"/>
      <point x="307" y="250" type="curve"/>
      <point x="370" y="611" type="line"/>
      <point x="382" y="678"/>
      <point x="337" y="733"/>
      <point x="270" y="733" type="curve" smooth="yes"/>
      <point x="203" y="733"/>
      <point x="138" y="678"/>
      <point x="126" y="611" type="curve"/>
      <point x="40" y="122" type="line"/>
      <point x="28" y="55"/>
      <point x="74" y="0"/>
      <point x="141" y="0" type="curve" smooth="yes"/>
      <point x="181" y="0"/>
      <point x="219" y="19"/>
      <point x="246" y="49" type="curve"/>
      <point x="255" y="19"/>
      <point x="276" y="0"/>
      <point x="316" y="0" type="curve" smooth="yes"/>
      <point x="326" y="0"/>
      <point x="336" y="9"/>
      <point x="338" y="19" type="curve" smooth="yes"/>
      <point x="340" y="30"/>
      <point x="332" y="38"/>
    </contour>
    <contour>
      <point x="147" y="38" type="curve" smooth="yes"/>
      <point x="101" y="38"/>
      <point x="70" y="76"/>
      <point x="78" y="122" type="curve"/>
      <point x="164" y="611" type="line"/>
      <point x="172" y="657"/>
      <point x="217" y="695"/>
      <point x="263" y="695" type="curve" smooth="yes"/>
      <point x="309" y="695"/>
      <point x="340" y="657"/>
      <point x="332" y="611" type="curve"/>
      <point x="304" y="451" type="line"/>
      <point x="304" y="450"/>
      <point x="304" y="450"/>
      <point x="304" y="450" type="curve"/>
      <point x="269" y="250" type="line"/>
      <point x="269" y="250"/>
      <point x="269" y="250"/>
      <point x="269" y="250" type="curve"/>
      <point x="250" y="142" type="line"/>
      <point x="238" y="152"/>
      <point x="221" y="158"/>
      <point x="199" y="158" type="curve" smooth="yes"/>
      <point x="189" y="158"/>
      <point x="179" y="150"/>
      <point x="177" y="139" type="curve" smooth="yes"/>
      <point x="175" y="129"/>
      <point x="183" y="120"/>
      <point x="193" y="120" type="curve" smooth="yes"/>
      <point x="219" y="120"/>
      <point x="231" y="108"/>
      <point x="234" y="89" type="curve"/>
      <point x="216" y="59"/>
      <point x="182" y="38"/>
    </contour>
  </outline>
</glyph>
<glyph name="R" format="1">
  <advance width="353"/>
  <unicode hex="0052"/>
  <outline>
    <contour>
      <point x="386" y="455" type="curve"/>
      <point x="387" y="455" type="line"/>
      <point x="414" y="611" type="line"/>
      <point x="426" y="678"/>
      <point x="381" y="732"/>
      <point x="314" y="732" type="curve" smooth="yes"/>
      <point x="247" y="732"/>
      <point x="183" y="679"/>
      <point x="170" y="612" type="curve"/>
      <point x="170" y="612" type="line"/>
      <point x="170" y="611" type="line"/>
      <point x="84" y="123" type="line"/>
      <point x="66" y="19" type="line"/>
      <point x="64" y="8"/>
      <point x="72" y="0"/>
      <point x="82" y="0" type="curve" smooth="yes"/>
      <point x="93" y="0"/>
      <point x="102" y="8"/>
      <point x="104" y="19" type="curve"/>
      <point x="107" y="35" type="line"/>
      <point x="162" y="349" type="line"/>
      <point x="219" y="349" type="line"/>
      <point x="205" y="112" type="line"/>
      <point x="202" y="46"/>
      <point x="221" y="-6"/>
      <point x="290" y="2" type="curve" smooth="yes"/>
      <point x="300" y="3"/>
      <point x="310" y="13"/>
      <point x="310" y="23" type="curve" smooth="yes"/>
      <point x="310" y="33"/>
      <point x="303" y="41"/>
      <point x="291" y="39" type="curve" smooth="yes"/>
      <point x="245" y="34"/>
      <point x="241" y="71"/>
      <point x="243" y="117" type="curve"/>
      <point x="257" y="349" type="line"/>
      <point x="316" y="349"/>
      <point x="373" y="396"/>
    </contour>
    <contour>
      <point x="263" y="387" type="curve"/>
      <point x="169" y="387" type="line"/>
      <point x="208" y="611" type="line"/>
      <point x="216" y="657"/>
      <point x="261" y="695"/>
      <point x="307" y="695" type="curve" smooth="yes"/>
      <point x="353" y="695"/>
      <point x="384" y="657"/>
      <point x="376" y="611" type="curve"/>
      <point x="350" y="461" type="line"/>
      <point x="350" y="461"/>
      <point x="350" y="461"/>
      <point x="350" y="460" type="curve" smooth="yes"/>
      <point x="343" y="420"/>
      <point x="304" y="387"/>
    </contour>
  </outline>
</glyph>
<glyph name="S" format="1">
  <advance width="277"/>
  <unicode hex="0053"/>
  <outline>
    <contour>
      <point x="357" y="553" type="line"/>
      <point x="367" y="611" type="line"/>
      <point x="379" y="678"/>
      <point x="334" y="733"/>
      <point x="267" y="733" type="curve" smooth="yes"/>
      <point x="200" y="733"/>
      <point x="135" y="678"/>
      <point x="123" y="611" type="curve"/>
      <point x="97" y="462" type="line"/>
      <point x="97" y="461"/>
      <point x="97" y="460"/>
      <point x="96" y="459" type="curve" smooth="yes"/>
      <point x="96" y="456"/>
      <point x="96" y="454"/>
      <point x="95" y="451" type="curve" smooth="yes"/>
      <point x="93" y="426"/>
      <point x="97" y="403"/>
      <point x="107" y="385" type="curve" smooth="yes"/>
      <point x="110" y="379"/>
      <point x="114" y="374"/>
      <point x="119" y="369" type="curve" smooth="yes"/>
      <point x="130" y="357"/>
      <point x="145" y="349"/>
      <point x="163" y="348" type="curve" smooth="yes"/>
      <point x="165" y="347"/>
      <point x="168" y="347"/>
      <point x="171" y="347" type="curve"/>
      <point x="234" y="347" type="line"/>
      <point x="255" y="344"/>
      <point x="270" y="328"/>
      <point x="275" y="305" type="curve"/>
      <point x="243" y="122" type="line"/>
      <point x="235" y="76"/>
      <point x="190" y="38"/>
      <point x="144" y="38" type="curve" smooth="yes"/>
      <point x="98" y="38"/>
      <point x="67" y="76"/>
      <point x="75" y="122" type="curve"/>
      <point x="81" y="158" type="line"/>
      <point x="43" y="158" type="line"/>
      <point x="37" y="122" type="line"/>
      <point x="25" y="55"/>
      <point x="71" y="0"/>
      <point x="138" y="0" type="curve" smooth="yes"/>
      <point x="205" y="0"/>
      <point x="269" y="55"/>
      <point x="281" y="122" type="curve"/>
      <point x="308" y="274" type="line"/>
      <point x="313" y="302"/>
      <point x="308" y="327"/>
      <point x="298" y="347" type="curve" smooth="yes"/>
      <point x="298" y="347"/>
      <point x="297" y="348"/>
      <point x="297" y="348" type="curve" smooth="yes"/>
      <point x="294" y="353"/>
      <point x="290" y="359"/>
      <point x="286" y="363" type="curve" smooth="yes"/>
      <point x="275" y="375"/>
      <point x="259" y="383"/>
      <point x="241" y="385" type="curve" smooth="yes"/>
      <point x="239" y="385"/>
      <point x="236" y="385"/>
      <point x="233" y="385" type="curve"/>
      <point x="170" y="385" type="line"/>
      <point x="150" y="388"/>
      <point x="134" y="404"/>
      <point x="129" y="427" type="curve"/>
      <point x="161" y="611" type="line"/>
      <point x="169" y="657"/>
      <point x="214" y="695"/>
      <point x="260" y="695" type="curve" smooth="yes"/>
      <point x="306" y="695"/>
      <point x="337" y="657"/>
      <point x="329" y="611" type="curve"/>
      <point x="319" y="553" type="line"/>
    </contour>
  </outline>
</glyph>
<glyph name="T" format="1">
  <advance width="309"/>
  <unicode hex="0054"/>
  <outline>
    <contour>
      <point x="416" y="732" type="curve"/>
      <point x="247" y="732" type="line"/>
      <point x="185" y="732"/>
      <point x="126" y="683"/>
      <point x="115" y="621" type="curve" smooth="yes"/>
      <point x="113" y="611"/>
      <point x="121" y="602"/>
      <point x="131" y="602" type="curve" smooth="yes"/>
      <point x="142" y="602"/>
      <point x="151" y="611"/>
      <point x="153" y="621" type="curve" smooth="yes"/>
      <point x="160" y="662"/>
      <point x="199" y="695"/>
      <point x="240" y="695" type="curve"/>
      <point x="265" y="695" type="line"/>
      <point x="146" y="20" type="line"/>
      <point x="144" y="9"/>
      <point x="151" y="1"/>
      <point x="161" y="1" type="curve" smooth="yes"/>
      <point x="172" y="1"/>
      <point x="181" y="9"/>
      <point x="183" y="20" type="curve"/>
      <point x="302" y="695" type="line"/>
      <point x="409" y="695" type="line"/>
      <point x="419" y="695"/>
      <point x="429" y="703"/>
      <point x="431" y="714" type="curve" smooth="yes"/>
      <point x="433" y="724"/>
      <point x="426" y="732"/>
    </contour>
  </outline>
</glyph>
<glyph name="U" format="1">
  <advance width="367"/>
  <unicode hex="0055"/>
  <outline>
    <contour>
      <point x="416" y="732" type="curve" smooth="yes"/>
      <point x="406" y="732"/>
      <point x="396" y="724"/>
      <point x="394" y="713" type="curve"/>
      <point x="290" y="122" type="line"/>
      <point x="282" y="76"/>
      <point x="237" y="39"/>
      <point x="191" y="39" type="curve" smooth="yes"/>
      <point x="145" y="39"/>
      <point x="114" y="76"/>
      <point x="122" y="122" type="curve"/>
      <point x="226" y="713" type="line"/>
      <point x="228" y="724"/>
      <point x="222" y="732"/>
      <point x="212" y="732" type="curve" smooth="yes"/>
      <point x="201" y="732"/>
      <point x="191" y="724"/>
      <point x="189" y="713" type="curve"/>
      <point x="85" y="122" type="line"/>
      <point x="73" y="55"/>
      <point x="118" y="1"/>
      <point x="185" y="1" type="curve" smooth="yes"/>
      <point x="252" y="1"/>
      <point x="315" y="55"/>
      <point x="327" y="122" type="curve"/>
      <point x="431" y="713" type="line"/>
      <point x="433" y="724"/>
      <point x="427" y="732"/>
    </contour>
  </outline>
</glyph>
<glyph name="V" format="1">
  <advance width="297"/>
  <unicode hex="0056"/>
  <outline>
    <contour>
      <point x="349" y="730" type="curve" smooth="yes"/>
      <point x="340" y="733"/>
      <point x="328" y="727"/>
      <point x="323" y="717" type="curve" smooth="yes"/>
      <point x="318" y="707"/>
      <point x="322" y="697"/>
      <point x="331" y="694" type="curve" smooth="yes"/>
      <point x="372" y="680"/>
      <point x="361" y="643"/>
      <point x="340" y="599" type="curve"/>
      <point x="161" y="90" type="line"/>
      <point x="168" y="600" type="line"/>
      <point x="163" y="644"/>
      <point x="166" y="682"/>
      <point x="211" y="694" type="curve" smooth="yes"/>
      <point x="221" y="697"/>
      <point x="229" y="708"/>
      <point x="228" y="718" type="curve" smooth="yes"/>
      <point x="227" y="727"/>
      <point x="218" y="733"/>
      <point x="207" y="730" type="curve" smooth="yes"/>
      <point x="140" y="712"/>
      <point x="123" y="653"/>
      <point x="130" y="589" type="curve"/>
      <point x="128" y="14" type="line"/>
      <point x="129" y="5"/>
      <point x="138" y="-1"/>
      <point x="149" y="2" type="curve" smooth="yes"/>
      <point x="149" y="2"/>
      <point x="150" y="2"/>
      <point x="150" y="2" type="curve"/>
      <point x="156" y="3"/>
      <point x="163" y="8"/>
      <point x="166" y="15" type="curve"/>
      <point x="373" y="588" type="line"/>
      <point x="404" y="651"/>
      <point x="409" y="710"/>
    </contour>
  </outline>
</glyph>
<glyph name="W" format="1">
  <advance width="542"/>
  <unicode hex="0057"/>
  <outline>
    <contour>
      <point x="588" y="732" type="curve" smooth="yes"/>
      <point x="578" y="735"/>
      <point x="566" y="729"/>
      <point x="561" y="719" type="curve" smooth="yes"/>
      <point x="557" y="709"/>
      <point x="561" y="699"/>
      <point x="570" y="695" type="curve" smooth="yes"/>
      <point x="612" y="682"/>
      <point x="600" y="644"/>
      <point x="578" y="599" type="curve"/>
      <point x="398" y="90" type="line"/>
      <point x="360" y="347" type="line"/>
      <point x="354" y="392"/>
      <point x="356" y="430"/>
      <point x="404" y="443" type="curve" smooth="yes"/>
      <point x="414" y="446"/>
      <point x="422" y="456"/>
      <point x="421" y="466" type="curve" smooth="yes"/>
      <point x="420" y="477"/>
      <point x="409" y="482"/>
      <point x="399" y="479" type="curve" smooth="yes"/>
      <point x="379" y="474"/>
      <point x="362" y="464"/>
      <point x="351" y="452" type="curve"/>
      <point x="343" y="465"/>
      <point x="331" y="474"/>
      <point x="312" y="480" type="curve" smooth="yes"/>
      <point x="303" y="483"/>
      <point x="292" y="478"/>
      <point x="287" y="468" type="curve" smooth="yes"/>
      <point x="281" y="458"/>
      <point x="285" y="447"/>
      <point x="295" y="444" type="curve" smooth="yes"/>
      <point x="336" y="430"/>
      <point x="326" y="392"/>
      <point x="304" y="348" type="curve"/>
      <point x="168" y="92" type="line"/>
      <point x="174" y="602" type="line"/>
      <point x="168" y="646"/>
      <point x="170" y="684"/>
      <point x="218" y="698" type="curve" smooth="yes"/>
      <point x="228" y="701"/>
      <point x="236" y="711"/>
      <point x="235" y="721" type="curve" smooth="yes"/>
      <point x="233" y="731"/>
      <point x="223" y="737"/>
      <point x="213" y="734" type="curve" smooth="yes"/>
      <point x="146" y="715"/>
      <point x="127" y="656"/>
      <point x="135" y="591" type="curve"/>
      <point x="134" y="14" type="line"/>
      <point x="135" y="4"/>
      <point x="145" y="-1"/>
      <point x="156" y="2" type="curve" smooth="yes"/>
      <point x="156" y="2"/>
      <point x="156" y="2"/>
      <point x="156" y="2" type="curve"/>
      <point x="163" y="3"/>
      <point x="170" y="8"/>
      <point x="173" y="15" type="curve"/>
      <point x="324" y="310" type="line"/>
      <point x="365" y="13" type="line"/>
      <point x="366" y="3"/>
      <point x="376" y="-3"/>
      <point x="387" y="0" type="curve" smooth="yes"/>
      <point x="387" y="0"/>
      <point x="387" y="0"/>
      <point x="387" y="0" type="curve"/>
      <point x="394" y="1"/>
      <point x="400" y="6"/>
      <point x="404" y="13" type="curve"/>
      <point x="613" y="588" type="line"/>
      <point x="644" y="652"/>
      <point x="648" y="712"/>
    </contour>
  </outline>
</glyph>
<glyph name="X" format="1">
  <advance width="412"/>
  <unicode hex="0058"/>
  <outline>
    <contour>
      <point x="382" y="30" type="curve"/>
      <point x="285" y="331" type="line"/>
      <point x="450" y="576" type="line"/>
      <point x="498" y="633"/>
      <point x="520" y="692"/>
      <point x="469" y="730" type="curve" smooth="yes"/>
      <point x="461" y="736"/>
      <point x="449" y="733"/>
      <point x="442" y="725" type="curve" smooth="yes"/>
      <point x="435" y="716"/>
      <point x="435" y="704"/>
      <point x="443" y="698" type="curve" smooth="yes"/>
      <point x="477" y="672"/>
      <point x="455" y="637"/>
      <point x="422" y="598" type="curve"/>
      <point x="271" y="374" type="line"/>
      <point x="200" y="598" type="line"/>
      <point x="181" y="637"/>
      <point x="171" y="672"/>
      <point x="215" y="698" type="curve" smooth="yes"/>
      <point x="225" y="704"/>
      <point x="229" y="716"/>
      <point x="224" y="725" type="curve" smooth="yes"/>
      <point x="221" y="733"/>
      <point x="209" y="736"/>
      <point x="199" y="730" type="curve" smooth="yes"/>
      <point x="136" y="692"/>
      <point x="136" y="633"/>
      <point x="164" y="576" type="curve"/>
      <point x="243" y="331" type="line"/>
      <point x="40" y="30" type="line"/>
      <point x="32" y="21"/>
      <point x="32" y="9"/>
      <point x="40" y="3" type="curve" smooth="yes"/>
      <point x="48" y="-3"/>
      <point x="61" y="0"/>
      <point x="68" y="9" type="curve"/>
      <point x="256" y="289" type="line"/>
      <point x="346" y="9" type="line"/>
      <point x="351" y="0"/>
      <point x="362" y="-3"/>
      <point x="372" y="3" type="curve" smooth="yes"/>
      <point x="382" y="9"/>
      <point x="386" y="21"/>
    </contour>
  </outline>
</glyph>
<glyph name="Y" format="1">
  <advance width="326"/>
  <unicode hex="0059"/>
  <outline>
    <contour>
      <point x="393" y="734" type="curve" smooth="yes"/>
      <point x="382" y="734"/>
      <point x="372" y="725"/>
      <point x="371" y="715" type="curve"/>
      <point x="327" y="470" type="line"/>
      <point x="319" y="423"/>
      <point x="275" y="386"/>
      <point x="229" y="386" type="curve" smooth="yes"/>
      <point x="183" y="386"/>
      <point x="151" y="423"/>
      <point x="159" y="470" type="curve"/>
      <point x="203" y="715" type="line"/>
      <point x="205" y="726"/>
      <point x="198" y="734"/>
      <point x="187" y="734" type="curve" smooth="yes"/>
      <point x="177" y="734"/>
      <point x="167" y="726"/>
      <point x="165" y="715" type="curve"/>
      <point x="121" y="470" type="line"/>
      <point x="111" y="409"/>
      <point x="147" y="359"/>
      <point x="203" y="349" type="curve"/>
      <point x="145" y="19" type="line"/>
      <point x="143" y="9"/>
      <point x="151" y="0"/>
      <point x="161" y="0" type="curve" smooth="yes"/>
      <point x="171" y="0"/>
      <point x="181" y="9"/>
      <point x="183" y="19" type="curve"/>
      <point x="241" y="349" type="line"/>
      <point x="301" y="359"/>
      <point x="355" y="409"/>
      <point x="365" y="470" type="curve"/>
      <point x="409" y="715" type="line"/>
      <point x="410" y="725"/>
      <point x="403" y="734"/>
    </contour>
  </outline>
</glyph>
<glyph name="Z" format="1">
  <advance width="278"/>
  <unicode hex="005A"/>
  <outline>
    <contour>
      <point x="263" y="109" type="curve" smooth="yes"/>
      <point x="252" y="109"/>
      <point x="242" y="100"/>
      <point x="240" y="89" type="curve" smooth="yes"/>
      <point x="233" y="48"/>
      <point x="221" y="38"/>
      <point x="180" y="38" type="curve"/>
      <point x="62" y="38" type="line"/>
      <point x="383" y="707" type="line"/>
      <point x="383" y="707" type="line"/>
      <point x="385" y="709"/>
      <point x="385" y="711"/>
      <point x="385" y="713" type="curve" smooth="yes"/>
      <point x="387" y="724"/>
      <point x="380" y="732"/>
      <point x="370" y="732" type="curve"/>
      <point x="234" y="732" type="line"/>
      <point x="172" y="732"/>
      <point x="140" y="705"/>
      <point x="129" y="643" type="curve" smooth="yes"/>
      <point x="127" y="633"/>
      <point x="135" y="624"/>
      <point x="145" y="624" type="curve" smooth="yes"/>
      <point x="156" y="624"/>
      <point x="165" y="633"/>
      <point x="167" y="643" type="curve" smooth="yes"/>
      <point x="174" y="684"/>
      <point x="186" y="694"/>
      <point x="227" y="694" type="curve"/>
      <point x="340" y="694" type="line"/>
      <point x="22" y="32" type="line"/>
      <point x="22" y="32"/>
      <point x="22" y="31"/>
      <point x="22" y="30" type="curve"/>
      <point x="20" y="28"/>
      <point x="19" y="24"/>
      <point x="18" y="19" type="curve" smooth="yes"/>
      <point x="18" y="19"/>
      <point x="18" y="18"/>
      <point x="17" y="17" type="curve"/>
      <point x="17" y="13"/>
      <point x="18" y="9"/>
      <point x="20" y="5" type="curve" smooth="yes"/>
      <point x="23" y="3"/>
      <point x="26" y="1"/>
      <point x="30" y="1" type="curve"/>
      <point x="31" y="1"/>
      <point x="33" y="0"/>
      <point x="34" y="0" type="curve"/>
      <point x="174" y="0" type="line"/>
      <point x="236" y="0"/>
      <point x="267" y="27"/>
      <point x="278" y="89" type="curve" smooth="yes"/>
      <point x="280" y="100"/>
      <point x="273" y="109"/>
    </contour>
  </outline>
</glyph>
<glyph name="bracketleft" format="1">
  <advance width="132"/>
  <unicode hex="005B"/>
  <outline>
    <contour>
      <point x="20" y="0" type="line"/>
      <point x="111" y="0" type="line"/>
      <point x="122" y="0"/>
      <point x="131" y="8"/>
      <point x="133" y="19" type="curve" smooth="yes"/>
      <point x="135" y="30"/>
      <point x="128" y="39"/>
      <point x="117" y="39" type="curve"/>
      <point x="64" y="39" type="line"/>
      <point x="180" y="694" type="line"/>
      <point x="233" y="694" type="line"/>
      <point x="244" y="694"/>
      <point x="253" y="703"/>
      <point x="255" y="713" type="curve" smooth="yes"/>
      <point x="257" y="724"/>
      <point x="251" y="733"/>
      <point x="240" y="733" type="curve"/>
      <point x="149" y="733" type="line"/>
    </contour>
  </outline>
</glyph>
<glyph name="backslash" format="1">
  <advance width="387"/>
  <unicode hex="005C"/>
  <outline>
    <contour>
      <point x="184" y="732" type="curve" smooth="yes"/>
      <point x="195" y="736"/>
      <point x="206" y="731"/>
      <point x="208" y="720" type="curve"/>
      <point x="228" y="616" type="line"/>
      <point x="321" y="50" type="line"/>
      <point x="341" y="-53" type="line"/>
      <point x="343" y="-64"/>
      <point x="335" y="-76"/>
      <point x="323" y="-80" type="curve" smooth="yes"/>
      <point x="312" y="-84"/>
      <point x="301" y="-79"/>
      <point x="299" y="-68" type="curve"/>
      <point x="280" y="36" type="line"/>
      <point x="187" y="602" type="line"/>
      <point x="167" y="705" type="line"/>
      <point x="165" y="716"/>
      <point x="173" y="728"/>
    </contour>
  </outline>
</glyph>
<glyph name="bracketright" format="1">
  <advance width="252"/>
  <unicode hex="005D"/>
  <outline>
    <contour>
      <point x="174" y="0" type="line"/>
      <point x="83" y="0" type="line"/>
      <point x="72" y="0"/>
      <point x="64" y="9"/>
      <point x="66" y="19" type="curve" smooth="yes"/>
      <point x="68" y="30"/>
      <point x="78" y="39"/>
      <point x="89" y="39" type="curve"/>
      <point x="141" y="39" type="line"/>
      <point x="257" y="695" type="line"/>
      <point x="205" y="695" type="line"/>
      <point x="194" y="695"/>
      <point x="187" y="704"/>
      <point x="188" y="714" type="curve" smooth="yes"/>
      <point x="190" y="725"/>
      <point x="201" y="734"/>
      <point x="212" y="734" type="curve"/>
      <point x="303" y="734" type="line"/>
    </contour>
  </outline>
</glyph>
<glyph name="asciicircum" format="1">
  <advance width="346"/>
  <unicode hex="005E"/>
  <outline>
    <contour>
      <point x="436" y="561" type="curve" smooth="yes"/>
      <point x="437" y="566"/>
      <point x="435" y="571"/>
      <point x="433" y="574" type="curve"/>
      <point x="305" y="770" type="line"/>
      <point x="115" y="574" type="line"/>
      <point x="110" y="571"/>
      <point x="107" y="565"/>
      <point x="106" y="560" type="curve" smooth="yes"/>
      <point x="105" y="555"/>
      <point x="106" y="550"/>
      <point x="109" y="546" type="curve" smooth="yes"/>
      <point x="112" y="541"/>
      <point x="117" y="539"/>
      <point x="123" y="539" type="curve" smooth="yes"/>
      <point x="123" y="539" type="line" smooth="yes"/>
      <point x="128" y="539"/>
      <point x="133" y="541"/>
      <point x="137" y="544" type="curve"/>
      <point x="139" y="545" type="line"/>
      <point x="296" y="710" type="line"/>
      <point x="399" y="545" type="line"/>
      <point x="399" y="544" type="line"/>
      <point x="403" y="541"/>
      <point x="408" y="539"/>
      <point x="412" y="539" type="curve" smooth="yes"/>
      <point x="418" y="539"/>
      <point x="424" y="541"/>
      <point x="429" y="546" type="curve" smooth="yes"/>
      <point x="433" y="550"/>
      <point x="435" y="555"/>
    </contour>
  </outline>
</glyph>
<glyph name="underscore" format="1">
  <advance width="811"/>
  <unicode hex="005F"/>
  <outline>
    <contour>
      <point x="740" y="-17" type="curve" smooth="yes"/>
      <point x="741" y="-6"/>
      <point x="734" y="2"/>
      <point x="724" y="2" type="curve"/>
      <point x="681" y="2" type="line"/>
      <point x="185" y="2" type="line"/>
      <point x="86" y="2" type="line" smooth="yes"/>
      <point x="75" y="2"/>
      <point x="65" y="-6"/>
      <point x="64" y="-17" type="curve" smooth="yes"/>
      <point x="62" y="-27"/>
      <point x="68" y="-36"/>
      <point x="79" y="-36" type="curve"/>
      <point x="178" y="-36" type="line"/>
      <point x="674" y="-36" type="line"/>
      <point x="717" y="-36" type="line" smooth="yes"/>
      <point x="727" y="-36"/>
      <point x="738" y="-27"/>
    </contour>
  </outline>
</glyph>
<glyph name="grave" format="1">
  <advance width="257"/>
  <unicode hex="0060"/>
  <outline>
    <contour>
      <point x="166" y="641" type="curve" smooth="yes"/>
      <point x="172" y="650"/>
      <point x="184" y="653"/>
      <point x="192" y="648" type="curve"/>
      <point x="268" y="603" type="line"/>
      <point x="225" y="628" type="line"/>
      <point x="301" y="583" type="line"/>
      <point x="309" y="578"/>
      <point x="310" y="567"/>
      <point x="305" y="559" type="curve" smooth="yes"/>
      <point x="298" y="550"/>
      <point x="287" y="546"/>
      <point x="279" y="551" type="curve"/>
      <point x="203" y="596" type="line"/>
      <point x="245" y="571" type="line"/>
      <point x="169" y="616" type="line"/>
      <point x="161" y="621"/>
      <point x="160" y="632"/>
    </contour>
  </outline>
</glyph>
<glyph name="a" format="1">
  <advance width="352"/>
  <unicode hex="0061"/>
  <outline>
    <contour>
      <point x="335" y="35" type="curve" smooth="yes"/>
      <point x="291" y="35"/>
      <point x="261" y="70"/>
      <point x="269" y="114" type="curve"/>
      <point x="320" y="403" type="line"/>
      <point x="320" y="406"/>
      <point x="320" y="408"/>
      <point x="320" y="410" type="curve"/>
      <point x="331" y="474"/>
      <point x="288" y="525"/>
      <point x="225" y="525" type="curve" smooth="yes"/>
      <point x="161" y="525"/>
      <point x="101" y="473"/>
      <point x="90" y="410" type="curve"/>
      <point x="39" y="120" type="line"/>
      <point x="27" y="56"/>
      <point x="69" y="5"/>
      <point x="133" y="5" type="curve" smooth="yes"/>
      <point x="173" y="5"/>
      <point x="212" y="26"/>
      <point x="239" y="57" type="curve"/>
      <point x="252" y="22"/>
      <point x="285" y="-1"/>
      <point x="328" y="-1" type="curve" smooth="yes"/>
      <point x="337" y="-1"/>
      <point x="347" y="7"/>
      <point x="348" y="17" type="curve" smooth="yes"/>
      <point x="350" y="27"/>
      <point x="344" y="35"/>
    </contour>
    <contour>
      <point x="233" y="120" type="line"/>
      <point x="225" y="76"/>
      <point x="183" y="41"/>
      <point x="140" y="41" type="curve" smooth="yes"/>
      <point x="96" y="41"/>
      <point x="66" y="76"/>
      <point x="74" y="120" type="curve"/>
      <point x="125" y="410" type="line"/>
      <point x="133" y="454"/>
      <point x="175" y="489"/>
      <point x="219" y="489" type="curve" smooth="yes"/>
      <point x="262" y="489"/>
      <point x="292" y="454"/>
      <point x="284" y="410" type="curve"/>
    </contour>
  </outline>
</glyph>
<glyph name="b" format="1">
  <advance width="343"/>
  <unicode hex="0062"/>
  <outline>
    <contour>
      <point x="274" y="534" type="curve" smooth="yes"/>
      <point x="243" y="534"/>
      <point x="211" y="521"/>
      <point x="187" y="501" type="curve"/>
      <point x="214" y="655" type="line"/>
      <point x="222" y="700"/>
      <point x="264" y="736"/>
      <point x="309" y="736" type="curve" smooth="yes"/>
      <point x="319" y="736"/>
      <point x="329" y="745"/>
      <point x="331" y="755" type="curve" smooth="yes"/>
      <point x="332" y="765"/>
      <point x="326" y="773"/>
      <point x="316" y="773" type="curve" smooth="yes"/>
      <point x="251" y="773"/>
      <point x="188" y="720"/>
      <point x="177" y="655" type="curve"/>
      <point x="82" y="119" type="line"/>
      <point x="71" y="54"/>
      <point x="115" y="1"/>
      <point x="180" y="1" type="curve" smooth="yes"/>
      <point x="245" y="1"/>
      <point x="307" y="54"/>
      <point x="318" y="119" type="curve"/>
      <point x="371" y="416" type="line"/>
      <point x="382" y="481"/>
      <point x="339" y="534"/>
    </contour>
    <contour>
      <point x="281" y="119" type="line"/>
      <point x="274" y="74"/>
      <point x="231" y="37"/>
      <point x="186" y="37" type="curve" smooth="yes"/>
      <point x="141" y="37"/>
      <point x="112" y="74"/>
      <point x="119" y="119" type="curve"/>
      <point x="172" y="416" type="line"/>
      <point x="180" y="460"/>
      <point x="222" y="497"/>
      <point x="267" y="497" type="curve" smooth="yes"/>
      <point x="312" y="497"/>
      <point x="342" y="460"/>
      <point x="334" y="416" type="curve"/>
      <point x="291" y="174" type="line"/>
      <point x="291" y="174"/>
      <point x="291" y="173"/>
      <point x="291" y="173" type="curve"/>
    </contour>
  </outline>
</glyph>
<glyph name="c" format="1">
  <advance width="266"/>
  <unicode hex="0063"/>
  <outline>
    <contour>
      <point x="320" y="390" type="line"/>
      <point x="324" y="412" type="line"/>
      <point x="336" y="477"/>
      <point x="293" y="530"/>
      <point x="228" y="530" type="curve" smooth="yes"/>
      <point x="163" y="530"/>
      <point x="102" y="477"/>
      <point x="90" y="412" type="curve"/>
      <point x="38" y="117" type="line"/>
      <point x="27" y="53"/>
      <point x="70" y="0"/>
      <point x="135" y="0" type="curve" smooth="yes"/>
      <point x="200" y="0"/>
      <point x="261" y="53"/>
      <point x="272" y="117" type="curve"/>
      <point x="276" y="140" type="line"/>
      <point x="240" y="140" type="line"/>
      <point x="236" y="117" type="line"/>
      <point x="228" y="73"/>
      <point x="186" y="36"/>
      <point x="141" y="36" type="curve" smooth="yes"/>
      <point x="96" y="36"/>
      <point x="66" y="73"/>
      <point x="74" y="117" type="curve"/>
      <point x="126" y="412" type="line"/>
      <point x="134" y="457"/>
      <point x="176" y="493"/>
      <point x="221" y="493" type="curve" smooth="yes"/>
      <point x="266" y="493"/>
      <point x="296" y="457"/>
      <point x="288" y="412" type="curve"/>
      <point x="284" y="390" type="line"/>
    </contour>
  </outline>
</glyph>
<glyph name="d" format="1">
  <advance width="263"/>
  <unicode hex="0064"/>
  <outline>
    <contour>
      <point x="262" y="772" type="curve" smooth="yes"/>
      <point x="252" y="772"/>
      <point x="242" y="764"/>
      <point x="240" y="754" type="curve" smooth="yes"/>
      <point x="239" y="744"/>
      <point x="245" y="735"/>
      <point x="255" y="735" type="curve" smooth="yes"/>
      <point x="300" y="735"/>
      <point x="330" y="699"/>
      <point x="322" y="654" type="curve"/>
      <point x="295" y="500" type="line"/>
      <point x="277" y="520"/>
      <point x="251" y="532"/>
      <point x="219" y="532" type="curve" smooth="yes"/>
      <point x="154" y="532"/>
      <point x="92" y="479"/>
      <point x="80" y="414" type="curve"/>
      <point x="28" y="117" type="line"/>
      <point x="17" y="52"/>
      <point x="60" y="-1"/>
      <point x="125" y="-1" type="curve" smooth="yes"/>
      <point x="190" y="-1"/>
      <point x="253" y="52"/>
      <point x="264" y="117" type="curve"/>
      <point x="359" y="654" type="line"/>
      <point x="370" y="719"/>
      <point x="327" y="772"/>
    </contour>
    <contour>
      <point x="227" y="117" type="line"/>
      <point x="219" y="72"/>
      <point x="177" y="35"/>
      <point x="132" y="35" type="curve" smooth="yes"/>
      <point x="87" y="35"/>
      <point x="57" y="72"/>
      <point x="65" y="117" type="curve"/>
      <point x="75" y="171" type="line"/>
      <point x="75" y="172"/>
      <point x="75" y="172"/>
      <point x="75" y="172" type="curve"/>
      <point x="117" y="414" type="line"/>
      <point x="125" y="459"/>
      <point x="168" y="496"/>
      <point x="213" y="496" type="curve" smooth="yes"/>
      <point x="258" y="496"/>
      <point x="287" y="459"/>
      <point x="279" y="414" type="curve"/>
    </contour>
  </outline>
</glyph>
<glyph name="e" format="1">
  <advance width="329"/>
  <unicode hex="0065"/>
  <outline>
    <contour>
      <point x="239" y="236" type="line"/>
      <point x="259" y="236"/>
      <point x="279" y="244"/>
      <point x="296" y="258" type="curve" smooth="yes"/>
      <point x="321" y="277"/>
      <point x="341" y="308"/>
      <point x="347" y="343" type="curve"/>
      <point x="359" y="411" type="line"/>
      <point x="370" y="475"/>
      <point x="327" y="527"/>
      <point x="263" y="527" type="curve" smooth="yes"/>
      <point x="199" y="527"/>
      <point x="138" y="475"/>
      <point x="127" y="411" type="curve"/>
      <point x="75" y="118" type="line"/>
      <point x="64" y="53"/>
      <point x="107" y="1"/>
      <point x="171" y="1" type="curve" smooth="yes"/>
      <point x="235" y="1"/>
      <point x="296" y="53"/>
      <point x="307" y="118" type="curve"/>
      <point x="312" y="144" type="line"/>
      <point x="276" y="144" type="line"/>
      <point x="271" y="118" type="line"/>
      <point x="263" y="73"/>
      <point x="221" y="37"/>
      <point x="177" y="37" type="curve" smooth="yes"/>
      <point x="133" y="37"/>
      <point x="103" y="73"/>
      <point x="111" y="118" type="curve"/>
      <point x="132" y="236" type="line"/>
    </contour>
    <contour>
      <point x="163" y="411" type="line"/>
      <point x="171" y="455"/>
      <point x="213" y="491"/>
      <point x="257" y="491" type="curve" smooth="yes"/>
      <point x="301" y="491"/>
      <point x="331" y="455"/>
      <point x="323" y="411" type="curve"/>
      <point x="306" y="313" type="line"/>
      <point x="292" y="289"/>
      <point x="269" y="273"/>
      <point x="246" y="273" type="curve"/>
      <point x="139" y="273" type="line"/>
    </contour>
  </outline>
</glyph>
<glyph name="f" format="1">
  <advance width="294"/>
  <unicode hex="0066"/>
  <outline>
    <contour>
      <point x="260" y="573" type="curve"/>
      <point x="274" y="656" type="line"/>
      <point x="282" y="700"/>
      <point x="324" y="737"/>
      <point x="369" y="737" type="curve" smooth="yes"/>
      <point x="379" y="737"/>
      <point x="389" y="745"/>
      <point x="391" y="755" type="curve" smooth="yes"/>
      <point x="392" y="765"/>
      <point x="386" y="773"/>
      <point x="376" y="773" type="curve" smooth="yes"/>
      <point x="311" y="773"/>
      <point x="248" y="720"/>
      <point x="237" y="656" type="curve"/>
      <point x="223" y="573" type="line"/>
      <point x="155" y="573" type="line"/>
      <point x="145" y="573"/>
      <point x="135" y="565"/>
      <point x="133" y="555" type="curve" smooth="yes"/>
      <point x="132" y="545"/>
      <point x="138" y="536"/>
      <point x="148" y="536" type="curve"/>
      <point x="216" y="536" type="line"/>
      <point x="125" y="19" type="line"/>
      <point x="123" y="9"/>
      <point x="130" y="1"/>
      <point x="140" y="1" type="curve" smooth="yes"/>
      <point x="150" y="1"/>
      <point x="160" y="9"/>
      <point x="162" y="19" type="curve"/>
      <point x="253" y="536" type="line"/>
      <point x="286" y="535"/>
      <point x="310" y="527"/>
      <point x="304" y="491" type="curve" smooth="yes"/>
      <point x="302" y="481"/>
      <point x="309" y="473"/>
      <point x="319" y="473" type="curve" smooth="yes"/>
      <point x="330" y="473"/>
      <point x="339" y="481"/>
      <point x="341" y="491" type="curve" smooth="yes"/>
      <point x="351" y="547"/>
      <point x="313" y="570"/>
    </contour>
  </outline>
</glyph>
<glyph name="g" format="1">
  <advance width="259"/>
  <unicode hex="0067"/>
  <outline>
    <contour>
      <point x="216" y="527" type="curve" smooth="yes"/>
      <point x="152" y="527"/>
      <point x="91" y="474"/>
      <point x="80" y="410" type="curve"/>
      <point x="28" y="117" type="line"/>
      <point x="17" y="53"/>
      <point x="60" y="1"/>
      <point x="124" y="1" type="curve" smooth="yes"/>
      <point x="155" y="1"/>
      <point x="185" y="13"/>
      <point x="209" y="33" type="curve"/>
      <point x="182" y="-122" type="line"/>
      <point x="174" y="-166"/>
      <point x="132" y="-202"/>
      <point x="88" y="-202" type="curve" smooth="yes"/>
      <point x="78" y="-202"/>
      <point x="68" y="-210"/>
      <point x="67" y="-220" type="curve" smooth="yes"/>
      <point x="65" y="-230"/>
      <point x="72" y="-238"/>
      <point x="82" y="-238" type="curve" smooth="yes"/>
      <point x="146" y="-238"/>
      <point x="207" y="-186"/>
      <point x="218" y="-122" type="curve"/>
      <point x="312" y="410" type="line"/>
      <point x="323" y="474"/>
      <point x="280" y="527"/>
    </contour>
    <contour>
      <point x="224" y="117" type="line"/>
      <point x="216" y="73"/>
      <point x="174" y="37"/>
      <point x="130" y="37" type="curve" smooth="yes"/>
      <point x="86" y="37"/>
      <point x="56" y="73"/>
      <point x="64" y="117" type="curve"/>
      <point x="106" y="356" type="line"/>
      <point x="106" y="356"/>
      <point x="106" y="356"/>
      <point x="106" y="357" type="curve"/>
      <point x="116" y="410" type="line"/>
      <point x="124" y="455"/>
      <point x="166" y="491"/>
      <point x="210" y="491" type="curve" smooth="yes"/>
      <point x="254" y="491"/>
      <point x="284" y="455"/>
      <point x="276" y="410" type="curve"/>
    </contour>
  </outline>
</glyph>
<glyph name="h" format="1">
  <advance width="356"/>
  <unicode hex="0068"/>
  <outline>
    <contour>
      <point x="373" y="420" type="curve"/>
      <point x="302" y="18" type="line"/>
      <point x="300" y="8"/>
      <point x="291" y="0"/>
      <point x="281" y="0" type="curve" smooth="yes"/>
      <point x="271" y="0"/>
      <point x="264" y="8"/>
      <point x="266" y="18" type="curve"/>
      <point x="337" y="420" type="line"/>
      <point x="344" y="464"/>
      <point x="315" y="501"/>
      <point x="270" y="501" type="curve" smooth="yes"/>
      <point x="225" y="501"/>
      <point x="182" y="464"/>
      <point x="175" y="420" type="curve"/>
      <point x="104" y="18" type="line"/>
      <point x="102" y="8"/>
      <point x="93" y="0"/>
      <point x="83" y="0" type="curve" smooth="yes"/>
      <point x="73" y="0"/>
      <point x="66" y="8"/>
      <point x="68" y="18" type="curve"/>
      <point x="180" y="657" type="line"/>
      <point x="192" y="721"/>
      <point x="253" y="774"/>
      <point x="318" y="774" type="curve" smooth="yes"/>
      <point x="328" y="774"/>
      <point x="335" y="766"/>
      <point x="333" y="756" type="curve" smooth="yes"/>
      <point x="331" y="746"/>
      <point x="322" y="738"/>
      <point x="312" y="738" type="curve" smooth="yes"/>
      <point x="267" y="738"/>
      <point x="224" y="701"/>
      <point x="216" y="657" type="curve"/>
      <point x="190" y="505" type="line"/>
      <point x="214" y="525"/>
      <point x="245" y="537"/>
      <point x="276" y="537" type="curve" smooth="yes"/>
      <point x="341" y="537"/>
      <point x="384" y="484"/>
    </contour>
  </outline>
</glyph>
<glyph name="i" format="1">
  <advance width="194"/>
  <unicode hex="0069"/>
  <outline>
    <contour>
      <point x="144" y="528" type="curve" smooth="yes"/>
      <point x="208" y="528"/>
      <point x="220" y="476"/>
      <point x="209" y="412" type="curve"/>
      <point x="140" y="18" type="line"/>
      <point x="138" y="8"/>
      <point x="129" y="0"/>
      <point x="119" y="0" type="curve" smooth="yes"/>
      <point x="109" y="0"/>
      <point x="102" y="8"/>
      <point x="104" y="18" type="curve"/>
      <point x="173" y="412" type="line"/>
      <point x="181" y="456"/>
      <point x="181" y="492"/>
      <point x="137" y="492" type="curve" smooth="yes"/>
      <point x="127" y="492"/>
      <point x="121" y="500"/>
      <point x="122" y="510" type="curve" smooth="yes"/>
      <point x="124" y="519"/>
      <point x="134" y="528"/>
    </contour>
    <contour>
      <point x="217" y="561" type="curve" smooth="yes"/>
      <point x="227" y="561"/>
      <point x="237" y="569"/>
      <point x="239" y="579" type="curve"/>
      <point x="241" y="592" type="line"/>
      <point x="243" y="602"/>
      <point x="236" y="610"/>
      <point x="226" y="610" type="curve" smooth="yes"/>
      <point x="216" y="610"/>
      <point x="207" y="602"/>
      <point x="205" y="592" type="curve"/>
      <point x="203" y="579" type="line"/>
      <point x="201" y="569"/>
      <point x="207" y="561"/>
    </contour>
  </outline>
</glyph>
<glyph name="j" format="1">
  <advance width="235"/>
  <unicode hex="006A"/>
  <outline>
    <contour>
      <point x="245" y="528" type="curve" smooth="yes"/>
      <point x="235" y="528"/>
      <point x="225" y="520"/>
      <point x="223" y="510" type="curve"/>
      <point x="112" y="-120" type="line"/>
      <point x="105" y="-164"/>
      <point x="62" y="-200"/>
      <point x="18" y="-200" type="curve" smooth="yes"/>
      <point x="8" y="-200"/>
      <point x="0" y="-208"/>
      <point x="-2" y="-218" type="curve" smooth="yes"/>
      <point x="-4" y="-228"/>
      <point x="2" y="-236"/>
      <point x="12" y="-236" type="curve" smooth="yes"/>
      <point x="76" y="-236"/>
      <point x="137" y="-184"/>
      <point x="148" y="-120" type="curve"/>
      <point x="259" y="510" type="line"/>
      <point x="261" y="520"/>
      <point x="255" y="528"/>
    </contour>
    <contour>
      <point x="259" y="609" type="curve" smooth="yes"/>
      <point x="249" y="609"/>
      <point x="239" y="601"/>
      <point x="238" y="591" type="curve"/>
      <point x="235" y="578" type="line"/>
      <point x="234" y="568"/>
      <point x="240" y="559"/>
      <point x="250" y="559" type="curve" smooth="yes"/>
      <point x="260" y="559"/>
      <point x="270" y="568"/>
      <point x="271" y="578" type="curve"/>
      <point x="274" y="591" type="line"/>
      <point x="275" y="601"/>
      <point x="269" y="609"/>
    </contour>
  </outline>
</glyph>
<glyph name="k" format="1">
  <advance width="372"/>
  <unicode hex="006B"/>
  <outline>
    <contour>
      <point x="327" y="32" type="curve" smooth="yes"/>
      <point x="325" y="41"/>
      <point x="316" y="46"/>
      <point x="305" y="42" type="curve" smooth="yes"/>
      <point x="261" y="25"/>
      <point x="217" y="46"/>
      <point x="208" y="87" type="curve"/>
      <point x="159" y="301" type="line"/>
      <point x="158" y="304"/>
      <point x="156" y="306"/>
      <point x="155" y="308" type="curve"/>
      <point x="161" y="309"/>
      <point x="167" y="313"/>
      <point x="171" y="319" type="curve"/>
      <point x="247" y="451" type="line"/>
      <point x="270" y="492"/>
      <point x="322" y="512"/>
      <point x="360" y="496" type="curve" smooth="yes"/>
      <point x="369" y="492"/>
      <point x="380" y="496"/>
      <point x="386" y="506" type="curve" smooth="yes"/>
      <point x="391" y="515"/>
      <point x="388" y="526"/>
      <point x="380" y="530" type="curve" smooth="yes"/>
      <point x="324" y="554"/>
      <point x="250" y="525"/>
      <point x="215" y="464" type="curve"/>
      <point x="168" y="383" type="line"/>
      <point x="216" y="655" type="line"/>
      <point x="224" y="700"/>
      <point x="267" y="736"/>
      <point x="311" y="736" type="curve" smooth="yes"/>
      <point x="322" y="736"/>
      <point x="332" y="745"/>
      <point x="334" y="755" type="curve" smooth="yes"/>
      <point x="335" y="765"/>
      <point x="329" y="773"/>
      <point x="318" y="773" type="curve" smooth="yes"/>
      <point x="253" y="773"/>
      <point x="191" y="720"/>
      <point x="180" y="655" type="curve"/>
      <point x="68" y="18" type="line"/>
      <point x="66" y="8"/>
      <point x="73" y="0"/>
      <point x="83" y="0" type="curve" smooth="yes"/>
      <point x="93" y="0"/>
      <point x="102" y="8"/>
      <point x="104" y="18" type="curve"/>
      <point x="138" y="215" type="line"/>
      <point x="172" y="74" type="line"/>
      <point x="185" y="13"/>
      <point x="249" y="-16"/>
      <point x="313" y="8" type="curve" smooth="yes"/>
      <point x="323" y="12"/>
      <point x="330" y="23"/>
    </contour>
  </outline>
</glyph>
<glyph name="l" format="1">
  <advance width="155"/>
  <unicode hex="006C"/>
  <outline>
    <contour>
      <point x="273" y="772" type="curve" smooth="yes"/>
      <point x="208" y="772"/>
      <point x="145" y="719"/>
      <point x="134" y="654" type="curve"/>
      <point x="22" y="18" type="line"/>
      <point x="20" y="8"/>
      <point x="27" y="0"/>
      <point x="37" y="0" type="curve" smooth="yes"/>
      <point x="47" y="0"/>
      <point x="57" y="8"/>
      <point x="59" y="18" type="curve"/>
      <point x="171" y="654" type="line"/>
      <point x="179" y="699"/>
      <point x="221" y="735"/>
      <point x="266" y="735" type="curve" smooth="yes"/>
      <point x="276" y="735"/>
      <point x="286" y="744"/>
      <point x="287" y="754" type="curve" smooth="yes"/>
      <point x="289" y="764"/>
      <point x="283" y="772"/>
    </contour>
  </outline>
</glyph>
<glyph name="m" format="1">
  <advance width="598"/>
  <unicode hex="006D"/>
  <outline>
    <contour>
      <point x="507" y="526" type="curve" smooth="yes"/>
      <point x="465" y="526"/>
      <point x="424" y="504"/>
      <point x="399" y="471" type="curve"/>
      <point x="383" y="504"/>
      <point x="350" y="526"/>
      <point x="309" y="526" type="curve" smooth="yes"/>
      <point x="270" y="526"/>
      <point x="234" y="508"/>
      <point x="207" y="479" type="curve"/>
      <point x="200" y="508"/>
      <point x="179" y="526"/>
      <point x="141" y="526" type="curve" smooth="yes"/>
      <point x="131" y="526"/>
      <point x="122" y="518"/>
      <point x="120" y="508" type="curve" smooth="yes"/>
      <point x="118" y="498"/>
      <point x="125" y="490"/>
      <point x="135" y="490" type="curve" smooth="yes"/>
      <point x="179" y="490"/>
      <point x="180" y="454"/>
      <point x="172" y="410" type="curve"/>
      <point x="150" y="288" type="line"/>
      <point x="150" y="287"/>
      <point x="150" y="285"/>
      <point x="150" y="284" type="curve"/>
      <point x="102" y="16" type="line"/>
      <point x="101" y="6"/>
      <point x="107" y="-2"/>
      <point x="117" y="-2" type="curve" smooth="yes"/>
      <point x="127" y="-2"/>
      <point x="137" y="6"/>
      <point x="138" y="16" type="curve"/>
      <point x="208" y="410" type="line"/>
      <point x="216" y="454"/>
      <point x="258" y="490"/>
      <point x="303" y="490" type="curve" smooth="yes"/>
      <point x="347" y="490"/>
      <point x="377" y="454"/>
      <point x="369" y="410" type="curve"/>
      <point x="299" y="16" type="line"/>
      <point x="298" y="6"/>
      <point x="304" y="-2"/>
      <point x="314" y="-2" type="curve" smooth="yes"/>
      <point x="315" y="-2"/>
      <point x="315" y="-2"/>
      <point x="316" y="-2" type="curve"/>
      <point x="326" y="-2"/>
      <point x="335" y="6"/>
      <point x="336" y="16" type="curve"/>
      <point x="406" y="410" type="line"/>
      <point x="414" y="454"/>
      <point x="456" y="490"/>
      <point x="501" y="490" type="curve" smooth="yes"/>
      <point x="545" y="490"/>
      <point x="575" y="454"/>
      <point x="567" y="410" type="curve"/>
      <point x="497" y="16" type="line"/>
      <point x="496" y="6"/>
      <point x="502" y="-2"/>
      <point x="512" y="-2" type="curve" smooth="yes"/>
      <point x="522" y="-2"/>
      <point x="532" y="6"/>
      <point x="533" y="16" type="curve"/>
      <point x="603" y="410" type="line"/>
      <point x="614" y="474"/>
      <point x="571" y="526"/>
    </contour>
  </outline>
</glyph>
<glyph name="n" format="1">
  <advance width="382"/>
  <unicode hex="006E"/>
  <outline>
    <contour>
      <point x="292" y="527" type="curve" smooth="yes"/>
      <point x="254" y="527"/>
      <point x="217" y="509"/>
      <point x="191" y="480" type="curve"/>
      <point x="183" y="509"/>
      <point x="162" y="527"/>
      <point x="124" y="527" type="curve" smooth="yes"/>
      <point x="114" y="527"/>
      <point x="105" y="519"/>
      <point x="103" y="509" type="curve" smooth="yes"/>
      <point x="101" y="499"/>
      <point x="108" y="491"/>
      <point x="118" y="491" type="curve" smooth="yes"/>
      <point x="163" y="491"/>
      <point x="163" y="455"/>
      <point x="155" y="411" type="curve"/>
      <point x="133" y="289" type="line"/>
      <point x="133" y="288"/>
      <point x="133" y="286"/>
      <point x="133" y="285" type="curve"/>
      <point x="86" y="18" type="line"/>
      <point x="84" y="8"/>
      <point x="91" y="0"/>
      <point x="101" y="0" type="curve" smooth="yes"/>
      <point x="111" y="0"/>
      <point x="120" y="8"/>
      <point x="122" y="18" type="curve"/>
      <point x="191" y="411" type="line"/>
      <point x="199" y="455"/>
      <point x="241" y="491"/>
      <point x="286" y="491" type="curve" smooth="yes"/>
      <point x="330" y="491"/>
      <point x="360" y="455"/>
      <point x="352" y="411" type="curve"/>
      <point x="283" y="18" type="line"/>
      <point x="281" y="8"/>
      <point x="288" y="0"/>
      <point x="298" y="0" type="curve" smooth="yes"/>
      <point x="308" y="0"/>
      <point x="317" y="8"/>
      <point x="319" y="18" type="curve"/>
      <point x="388" y="411" type="line"/>
      <point x="399" y="475"/>
      <point x="356" y="527"/>
    </contour>
  </outline>
</glyph>
<glyph name="o" format="1">
  <advance width="348"/>
  <unicode hex="006F"/>
  <outline>
    <contour>
      <point x="172" y="-2" type="curve" smooth="yes"/>
      <point x="236" y="-2"/>
      <point x="298" y="51"/>
      <point x="310" y="115" type="curve"/>
      <point x="362" y="409" type="line"/>
      <point x="373" y="474"/>
      <point x="329" y="526"/>
      <point x="265" y="526" type="curve" smooth="yes"/>
      <point x="201" y="526"/>
      <point x="139" y="474"/>
      <point x="128" y="409" type="curve"/>
      <point x="76" y="115" type="line"/>
      <point x="64" y="51"/>
      <point x="108" y="-2"/>
    </contour>
    <contour>
      <point x="164" y="409" type="line"/>
      <point x="172" y="454"/>
      <point x="215" y="490"/>
      <point x="259" y="490" type="curve" smooth="yes"/>
      <point x="303" y="490"/>
      <point x="334" y="454"/>
      <point x="326" y="409" type="curve"/>
      <point x="274" y="115" type="line"/>
      <point x="266" y="71"/>
      <point x="222" y="34"/>
      <point x="178" y="34" type="curve" smooth="yes"/>
      <point x="134" y="34"/>
      <point x="104" y="71"/>
      <point x="112" y="115" type="curve"/>
      <point x="154" y="354" type="line"/>
      <point x="154" y="355"/>
      <point x="154" y="355"/>
      <point x="154" y="355" type="curve"/>
    </contour>
  </outline>
</glyph>
<glyph name="p" format="1">
  <advance width="365"/>
  <unicode hex="0070"/>
  <outline>
    <contour>
      <point x="290" y="528" type="curve" smooth="yes"/>
      <point x="258" y="528"/>
      <point x="227" y="515"/>
      <point x="202" y="495" type="curve"/>
      <point x="204" y="508" type="line"/>
      <point x="206" y="519"/>
      <point x="199" y="527"/>
      <point x="189" y="527" type="curve" smooth="yes"/>
      <point x="179" y="527"/>
      <point x="170" y="519"/>
      <point x="168" y="508" type="curve"/>
      <point x="56" y="-125" type="line"/>
      <point x="49" y="-169"/>
      <point x="6" y="-206"/>
      <point x="-38" y="-206" type="curve" smooth="yes"/>
      <point x="-48" y="-206"/>
      <point x="-57" y="-214"/>
      <point x="-59" y="-224" type="curve" smooth="yes"/>
      <point x="-61" y="-234"/>
      <point x="-54" y="-242"/>
      <point x="-44" y="-242" type="curve" smooth="yes"/>
      <point x="20" y="-242"/>
      <point x="81" y="-189"/>
      <point x="92" y="-125" type="curve"/>
      <point x="120" y="32" type="line"/>
      <point x="138" y="11"/>
      <point x="164" y="-1"/>
      <point x="196" y="-1" type="curve" smooth="yes"/>
      <point x="260" y="-1"/>
      <point x="322" y="51"/>
      <point x="334" y="116" type="curve"/>
      <point x="386" y="411" type="line"/>
      <point x="397" y="475"/>
      <point x="354" y="528"/>
    </contour>
    <contour>
      <point x="298" y="116" type="line"/>
      <point x="290" y="71"/>
      <point x="247" y="35"/>
      <point x="203" y="35" type="curve" smooth="yes"/>
      <point x="158" y="35"/>
      <point x="128" y="71"/>
      <point x="136" y="116" type="curve"/>
      <point x="188" y="411" type="line"/>
      <point x="196" y="455"/>
      <point x="238" y="492"/>
      <point x="283" y="492" type="curve" smooth="yes"/>
      <point x="327" y="492"/>
      <point x="358" y="455"/>
      <point x="350" y="411" type="curve"/>
    </contour>
  </outline>
</glyph>
<glyph name="q" format="1">
  <advance width="368"/>
  <unicode hex="0071"/>
  <outline>
    <contour>
      <point x="332" y="-207" type="curve" smooth="yes"/>
      <point x="288" y="-207"/>
      <point x="258" y="-170"/>
      <point x="265" y="-126" type="curve"/>
      <point x="377" y="507" type="line"/>
      <point x="379" y="517"/>
      <point x="372" y="526"/>
      <point x="362" y="526" type="curve" smooth="yes"/>
      <point x="352" y="526"/>
      <point x="343" y="517"/>
      <point x="341" y="507" type="curve"/>
      <point x="339" y="494" type="line"/>
      <point x="321" y="514"/>
      <point x="294" y="527"/>
      <point x="263" y="527" type="curve" smooth="yes"/>
      <point x="198" y="527"/>
      <point x="136" y="474"/>
      <point x="125" y="410" type="curve"/>
      <point x="73" y="115" type="line"/>
      <point x="61" y="50"/>
      <point x="105" y="-2"/>
      <point x="170" y="-2" type="curve" smooth="yes"/>
      <point x="201" y="-2"/>
      <point x="232" y="10"/>
      <point x="257" y="31" type="curve"/>
      <point x="229" y="-126" type="line"/>
      <point x="218" y="-190"/>
      <point x="261" y="-243"/>
      <point x="326" y="-243" type="curve" smooth="yes"/>
      <point x="336" y="-243"/>
      <point x="345" y="-235"/>
      <point x="347" y="-225" type="curve" smooth="yes"/>
      <point x="349" y="-215"/>
      <point x="342" y="-207"/>
    </contour>
    <contour>
      <point x="313" y="356" type="line"/>
      <point x="313" y="355"/>
      <point x="313" y="355"/>
      <point x="313" y="355" type="curve"/>
      <point x="271" y="115" type="line"/>
      <point x="263" y="70"/>
      <point x="220" y="34"/>
      <point x="176" y="34" type="curve" smooth="yes"/>
      <point x="131" y="34"/>
      <point x="102" y="70"/>
      <point x="110" y="115" type="curve"/>
      <point x="162" y="410" type="line"/>
      <point x="170" y="454"/>
      <point x="212" y="491"/>
      <point x="257" y="491" type="curve" smooth="yes"/>
      <point x="301" y="491"/>
      <point x="331" y="454"/>
      <point x="323" y="410" type="curve"/>
    </contour>
  </outline>
</glyph>
<glyph name="r" format="1">
  <advance width="152"/>
  <unicode hex="0072"/>
  <outline>
    <contour>
      <point x="226" y="525" type="curve" smooth="yes"/>
      <point x="162" y="525"/>
      <point x="101" y="473"/>
      <point x="90" y="410" type="curve"/>
      <point x="20" y="17" type="line"/>
      <point x="19" y="7"/>
      <point x="25" y="-1"/>
      <point x="35" y="-1" type="curve" smooth="yes"/>
      <point x="45" y="-1"/>
      <point x="55" y="7"/>
      <point x="56" y="17" type="curve"/>
      <point x="126" y="410" type="line"/>
      <point x="134" y="454"/>
      <point x="176" y="489"/>
      <point x="220" y="489" type="curve" smooth="yes"/>
      <point x="230" y="489"/>
      <point x="239" y="497"/>
      <point x="241" y="507" type="curve" smooth="yes"/>
      <point x="243" y="517"/>
      <point x="236" y="525"/>
    </contour>
  </outline>
</glyph>
<glyph name="s" format="1">
  <advance width="321"/>
  <unicode hex="0073"/>
  <outline>
    <contour>
      <point x="343" y="390" type="line"/>
      <point x="347" y="410" type="line"/>
      <point x="358" y="474"/>
      <point x="314" y="527"/>
      <point x="250" y="527" type="curve" smooth="yes"/>
      <point x="185" y="527"/>
      <point x="124" y="474"/>
      <point x="113" y="410" type="curve"/>
      <point x="102" y="346" type="line"/>
      <point x="97" y="319"/>
      <point x="101" y="294"/>
      <point x="112" y="275" type="curve" smooth="yes"/>
      <point x="115" y="270"/>
      <point x="118" y="264"/>
      <point x="122" y="260" type="curve" smooth="yes"/>
      <point x="134" y="248"/>
      <point x="150" y="240"/>
      <point x="169" y="239" type="curve"/>
      <point x="229" y="239" type="line"/>
      <point x="231" y="239"/>
      <point x="232" y="239"/>
      <point x="233" y="239" type="curve" smooth="yes"/>
      <point x="252" y="237"/>
      <point x="268" y="224"/>
      <point x="273" y="204" type="curve"/>
      <point x="268" y="171" type="line"/>
      <point x="267" y="170"/>
      <point x="267" y="170"/>
      <point x="268" y="170" type="curve"/>
      <point x="259" y="116" type="line"/>
      <point x="251" y="71"/>
      <point x="208" y="35"/>
      <point x="164" y="35" type="curve" smooth="yes"/>
      <point x="119" y="35"/>
      <point x="89" y="71"/>
      <point x="97" y="116" type="curve"/>
      <point x="101" y="140" type="line"/>
      <point x="65" y="140" type="line"/>
      <point x="61" y="116" type="line"/>
      <point x="49" y="51"/>
      <point x="93" y="-1"/>
      <point x="157" y="-1" type="curve" smooth="yes"/>
      <point x="221" y="-1"/>
      <point x="283" y="51"/>
      <point x="295" y="116" type="curve"/>
      <point x="309" y="194" type="line"/>
      <point x="308" y="211"/>
      <point x="303" y="226"/>
      <point x="297" y="239" type="curve" smooth="yes"/>
      <point x="293" y="245"/>
      <point x="289" y="251"/>
      <point x="283" y="256" type="curve" smooth="yes"/>
      <point x="272" y="267"/>
      <point x="257" y="274"/>
      <point x="240" y="275" type="curve"/>
      <point x="179" y="275" type="line"/>
      <point x="178" y="275"/>
      <point x="177" y="275"/>
      <point x="175" y="275" type="curve" smooth="yes"/>
      <point x="153" y="277"/>
      <point x="137" y="293"/>
      <point x="132" y="316" type="curve"/>
      <point x="149" y="410" type="line"/>
      <point x="157" y="454"/>
      <point x="199" y="490"/>
      <point x="244" y="490" type="curve" smooth="yes"/>
      <point x="288" y="490"/>
      <point x="318" y="454"/>
      <point x="310" y="410" type="curve"/>
      <point x="306" y="390" type="line"/>
    </contour>
  </outline>
</glyph>
<glyph name="t" format="1">
  <advance width="227"/>
  <unicode hex="0074"/>
  <outline>
    <contour>
      <point x="211" y="36" type="curve" smooth="yes"/>
      <point x="166" y="36"/>
      <point x="136" y="73"/>
      <point x="144" y="117" type="curve"/>
      <point x="218" y="535" type="line"/>
      <point x="273" y="538"/>
      <point x="319" y="561"/>
      <point x="329" y="617" type="curve" smooth="yes"/>
      <point x="331" y="627"/>
      <point x="324" y="635"/>
      <point x="314" y="635" type="curve" smooth="yes"/>
      <point x="304" y="635"/>
      <point x="295" y="627"/>
      <point x="293" y="617" type="curve" smooth="yes"/>
      <point x="287" y="581"/>
      <point x="259" y="573"/>
      <point x="224" y="572" type="curve"/>
      <point x="257" y="755" type="line"/>
      <point x="258" y="765"/>
      <point x="252" y="773"/>
      <point x="242" y="773" type="curve" smooth="yes"/>
      <point x="231" y="773"/>
      <point x="221" y="765"/>
      <point x="220" y="755" type="curve"/>
      <point x="187" y="571" type="line"/>
      <point x="121" y="571" type="line"/>
      <point x="111" y="571"/>
      <point x="101" y="563"/>
      <point x="99" y="553" type="curve" smooth="yes"/>
      <point x="97" y="543"/>
      <point x="105" y="535"/>
      <point x="115" y="535" type="curve"/>
      <point x="181" y="535" type="line"/>
      <point x="107" y="117" type="line"/>
      <point x="96" y="53"/>
      <point x="140" y="0"/>
      <point x="205" y="0" type="curve" smooth="yes"/>
      <point x="215" y="0"/>
      <point x="224" y="8"/>
      <point x="226" y="18" type="curve" smooth="yes"/>
      <point x="227" y="28"/>
      <point x="221" y="36"/>
    </contour>
  </outline>
</glyph>
<glyph name="u" format="1">
  <advance width="398"/>
  <unicode hex="0075"/>
  <outline>
    <contour>
      <point x="352" y="36" type="curve" smooth="yes"/>
      <point x="308" y="36"/>
      <point x="308" y="72"/>
      <point x="316" y="116" type="curve"/>
      <point x="337" y="237" type="line"/>
      <point x="337" y="238"/>
      <point x="337" y="238"/>
      <point x="338" y="239" type="curve"/>
      <point x="385" y="509" type="line"/>
      <point x="387" y="519"/>
      <point x="380" y="527"/>
      <point x="370" y="527" type="curve" smooth="yes"/>
      <point x="360" y="527"/>
      <point x="351" y="519"/>
      <point x="349" y="509" type="curve"/>
      <point x="280" y="116" type="line"/>
      <point x="272" y="72"/>
      <point x="230" y="36"/>
      <point x="186" y="36" type="curve" smooth="yes"/>
      <point x="141" y="36"/>
      <point x="112" y="72"/>
      <point x="120" y="116" type="curve"/>
      <point x="189" y="509" type="line"/>
      <point x="191" y="519"/>
      <point x="183" y="527"/>
      <point x="174" y="527" type="curve" smooth="yes"/>
      <point x="164" y="527"/>
      <point x="155" y="519"/>
      <point x="153" y="509" type="curve"/>
      <point x="84" y="116" type="line"/>
      <point x="73" y="52"/>
      <point x="116" y="0"/>
      <point x="180" y="0" type="curve" smooth="yes"/>
      <point x="218" y="0"/>
      <point x="254" y="18"/>
      <point x="280" y="46" type="curve"/>
      <point x="288" y="18"/>
      <point x="309" y="0"/>
      <point x="346" y="0" type="curve" smooth="yes"/>
      <point x="356" y="0"/>
      <point x="365" y="8"/>
      <point x="367" y="18" type="curve" smooth="yes"/>
      <point x="368" y="28"/>
      <point x="362" y="36"/>
    </contour>
  </outline>
</glyph>
<glyph name="v" format="1">
  <advance width="284"/>
  <unicode hex="0076"/>
  <outline>
    <contour>
      <point x="302" y="523" type="curve" smooth="yes"/>
      <point x="293" y="526"/>
      <point x="282" y="520"/>
      <point x="278" y="511" type="curve" smooth="yes"/>
      <point x="273" y="502"/>
      <point x="276" y="492"/>
      <point x="285" y="489" type="curve" smooth="yes"/>
      <point x="324" y="476"/>
      <point x="313" y="440"/>
      <point x="293" y="399" type="curve"/>
      <point x="153" y="83" type="line"/>
      <point x="130" y="399" type="line"/>
      <point x="125" y="441"/>
      <point x="128" y="477"/>
      <point x="171" y="489" type="curve" smooth="yes"/>
      <point x="181" y="492"/>
      <point x="188" y="502"/>
      <point x="187" y="511" type="curve" smooth="yes"/>
      <point x="186" y="521"/>
      <point x="177" y="526"/>
      <point x="167" y="523" type="curve" smooth="yes"/>
      <point x="104" y="505"/>
      <point x="87" y="450"/>
      <point x="94" y="389" type="curve"/>
      <point x="121" y="11" type="line"/>
      <point x="123" y="1"/>
      <point x="132" y="-4"/>
      <point x="141" y="-1" type="curve" smooth="yes"/>
      <point x="141" y="-1"/>
      <point x="141" y="-1"/>
      <point x="142" y="-1" type="curve"/>
      <point x="149" y="0"/>
      <point x="154" y="4"/>
      <point x="157" y="11" type="curve"/>
      <point x="325" y="388" type="line"/>
      <point x="354" y="448"/>
      <point x="358" y="504"/>
    </contour>
  </outline>
</glyph>
<glyph name="w" format="1">
  <advance width="511"/>
  <unicode hex="0077"/>
  <outline>
    <contour>
      <point x="525" y="524" type="curve" smooth="yes"/>
      <point x="515" y="527"/>
      <point x="505" y="522"/>
      <point x="500" y="513" type="curve" smooth="yes"/>
      <point x="495" y="503"/>
      <point x="499" y="493"/>
      <point x="508" y="490" type="curve" smooth="yes"/>
      <point x="548" y="477"/>
      <point x="536" y="442"/>
      <point x="516" y="400" type="curve"/>
      <point x="375" y="82" type="line"/>
      <point x="339" y="324" type="line"/>
      <point x="334" y="366"/>
      <point x="336" y="402"/>
      <point x="379" y="414" type="curve" smooth="yes"/>
      <point x="390" y="417"/>
      <point x="397" y="427"/>
      <point x="396" y="436" type="curve" smooth="yes"/>
      <point x="395" y="446"/>
      <point x="386" y="451"/>
      <point x="375" y="448" type="curve" smooth="yes"/>
      <point x="357" y="443"/>
      <point x="342" y="434"/>
      <point x="330" y="423" type="curve"/>
      <point x="323" y="434"/>
      <point x="312" y="443"/>
      <point x="295" y="449" type="curve" smooth="yes"/>
      <point x="285" y="452"/>
      <point x="274" y="447"/>
      <point x="270" y="437" type="curve" smooth="yes"/>
      <point x="265" y="428"/>
      <point x="269" y="418"/>
      <point x="278" y="415" type="curve" smooth="yes"/>
      <point x="317" y="402"/>
      <point x="306" y="366"/>
      <point x="286" y="324" type="curve"/>
      <point x="158" y="84" type="line"/>
      <point x="135" y="402" type="line"/>
      <point x="131" y="444"/>
      <point x="133" y="480"/>
      <point x="177" y="492" type="curve" smooth="yes"/>
      <point x="187" y="495"/>
      <point x="194" y="505"/>
      <point x="193" y="514" type="curve" smooth="yes"/>
      <point x="192" y="524"/>
      <point x="183" y="529"/>
      <point x="173" y="527" type="curve" smooth="yes"/>
      <point x="109" y="509"/>
      <point x="92" y="453"/>
      <point x="100" y="392" type="curve"/>
      <point x="127" y="11" type="line"/>
      <point x="128" y="2"/>
      <point x="137" y="-4"/>
      <point x="147" y="-1" type="curve" smooth="yes"/>
      <point x="147" y="-1"/>
      <point x="147" y="-1"/>
      <point x="147" y="-1" type="curve"/>
      <point x="154" y="1"/>
      <point x="160" y="5"/>
      <point x="163" y="11" type="curve"/>
      <point x="306" y="290" type="line"/>
      <point x="343" y="10" type="line"/>
      <point x="345" y="0"/>
      <point x="354" y="-5"/>
      <point x="364" y="-2" type="curve" smooth="yes"/>
      <point x="364" y="-2"/>
      <point x="364" y="-2"/>
      <point x="364" y="-2" type="curve"/>
      <point x="370" y="-1"/>
      <point x="377" y="4"/>
      <point x="380" y="10" type="curve"/>
      <point x="548" y="389" type="line"/>
      <point x="578" y="450"/>
      <point x="582" y="506"/>
    </contour>
  </outline>
</glyph>
<glyph name="x" format="1">
  <advance width="394"/>
  <unicode hex="0078"/>
  <outline>
    <contour>
      <point x="257" y="228" type="line"/>
      <point x="374" y="378" type="line"/>
      <point x="421" y="430"/>
      <point x="444" y="485"/>
      <point x="399" y="523" type="curve" smooth="yes"/>
      <point x="392" y="529"/>
      <point x="380" y="527"/>
      <point x="373" y="519" type="curve" smooth="yes"/>
      <point x="366" y="511"/>
      <point x="366" y="500"/>
      <point x="373" y="494" type="curve" smooth="yes"/>
      <point x="403" y="468"/>
      <point x="381" y="435"/>
      <point x="349" y="400" type="curve"/>
      <point x="242" y="262" type="line"/>
      <point x="183" y="400" type="line"/>
      <point x="163" y="435"/>
      <point x="153" y="468"/>
      <point x="193" y="494" type="curve" smooth="yes"/>
      <point x="202" y="500"/>
      <point x="206" y="511"/>
      <point x="201" y="519" type="curve" smooth="yes"/>
      <point x="196" y="527"/>
      <point x="186" y="529"/>
      <point x="177" y="523" type="curve" smooth="yes"/>
      <point x="118" y="485"/>
      <point x="121" y="430"/>
      <point x="150" y="378" type="curve"/>
      <point x="215" y="228" type="line"/>
      <point x="58" y="28" type="line"/>
      <point x="51" y="20"/>
      <point x="51" y="8"/>
      <point x="58" y="2" type="curve" smooth="yes"/>
      <point x="65" y="-3"/>
      <point x="76" y="-2"/>
      <point x="84" y="6" type="curve"/>
      <point x="230" y="193" type="line"/>
      <point x="310" y="6" type="line"/>
      <point x="314" y="-2"/>
      <point x="325" y="-3"/>
      <point x="334" y="2" type="curve" smooth="yes"/>
      <point x="343" y="8"/>
      <point x="347" y="20"/>
      <point x="342" y="28" type="curve"/>
    </contour>
  </outline>
</glyph>
<glyph name="y" format="1">
  <advance width="261"/>
  <unicode hex="0079"/>
  <outline>
    <contour>
      <point x="330" y="508" type="curve" smooth="yes"/>
      <point x="330" y="509"/>
      <point x="329" y="509"/>
      <point x="329" y="510" type="curve"/>
      <point x="329" y="510"/>
      <point x="329" y="510"/>
      <point x="329" y="510" type="curve"/>
      <point x="330" y="519"/>
      <point x="324" y="525"/>
      <point x="315" y="525" type="curve" smooth="yes"/>
      <point x="306" y="525"/>
      <point x="297" y="519"/>
      <point x="294" y="510" type="curve"/>
      <point x="294" y="510"/>
      <point x="294" y="510"/>
      <point x="294" y="510" type="curve"/>
      <point x="294" y="509"/>
      <point x="294" y="509"/>
      <point x="294" y="508" type="curve" smooth="yes"/>
      <point x="294" y="508"/>
      <point x="294" y="507"/>
      <point x="294" y="507" type="curve"/>
      <point x="225" y="116" type="line"/>
      <point x="217" y="72"/>
      <point x="175" y="36"/>
      <point x="131" y="36" type="curve" smooth="yes"/>
      <point x="87" y="36"/>
      <point x="57" y="72"/>
      <point x="65" y="116" type="curve"/>
      <point x="134" y="507" type="line"/>
      <point x="136" y="517"/>
      <point x="129" y="525"/>
      <point x="119" y="525" type="curve" smooth="yes"/>
      <point x="109" y="525"/>
      <point x="100" y="517"/>
      <point x="98" y="507" type="curve"/>
      <point x="29" y="116" type="line"/>
      <point x="18" y="52"/>
      <point x="61" y="0"/>
      <point x="125" y="0" type="curve" smooth="yes"/>
      <point x="156" y="0"/>
      <point x="186" y="12"/>
      <point x="210" y="32" type="curve"/>
      <point x="184" y="-118" type="line"/>
      <point x="176" y="-162"/>
      <point x="134" y="-198"/>
      <point x="90" y="-198" type="curve" smooth="yes"/>
      <point x="80" y="-198"/>
      <point x="70" y="-206"/>
      <point x="68" y="-216" type="curve" smooth="yes"/>
      <point x="67" y="-226"/>
      <point x="73" y="-234"/>
      <point x="83" y="-234" type="curve" smooth="yes"/>
      <point x="147" y="-234"/>
      <point x="208" y="-182"/>
      <point x="220" y="-118" type="curve"/>
      <point x="330" y="507" type="line"/>
      <point x="330" y="507"/>
      <point x="330" y="508"/>
    </contour>
  </outline>
</glyph>
<glyph name="z" format="1">
  <advance width="270"/>
  <unicode hex="007A"/>
  <outline>
    <contour>
      <point x="253" y="103" type="curve" smooth="yes"/>
      <point x="243" y="103"/>
      <point x="233" y="94"/>
      <point x="231" y="84" type="curve" smooth="yes"/>
      <point x="225" y="46"/>
      <point x="214" y="36"/>
      <point x="175" y="36" type="curve"/>
      <point x="66" y="36" type="line"/>
      <point x="336" y="500" type="line"/>
      <point x="338" y="503"/>
      <point x="340" y="506"/>
      <point x="340" y="509" type="curve" smooth="yes"/>
      <point x="342" y="519"/>
      <point x="335" y="527"/>
      <point x="325" y="527" type="curve"/>
      <point x="196" y="527" type="line"/>
      <point x="137" y="527"/>
      <point x="107" y="501"/>
      <point x="97" y="443" type="curve" smooth="yes"/>
      <point x="95" y="433"/>
      <point x="101" y="424"/>
      <point x="111" y="424" type="curve" smooth="yes"/>
      <point x="121" y="424"/>
      <point x="131" y="433"/>
      <point x="133" y="443" type="curve" smooth="yes"/>
      <point x="139" y="481"/>
      <point x="151" y="491"/>
      <point x="190" y="491" type="curve"/>
      <point x="293" y="491" type="line"/>
      <point x="26" y="30" type="line"/>
      <point x="25" y="30"/>
      <point x="25" y="29"/>
      <point x="24" y="28" type="curve"/>
      <point x="23" y="26"/>
      <point x="21" y="22"/>
      <point x="21" y="18" type="curve" smooth="yes"/>
      <point x="20" y="17"/>
      <point x="20" y="16"/>
      <point x="21" y="16" type="curve"/>
      <point x="21" y="12"/>
      <point x="21" y="8"/>
      <point x="23" y="5" type="curve" smooth="yes"/>
      <point x="26" y="2"/>
      <point x="29" y="1"/>
      <point x="32" y="0" type="curve"/>
      <point x="34" y="0"/>
      <point x="35" y="0"/>
      <point x="36" y="0" type="curve"/>
      <point x="169" y="0" type="line"/>
      <point x="228" y="0"/>
      <point x="257" y="26"/>
      <point x="267" y="84" type="curve" smooth="yes"/>
      <point x="269" y="94"/>
      <point x="263" y="103"/>
    </contour>
  </outline>
</glyph>
<glyph name="braceleft" format="1">
  <advance width="264"/>
  <unicode hex="007B"/>
  <outline>
    <contour>
      <point x="197" y="432" type="curve"/>
      <point x="257" y="773" type="line"/>
      <point x="346" y="773" type="line"/>
      <point x="357" y="773"/>
      <point x="363" y="762"/>
      <point x="361" y="749" type="curve" smooth="yes"/>
      <point x="358" y="736"/>
      <point x="348" y="725"/>
      <point x="337" y="725" type="curve"/>
      <point x="286" y="725" type="line"/>
      <point x="233" y="425" type="line"/>
      <point x="229" y="420" type="line"/>
      <point x="186" y="374" type="line"/>
      <point x="137" y="321" type="line"/>
      <point x="168" y="268" type="line"/>
      <point x="194" y="224" type="line"/>
      <point x="197" y="218" type="line"/>
      <point x="144" y="-84" type="line"/>
      <point x="195" y="-84" type="line"/>
      <point x="206" y="-84"/>
      <point x="212" y="-95"/>
      <point x="209" y="-108" type="curve" smooth="yes"/>
      <point x="207" y="-121"/>
      <point x="197" y="-132"/>
      <point x="186" y="-132" type="curve"/>
      <point x="97" y="-132" type="line"/>
      <point x="157" y="209" type="line"/>
      <point x="157" y="209"/>
      <point x="85" y="296"/>
      <point x="89" y="321" type="curve" smooth="yes"/>
      <point x="93" y="345"/>
      <point x="197" y="432"/>
    </contour>
  </outline>
</glyph>
<glyph name="bar" format="1">
  <advance width="201"/>
  <unicode hex="007C"/>
  <outline>
    <contour>
      <point x="217" y="732" type="curve" smooth="yes"/>
      <point x="206" y="732"/>
      <point x="196" y="723"/>
      <point x="194" y="713" type="curve"/>
      <point x="177" y="614" type="line"/>
      <point x="89" y="118" type="line"/>
      <point x="72" y="19" type="line"/>
      <point x="70" y="8"/>
      <point x="77" y="0"/>
      <point x="88" y="0" type="curve" smooth="yes"/>
      <point x="98" y="0"/>
      <point x="108" y="8"/>
      <point x="110" y="19" type="curve"/>
      <point x="127" y="118" type="line"/>
      <point x="215" y="614" type="line"/>
      <point x="232" y="713" type="line"/>
      <point x="234" y="723"/>
      <point x="227" y="732"/>
    </contour>
  </outline>
</glyph>
<glyph name="braceright" format="1">
  <advance width="287"/>
  <unicode hex="007D"/>
  <outline>
    <contour>
      <point x="234" y="432" type="curve"/>
      <point x="294" y="773" type="line"/>
      <point x="205" y="773" type="line"/>
      <point x="194" y="773"/>
      <point x="184" y="762"/>
      <point x="182" y="749" type="curve" smooth="yes"/>
      <point x="179" y="736"/>
      <point x="185" y="725"/>
      <point x="196" y="725" type="curve"/>
      <point x="247" y="725" type="line"/>
      <point x="194" y="425" type="line"/>
      <point x="198" y="420" type="line"/>
      <point x="223" y="374" type="line"/>
      <point x="254" y="321" type="line"/>
      <point x="205" y="268" type="line"/>
      <point x="163" y="224" type="line"/>
      <point x="158" y="218" type="line"/>
      <point x="105" y="-84" type="line"/>
      <point x="54" y="-84" type="line"/>
      <point x="43" y="-84"/>
      <point x="33" y="-95"/>
      <point x="30" y="-108" type="curve" smooth="yes"/>
      <point x="28" y="-121"/>
      <point x="34" y="-132"/>
      <point x="45" y="-132" type="curve"/>
      <point x="134" y="-132" type="line"/>
      <point x="194" y="209" type="line"/>
      <point x="194" y="209"/>
      <point x="298" y="296"/>
      <point x="302" y="321" type="curve" smooth="yes"/>
      <point x="306" y="345"/>
      <point x="234" y="432"/>
    </contour>
  </outline>
</glyph>
<glyph name="asciitilde" format="1">
  <advance width="331"/>
  <unicode hex="007E"/>
  <outline>
    <contour>
      <point x="71" y="386" type="curve"/>
      <point x="69" y="375"/>
      <point x="85" y="376"/>
      <point x="104" y="381" type="curve"/>
      <point x="167" y="398"/>
      <point x="220" y="364"/>
      <point x="277" y="350" type="curve"/>
      <point x="245" y="358"/>
      <point x="214" y="372"/>
      <point x="183" y="380" type="curve"/>
      <point x="240" y="366"/>
      <point x="293" y="332"/>
      <point x="355" y="349" type="curve"/>
      <point x="375" y="355"/>
      <point x="394" y="375"/>
      <point x="396" y="386" type="curve" smooth="yes"/>
      <point x="398" y="398"/>
      <point x="383" y="397"/>
      <point x="363" y="392" type="curve"/>
      <point x="301" y="375"/>
      <point x="247" y="408"/>
      <point x="190" y="422" type="curve"/>
      <point x="222" y="415"/>
      <point x="252" y="401"/>
      <point x="285" y="393" type="curve"/>
      <point x="227" y="407"/>
      <point x="174" y="440"/>
      <point x="111" y="423" type="curve"/>
      <point x="92" y="418"/>
      <point x="73" y="398"/>
    </contour>
  </outline>
</glyph>
<glyph name="exclamdown" format="1">
  <advance width="183"/>
  <unicode hex="00A1"/>
  <outline>
    <contour>
      <point x="194" y="654" type="curve" smooth="yes"/>
      <point x="185" y="654"/>
      <point x="175" y="646"/>
      <point x="174" y="637" type="curve"/>
      <point x="158" y="547" type="line"/>
      <point x="79" y="99" type="line"/>
      <point x="64" y="16" type="line"/>
      <point x="63" y="7"/>
      <point x="69" y="-1"/>
      <point x="78" y="-1" type="curve" smooth="yes"/>
      <point x="88" y="-1"/>
      <point x="97" y="7"/>
      <point x="98" y="16" type="curve"/>
      <point x="113" y="99" type="line"/>
      <point x="192" y="547" type="line"/>
      <point x="208" y="637" type="line"/>
      <point x="209" y="646"/>
      <point x="204" y="654"/>
    </contour>
    <contour>
      <point x="207" y="731" type="curve" smooth="yes"/>
      <point x="198" y="731"/>
      <point x="189" y="723"/>
      <point x="187" y="714" type="curve"/>
      <point x="185" y="701" type="line"/>
      <point x="184" y="692"/>
      <point x="190" y="684"/>
      <point x="199" y="684" type="curve" smooth="yes"/>
      <point x="209" y="684"/>
      <point x="218" y="692"/>
      <point x="219" y="701" type="curve"/>
      <point x="221" y="714" type="line"/>
      <point x="223" y="723"/>
      <point x="217" y="731"/>
    </contour>
  </outline>
</glyph>
<glyph name="cent" format="1">
  <advance width="311"/>
  <unicode hex="00A2"/>
  <outline>
    <contour>
      <point x="340" y="390" type="line"/>
      <point x="344" y="412" type="line"/>
      <point x="356" y="477"/>
      <point x="313" y="530"/>
      <point x="248" y="530" type="curve" smooth="yes"/>
      <point x="183" y="530"/>
      <point x="122" y="477"/>
      <point x="110" y="412" type="curve"/>
      <point x="58" y="117" type="line"/>
      <point x="47" y="53"/>
      <point x="90" y="0"/>
      <point x="155" y="0" type="curve" smooth="yes"/>
      <point x="220" y="0"/>
      <point x="281" y="53"/>
      <point x="292" y="117" type="curve"/>
      <point x="296" y="140" type="line"/>
      <point x="260" y="140" type="line"/>
      <point x="256" y="117" type="line"/>
      <point x="248" y="73"/>
      <point x="206" y="36"/>
      <point x="161" y="36" type="curve" smooth="yes"/>
      <point x="116" y="36"/>
      <point x="86" y="73"/>
      <point x="94" y="117" type="curve"/>
      <point x="146" y="412" type="line"/>
      <point x="154" y="457"/>
      <point x="196" y="493"/>
      <point x="241" y="493" type="curve" smooth="yes"/>
      <point x="286" y="493"/>
      <point x="316" y="457"/>
      <point x="308" y="412" type="curve"/>
      <point x="304" y="390" type="line"/>
    </contour>
    <contour>
      <point x="271" y="641" type="curve" smooth="yes"/>
      <point x="260" y="641"/>
      <point x="250" y="632"/>
      <point x="248" y="622" type="curve"/>
      <point x="231" y="523" type="line"/>
      <point x="143" y="27" type="line"/>
      <point x="126" y="-72" type="line"/>
      <point x="124" y="-83"/>
      <point x="130" y="-91"/>
      <point x="141" y="-91" type="curve" smooth="yes"/>
      <point x="151" y="-91"/>
      <point x="162" y="-83"/>
      <point x="164" y="-72" type="curve"/>
      <point x="181" y="27" type="line"/>
      <point x="269" y="523" type="line"/>
      <point x="286" y="622" type="line"/>
      <point x="288" y="632"/>
      <point x="281" y="641"/>
    </contour>
  </outline>
</glyph>
<glyph name="sterling" format="1">
  <advance width="461"/>
  <unicode hex="00A3"/>
  <outline>
    <contour>
      <point x="455" y="137" type="curve" smooth="yes"/>
      <point x="444" y="137"/>
      <point x="433" y="128"/>
      <point x="431" y="117" type="curve" smooth="yes"/>
      <point x="424" y="74"/>
      <point x="381" y="38"/>
      <point x="338" y="38" type="curve"/>
      <point x="203" y="38" type="line"/>
      <point x="211" y="82" type="line"/>
      <point x="261" y="363" type="line"/>
      <point x="433" y="363" type="line"/>
      <point x="444" y="363"/>
      <point x="454" y="372"/>
      <point x="456" y="383" type="curve" smooth="yes"/>
      <point x="458" y="394"/>
      <point x="451" y="403"/>
      <point x="440" y="403" type="curve"/>
      <point x="268" y="403" type="line"/>
      <point x="304" y="608" type="line"/>
      <point x="306" y="623" type="line"/>
      <point x="380" y="623" type="line"/>
      <point x="445" y="623"/>
      <point x="508" y="676"/>
      <point x="519" y="742" type="curve" smooth="yes"/>
      <point x="521" y="753"/>
      <point x="514" y="762"/>
      <point x="503" y="762" type="curve" smooth="yes"/>
      <point x="492" y="762"/>
      <point x="481" y="753"/>
      <point x="479" y="742" type="curve" smooth="yes"/>
      <point x="472" y="698"/>
      <point x="430" y="663"/>
      <point x="387" y="663" type="curve"/>
      <point x="313" y="663" type="line"/>
      <point x="322" y="714" type="line"/>
      <point x="324" y="725"/>
      <point x="317" y="734"/>
      <point x="306" y="734" type="curve" smooth="yes"/>
      <point x="295" y="734"/>
      <point x="284" y="725"/>
      <point x="282" y="714" type="curve"/>
      <point x="273" y="663" type="line"/>
      <point x="240" y="663" type="line"/>
      <point x="229" y="663"/>
      <point x="219" y="654"/>
      <point x="217" y="643" type="curve" smooth="yes"/>
      <point x="215" y="632"/>
      <point x="222" y="623"/>
      <point x="233" y="623" type="curve"/>
      <point x="266" y="623" type="line"/>
      <point x="264" y="608" type="line"/>
      <point x="228" y="403" type="line"/>
      <point x="195" y="403" type="line"/>
      <point x="129" y="403"/>
      <point x="66" y="350"/>
      <point x="55" y="285" type="curve" smooth="yes"/>
      <point x="53" y="273"/>
      <point x="60" y="265"/>
      <point x="71" y="265" type="curve" smooth="yes"/>
      <point x="82" y="265"/>
      <point x="93" y="273"/>
      <point x="95" y="285" type="curve" smooth="yes"/>
      <point x="102" y="328"/>
      <point x="144" y="363"/>
      <point x="188" y="363" type="curve"/>
      <point x="221" y="363" type="line"/>
      <point x="171" y="82" type="line"/>
      <point x="163" y="38" type="line"/>
      <point x="92" y="38" type="line"/>
      <point x="81" y="38"/>
      <point x="71" y="29"/>
      <point x="69" y="18" type="curve" smooth="yes"/>
      <point x="67" y="7"/>
      <point x="74" y="-2"/>
      <point x="85" y="-2" type="curve"/>
      <point x="156" y="-2" type="line"/>
      <point x="152" y="-23" type="line"/>
      <point x="151" y="-34"/>
      <point x="158" y="-43"/>
      <point x="169" y="-43" type="curve" smooth="yes"/>
      <point x="180" y="-43"/>
      <point x="191" y="-34"/>
      <point x="192" y="-23" type="curve"/>
      <point x="196" y="-2" type="line"/>
      <point x="331" y="-2" type="line"/>
      <point x="397" y="-2"/>
      <point x="459" y="51"/>
      <point x="471" y="117" type="curve" smooth="yes"/>
      <point x="473" y="128"/>
      <point x="466" y="137"/>
    </contour>
  </outline>
</glyph>
<glyph name="currency" format="1">
  <advance width="604"/>
  <unicode hex="00A4"/>
  <outline>
    <contour>
      <point x="568" y="121" type="curve"/>
      <point x="518" y="181" type="line"/>
      <point x="474" y="236" type="line"/>
      <point x="486" y="252"/>
      <point x="494" y="270"/>
      <point x="497" y="289" type="curve"/>
      <point x="527" y="459" type="line"/>
      <point x="532" y="484"/>
      <point x="527" y="508"/>
      <point x="515" y="528" type="curve"/>
      <point x="517" y="529"/>
      <point x="519" y="530"/>
      <point x="520" y="531" type="curve"/>
      <point x="567" y="572" type="line"/>
      <point x="661" y="652" type="line"/>
      <point x="672" y="661"/>
      <point x="675" y="675"/>
      <point x="667" y="684" type="curve" smooth="yes"/>
      <point x="661" y="692"/>
      <point x="646" y="692"/>
      <point x="636" y="684" type="curve"/>
      <point x="564" y="623" type="line"/>
      <point x="494" y="563" type="line"/>
      <point x="491" y="561"/>
      <point x="490" y="559"/>
      <point x="489" y="557" type="curve"/>
      <point x="467" y="573"/>
      <point x="437" y="582"/>
      <point x="404" y="582" type="curve" smooth="yes"/>
      <point x="371" y="582"/>
      <point x="339" y="573"/>
      <point x="311" y="557" type="curve"/>
      <point x="310" y="559"/>
      <point x="309" y="561"/>
      <point x="308" y="563" type="curve"/>
      <point x="257" y="623" type="line"/>
      <point x="208" y="684" type="line"/>
      <point x="201" y="692"/>
      <point x="187" y="693"/>
      <point x="176" y="684" type="curve" smooth="yes"/>
      <point x="167" y="675"/>
      <point x="164" y="661"/>
      <point x="170" y="652" type="curve"/>
      <point x="221" y="592" type="line"/>
      <point x="270" y="531" type="line"/>
      <point x="271" y="530"/>
      <point x="273" y="529"/>
      <point x="274" y="528" type="curve"/>
      <point x="255" y="508"/>
      <point x="242" y="484"/>
      <point x="237" y="459" type="curve"/>
      <point x="207" y="289" type="line"/>
      <point x="204" y="270"/>
      <point x="206" y="252"/>
      <point x="212" y="236" type="curve"/>
      <point x="148" y="181" type="line"/>
      <point x="77" y="121" type="line"/>
      <point x="67" y="112"/>
      <point x="65" y="98"/>
      <point x="71" y="89" type="curve" smooth="yes"/>
      <point x="79" y="80"/>
      <point x="93" y="80"/>
      <point x="103" y="89" type="curve"/>
      <point x="153" y="131" type="line"/>
      <point x="235" y="201" type="line"/>
      <point x="257" y="179"/>
      <point x="291" y="165"/>
      <point x="331" y="165" type="curve" smooth="yes"/>
      <point x="371" y="165"/>
      <point x="409" y="179"/>
      <point x="439" y="201" type="curve"/>
      <point x="481" y="149" type="line"/>
      <point x="531" y="89" type="line"/>
      <point x="538" y="80"/>
      <point x="553" y="80"/>
      <point x="562" y="89" type="curve" smooth="yes"/>
      <point x="573" y="98"/>
      <point x="575" y="112"/>
    </contour>
    <contour>
      <point x="337" y="204" type="curve" smooth="yes"/>
      <point x="282" y="204"/>
      <point x="244" y="242"/>
      <point x="252" y="289" type="curve"/>
      <point x="282" y="459" type="line"/>
      <point x="291" y="506"/>
      <point x="342" y="544"/>
      <point x="397" y="544" type="curve" smooth="yes"/>
      <point x="452" y="544"/>
      <point x="491" y="506"/>
      <point x="482" y="459" type="curve"/>
      <point x="463" y="347" type="line"/>
      <point x="463" y="347"/>
      <point x="463" y="346"/>
      <point x="463" y="346" type="curve"/>
      <point x="452" y="289" type="line"/>
      <point x="444" y="242"/>
      <point x="392" y="204"/>
    </contour>
  </outline>
</glyph>
<glyph name="yen" format="1">
  <advance width="586"/>
  <unicode hex="00A5"/>
  <outline>
    <contour>
      <point x="530" y="734" type="curve" smooth="yes"/>
      <point x="519" y="734"/>
      <point x="509" y="725"/>
      <point x="508" y="715" type="curve"/>
      <point x="464" y="470" type="line"/>
      <point x="456" y="423"/>
      <point x="412" y="386"/>
      <point x="366" y="386" type="curve" smooth="yes"/>
      <point x="320" y="386"/>
      <point x="288" y="423"/>
      <point x="296" y="470" type="curve"/>
      <point x="340" y="715" type="line"/>
      <point x="342" y="726"/>
      <point x="335" y="734"/>
      <point x="324" y="734" type="curve" smooth="yes"/>
      <point x="314" y="734"/>
      <point x="304" y="726"/>
      <point x="302" y="715" type="curve"/>
      <point x="258" y="470" type="line"/>
      <point x="248" y="409"/>
      <point x="284" y="359"/>
      <point x="340" y="349" type="curve"/>
      <point x="282" y="19" type="line"/>
      <point x="280" y="9"/>
      <point x="288" y="0"/>
      <point x="298" y="0" type="curve" smooth="yes"/>
      <point x="308" y="0"/>
      <point x="318" y="9"/>
      <point x="320" y="19" type="curve"/>
      <point x="378" y="349" type="line"/>
      <point x="438" y="359"/>
      <point x="492" y="409"/>
      <point x="502" y="470" type="curve"/>
      <point x="546" y="715" type="line"/>
      <point x="547" y="725"/>
      <point x="540" y="734"/>
    </contour>
    <contour>
      <point x="87" y="271" type="curve" smooth="yes"/>
      <point x="86" y="264"/>
      <point x="91" y="258"/>
      <point x="98" y="258" type="curve"/>
      <point x="167" y="258" type="line"/>
      <point x="507" y="258" type="line"/>
      <point x="575" y="258" type="line"/>
      <point x="583" y="258"/>
      <point x="589" y="264"/>
      <point x="590" y="271" type="curve" smooth="yes"/>
      <point x="592" y="278"/>
      <point x="588" y="284"/>
      <point x="580" y="284" type="curve"/>
      <point x="512" y="284" type="line"/>
      <point x="172" y="284" type="line"/>
      <point x="103" y="284" type="line"/>
      <point x="96" y="284"/>
      <point x="89" y="278"/>
    </contour>
    <contour>
      <point x="67" y="155" type="curve" smooth="yes"/>
      <point x="66" y="148"/>
      <point x="71" y="142"/>
      <point x="78" y="142" type="curve"/>
      <point x="147" y="142" type="line"/>
      <point x="487" y="142" type="line"/>
      <point x="555" y="142" type="line"/>
      <point x="563" y="142"/>
      <point x="569" y="148"/>
      <point x="570" y="155" type="curve" smooth="yes"/>
      <point x="571" y="162"/>
      <point x="567" y="168"/>
      <point x="559" y="168" type="curve"/>
      <point x="491" y="168" type="line"/>
      <point x="151" y="168" type="line"/>
      <point x="82" y="168" type="line"/>
      <point x="75" y="168"/>
      <point x="68" y="162"/>
    </contour>
  </outline>
</glyph>
<glyph name="brokenbar" format="1">
  <advance width="81"/>
  <unicode hex="00A6"/>
  <outline>
    <contour>
      <point x="175" y="773" type="curve" smooth="yes"/>
      <point x="164" y="773"/>
      <point x="154" y="763"/>
      <point x="152" y="750" type="curve"/>
      <point x="85" y="374" type="line"/>
      <point x="123" y="374" type="line"/>
      <point x="190" y="750" type="line"/>
      <point x="192" y="763"/>
      <point x="185" y="773"/>
    </contour>
    <contour>
      <point x="3" y="-95" type="line"/>
      <point x="0" y="-108"/>
      <point x="7" y="-118"/>
      <point x="18" y="-118" type="curve" smooth="yes"/>
      <point x="28" y="-118"/>
      <point x="38" y="-108"/>
      <point x="41" y="-95" type="curve"/>
      <point x="107" y="280" type="line"/>
      <point x="69" y="280" type="line"/>
    </contour>
  </outline>
</glyph>
<glyph name="section" format="1">
  <advance width="466"/>
  <unicode hex="00A7"/>
  <outline>
    <contour>
      <point x="531" y="736" type="curve"/>
      <point x="364" y="736" type="line"/>
      <point x="292" y="736"/>
      <point x="225" y="686"/>
      <point x="215" y="625" type="curve" smooth="yes"/>
      <point x="208" y="589"/>
      <point x="223" y="555"/>
      <point x="256" y="534" type="curve"/>
      <point x="216" y="513"/>
      <point x="189" y="479"/>
      <point x="182" y="442" type="curve"/>
      <point x="156" y="293" type="line"/>
      <point x="152" y="267"/>
      <point x="158" y="242"/>
      <point x="175" y="222" type="curve" smooth="yes"/>
      <point x="191" y="202"/>
      <point x="216" y="189"/>
      <point x="245" y="184" type="curve"/>
      <point x="247" y="184"/>
      <point x="249" y="183"/>
      <point x="252" y="183" type="curve"/>
      <point x="253" y="183" type="line"/>
      <point x="258" y="183"/>
      <point x="262" y="183"/>
      <point x="267" y="183" type="curve" smooth="yes"/>
      <point x="269" y="183"/>
      <point x="271" y="183"/>
      <point x="274" y="183" type="curve"/>
      <point x="317" y="179"/>
      <point x="345" y="148"/>
      <point x="338" y="111" type="curve" smooth="yes"/>
      <point x="331" y="70"/>
      <point x="287" y="38"/>
      <point x="239" y="38" type="curve"/>
      <point x="71" y="38" type="line"/>
      <point x="59" y="38"/>
      <point x="49" y="29"/>
      <point x="47" y="19" type="curve" smooth="yes"/>
      <point x="45" y="8"/>
      <point x="53" y="0"/>
      <point x="65" y="0" type="curve"/>
      <point x="233" y="0" type="line"/>
      <point x="305" y="0"/>
      <point x="371" y="50"/>
      <point x="382" y="111" type="curve" smooth="yes"/>
      <point x="388" y="147"/>
      <point x="373" y="181"/>
      <point x="342" y="202" type="curve"/>
      <point x="382" y="222"/>
      <point x="409" y="256"/>
      <point x="415" y="293" type="curve"/>
      <point x="441" y="442" type="line"/>
      <point x="446" y="469"/>
      <point x="440" y="495"/>
      <point x="423" y="515" type="curve" smooth="yes"/>
      <point x="407" y="534"/>
      <point x="381" y="547"/>
      <point x="352" y="552" type="curve"/>
      <point x="350" y="552"/>
      <point x="347" y="552"/>
      <point x="345" y="552" type="curve"/>
      <point x="342" y="552" type="line"/>
      <point x="338" y="553"/>
      <point x="335" y="553"/>
      <point x="332" y="553" type="curve" smooth="yes"/>
      <point x="330" y="553"/>
      <point x="327" y="553"/>
      <point x="325" y="553" type="curve"/>
      <point x="282" y="556"/>
      <point x="252" y="588"/>
      <point x="259" y="625" type="curve" smooth="yes"/>
      <point x="266" y="666"/>
      <point x="310" y="698"/>
      <point x="358" y="698" type="curve"/>
      <point x="525" y="698" type="line"/>
      <point x="537" y="698"/>
      <point x="548" y="707"/>
      <point x="550" y="717" type="curve" smooth="yes"/>
      <point x="552" y="728"/>
      <point x="543" y="736"/>
    </contour>
    <contour>
      <point x="325" y="515" type="curve"/>
      <point x="333" y="515" type="line"/>
      <point x="377" y="511"/>
      <point x="405" y="480"/>
      <point x="398" y="442" type="curve"/>
      <point x="381" y="344" type="line"/>
      <point x="381" y="344"/>
      <point x="381" y="344"/>
      <point x="381" y="343" type="curve"/>
      <point x="372" y="293" type="line"/>
      <point x="366" y="256"/>
      <point x="325" y="224"/>
      <point x="280" y="221" type="curve"/>
      <point x="277" y="221"/>
      <point x="274" y="221"/>
      <point x="271" y="221" type="curve"/>
      <point x="262" y="221" type="line"/>
      <point x="220" y="226"/>
      <point x="194" y="257"/>
      <point x="200" y="293" type="curve"/>
      <point x="226" y="442" type="line"/>
      <point x="233" y="480"/>
      <point x="274" y="512"/>
      <point x="318" y="515" type="curve"/>
      <point x="320" y="515"/>
      <point x="323" y="515"/>
    </contour>
  </outline>
</glyph>
<glyph name="dieresis" format="1">
  <advance width="223"/>
  <unicode hex="00A8"/>
  <outline>
    <contour>
      <point x="160" y="635" type="curve" smooth="yes"/>
      <point x="143" y="635"/>
      <point x="128" y="622"/>
      <point x="125" y="604" type="curve"/>
      <point x="121" y="581" type="line"/>
      <point x="118" y="562"/>
      <point x="128" y="549"/>
      <point x="145" y="549" type="curve" smooth="yes"/>
      <point x="163" y="549"/>
      <point x="180" y="562"/>
      <point x="183" y="581" type="curve"/>
      <point x="187" y="604" type="line"/>
      <point x="190" y="622"/>
      <point x="178" y="635"/>
    </contour>
    <contour>
      <point x="283" y="635" type="curve" smooth="yes"/>
      <point x="267" y="635"/>
      <point x="251" y="622"/>
      <point x="248" y="604" type="curve"/>
      <point x="244" y="581" type="line"/>
      <point x="241" y="562"/>
      <point x="252" y="549"/>
      <point x="268" y="549" type="curve" smooth="yes"/>
      <point x="287" y="549"/>
      <point x="303" y="562"/>
      <point x="306" y="581" type="curve"/>
      <point x="310" y="604" type="line"/>
      <point x="313" y="622"/>
      <point x="302" y="635"/>
    </contour>
  </outline>
</glyph>
